<svg xmlns="http://www.w3.org/2000/svg" xmlns:xlink="http://www.w3.org/1999/xlink" width="256" height="251" viewBox="0 0 256 251">
    <defs>
        <path id="ud70dcu3xa" d="M128.359 13.01L114.74.175v30.799h8.17V20.709l5.448 5.133 5.447-5.133v10.266h8.171V.176L128.359 13.01zM86.098 2.742V13.01H75.204l8.17 7.7h2.724v10.266h24.513v-7.7H94.27v-2.566h16.342v-7.7H94.27v-2.566h16.342v-7.7H86.098zm-28.642 0v7.7h8.171v20.532h8.17V10.443h8.172v-7.7H57.456zM28.814 30.976h24.513V2.743H28.814v28.232zm8.17-7.7h8.171V10.443h-8.17v12.832zM.173 2.744v7.699h8.17v20.532h8.172V10.443h8.17v-7.7H.172z"/>
        <path id="k4hof7z4zc" d="M1.479.285C.354.55-.331 1.92.457 2.805c.814 1.321 2.85.874 3.98.189.634-.868.451-2.284-.515-2.878C3.66.078 3.398.06 3.135.06c-.56 0-1.12.082-1.656.225z"/>
        <path id="g6h9h2ef9e" d="M1.44.285C.315.55-.368 1.92.42 2.805c.812 1.321 2.849.874 3.979.189.634-.868.45-2.284-.516-2.878C3.622.078 3.36.06 3.097.06c-.56 0-1.12.082-1.657.225z"/>
    </defs>
    <g fill="none" fill-rule="evenodd">
        <g>
            <g>
                <g>
                    <g>
                        <path fill="#FEFFFF" d="M233.43 119.092c-13.835 1.5-27.709 2.728-41.524 4.39-.332.079-.652.182-.969.307 2.081.221 4.166-.03 6.25-.053 10.291-.232 20.576-.732 30.863-1.12 7.945-.03 15.859-.967 23.666-2.38 1.334-.249 2.694-.474 3.937-1.053-2.195-.43-4.436-.442-6.661-.514-5.19-.088-10.387-.054-15.562.423M1.464 110.317c.96.518 2.012.823 3.064 1.09 7.209 1.886 14.548 3.375 21.982 4.038 11.107 1.147 22.203 2.462 33.317 3.54 1.905.156 3.804.488 5.72.43-1.124-.575-2.4-.685-3.62-.917-9.389-1.711-18.778-3.403-28.193-4.935-5.395-.903-10.749-2.114-16.205-2.594-5.334-.484-10.711-1.033-16.065-.652m238.703-7.532c-6.096.865-12.04 2.469-18 3.974-9.358 2.263-18.716 4.545-28.036 6.96-1.452.405-2.969.63-4.336 1.28 3.078-.095 6.08-.921 9.126-1.348 9.613-1.593 19.18-3.451 28.779-5.117 7.228-1.1 14.308-3.013 21.254-5.269 1.387-.507 2.884-.842 4.088-1.749-4.32-.038-8.607.694-12.875 1.269M5.222 92.887c.857.636 1.82 1.1 2.804 1.497 7.216 2.976 14.613 5.566 22.233 7.292 11.942 2.972 23.845 6.115 35.829 8.923.465.088.933.157 1.41.21-1.288-.808-2.785-1.147-4.207-1.631-8.806-2.933-17.638-5.784-26.49-8.584-4.762-1.478-9.445-3.234-14.28-4.473-3.491-.868-6.989-1.706-10.532-2.336-2.241-.392-4.477-.925-6.767-.898m229.664-5.239c-6.65 1.905-12.924 4.83-19.36 7.323-8.177 3.192-16.293 6.526-24.42 9.837-1.311.537-2.649 1.048-3.853 1.806 1.662-.202 3.208-.857 4.797-1.337 10.246-3.25 20.443-6.645 30.654-10.002 8.067-2.366 15.833-5.658 23.32-9.46.804-.404 1.562-.888 2.282-1.425-4.584.495-9 1.989-13.42 3.258M11.261 76.206c.998.789 2.076 1.467 3.174 2.11 5.54 3.243 11.244 6.226 17.173 8.7 10.989 4.346 21.864 8.98 32.868 13.292 2.008.735 3.929 1.76 6.036 2.191-1.227-.937-2.676-1.509-4.04-2.21-10.203-5.09-20.507-9.978-30.756-14.977-6.828-3.486-14.015-6.214-21.327-8.496-1.013-.336-2.065-.53-3.128-.61m89.375.621c-10.794 6.26-19.41 16.231-23.963 27.86-4.245 10.77-4.965 22.867-2.184 34.099-16.59-3.006-33.214-5.818-49.778-8.958 2.367-.175 4.74-.282 7.114-.37 9.728-.17 19.452-.617 29.176-.951 1.376-.046 2.755-.115 4.111-.344-2.411-.506-4.896-.285-7.342-.513-8.394-.317-16.792-.599-25.19-.835-5.841-.11-11.687-.621-17.528-.24-4.195.152-8.383.529-12.551 1.055-.793.091-1.581.26-2.325.568 2.241.587 4.57.697 6.855.987.595-.039 1.35.308 1.83-.172-.923 2.069-.98 4.393-1.506 6.576-.201 1.555-.83 3.106-.575 4.683.274 1.401 1.451 2.583 2.862 2.842 5.879 1.18 11.804 2.138 17.664 3.41-3.319-.324-6.645-.586-9.972-.838-1.87-.134-3.673 1.406-3.817 3.277-.275 2.925-.53 5.86-.713 8.793-.084 1.863 1.498 3.578 3.345 3.7 4.089.38 8.189.655 12.281 1.04 1.029.053 2.088.285 3.094-.053-1.668.56-2.404 2.426-2.214 4.072.165 2.023-.552 4.458 1.03 6.085 1.024 1.208 2.697 1.242 4.156 1.181 11.111-.03 22.222-.027 33.333.061-.385 2.439.93 5.082 3.32 5.917 2.537 1.04 5.01-.594 7.38-1.33 2.686-1.086 5.547-1.783 8.081-3.204.72 1.581 2.58 2.644 4.276 1.928 3.402-1.162 6.854-2.183 10.2-3.498 1.753 1.185 3.723 1.974 5.612 2.907l-.228-.907c-.126-2.915.144-5.84-.057-8.755-.13-5.158.552-10.29 1.059-15.415.103 0 .309.003.412.007-.328 2.195-.302 4.416-.396 6.63-.084 5.337-.16 10.676-.191 16.014-.023 1.097.163 2.4 1.166 3.047 1.005.568 2.21.198 3.254-.064 3.151-7.126 6.165-14.38 7.792-22.026.583-2.873 1.204-5.807.914-8.752-.24-1.52-1.207-2.998-2.64-3.619-1.646-.564-3.376.11-4.79.96-.27.312-.629.244-.956.149 1.566-.877 3.19-2.001 5.079-1.86 2.343.183 4.046 2.473 4.206 4.702.279 3.794-.86 7.497-1.92 11.098-2.148 6.714-4.431 13.396-7.041 19.945-1.052.45-2.176.66-3.308.755 1.723.93 3.529 1.707 5.446 2.13 5.109 1.174 10.402 1.402 15.625 1.113 5.735-.145 11.774-.424 16.926-3.22-1.028-.164-2.05-.377-3.025-.743-2.298-5.57-4.195-11.293-6.124-16.996-1.36-4.318-2.918-8.695-2.941-13.271-.08-2.34 1.334-4.686 3.578-5.475.869.023 1.737.103 2.606.18.057.121.175.369.232.494-1.055-.117-2.236-.369-3.2.233-1.566.91-2.378 2.77-2.336 4.541 0 2.683.51 5.338 1.07 7.952 1.647 7.537 4.611 14.7 7.736 21.725 1.154.274 2.557.69 3.559-.187 1.01-1.055.854-2.621.85-3.962-.115-6.95-.02-13.918-.5-20.852.248.563.518 1.131.58 1.756.358 3.086.635 6.183.742 9.288.152 3.982.134 7.964.245 11.945l-.088.038c-.203.633-.43 1.253-.656 1.882 2.222-.952 4.455-1.916 6.527-3.177 3.33 1.17 6.688 2.29 10.048 3.368 1.643.56 3.304-.553 3.993-2.016 1.467.953 3.174 1.384 4.79 2.012 2.416.865 4.805 1.795 7.232 2.629 2.385.811 5.216-.423 6.283-2.697.534-1.022.503-2.199.458-3.316 11.465-.102 22.934-.079 34.4-.068 1.588.133 3.19-.781 3.802-2.26.557-1.599.171-3.352.29-5.014.198-1.649-.515-3.58-2.24-4.083.994.35 2.045.148 3.07.083 4.085-.384 8.181-.662 12.266-1.04 1.31-.069 2.534-.9 3.094-2.084.522-.972.336-2.114.266-3.162-.247-2.473-.384-4.957-.651-7.43-.236-1.84-2.05-3.284-3.898-3.097-3.212.27-6.428.468-9.629.83 4.93-1.18 9.968-1.916 14.94-2.922 1.612-.362 3.579-.343 4.65-1.821.971-1.166.845-2.767.506-4.146 2.027-.243 4.134.02 6.1-.624-2.106-.667-4.287-1.082-6.478-1.342-.243-1.303-.475-2.606-.715-3.905-.21-1.371-.583-2.914-1.883-3.653-1.577-1.121-3.51-.336-5.216-.066-9.061 1.654-18.088 3.525-27.187 4.958l-.016.083c-5.78-.194-11.572-.362-17.36-.564-1.939-.019-3.886-.209-5.82.004 1.367.499 2.848.488 4.281.686 3.742.392 7.484.85 11.23 1.208-7.895 1.428-15.795 2.83-23.697 4.221 2.225-8.832 2.183-18.215 0-27.054-2.995-12.28-10.421-23.368-20.495-30.98-8.978-6.87-20.12-10.825-31.41-11.24-10.524-.438-21.177 2.134-30.273 7.464m127.734-3.741c-7.098 3.185-13.599 7.494-20.408 11.22-7.358 4.16-14.654 8.432-21.955 12.696-.804.453-1.585.956-2.251 1.6 3.14-1.185 6.077-2.835 9.121-4.241 9.518-4.534 18.9-9.35 28.414-13.895 6.29-3.147 12.3-6.855 18.046-10.912.62-.42 1.173-.934 1.673-1.494-4.383 1.185-8.502 3.182-12.64 5.026M19.625 60.372c.967 1.146 2.164 2.057 3.33 2.99 3.288 2.588 6.668 5.068 10.158 7.384 4.61 3.117 9.564 5.662 14.335 8.52 7.197 4.248 14.445 8.416 21.704 12.565 1.813 1.006 3.55 2.172 5.479 2.957-1.311-1.422-3.072-2.294-4.615-3.43-9.846-6.827-19.912-13.327-29.797-20.097-4.823-3.216-9.926-5.994-15.1-8.596-1.814-.804-3.544-1.84-5.494-2.293m206.795-4.82c-4.348 2.541-8.597 5.257-12.662 8.23-4.352 3.269-8.555 6.732-12.898 10.012-6.76 5.163-13.412 10.459-20.096 15.717-.61.469-1.166 1.002-1.646 1.6 1.402-.625 2.61-1.593 3.898-2.416 10.46-6.896 20.732-14.074 31.153-21.027 5.643-3.917 10.925-8.336 15.935-13.027.553-.51 1.025-1.1 1.46-1.714-1.83.632-3.456 1.703-5.144 2.625M30.198 45.855c.305.66.709 1.277 1.22 1.799 5.879 6.477 12.425 12.34 19.433 17.568 7.677 6.035 15.298 12.146 23.056 18.082 1.97 1.467 3.806 3.151 5.97 4.336-.887-1.14-2.02-2.042-3.07-3.018-8.433-7.734-17.018-15.297-25.53-22.94-5.064-4.789-10.634-9.006-16.384-12.939-1.54-1.005-3.052-2.06-4.695-2.888m187.355-4.964c-5.06 3.783-9.843 7.936-14.37 12.345-9.007 9.406-18.2 18.638-27.144 28.11-.926.948-1.913 1.866-2.572 3.032 2.188-1.55 4.066-3.478 6.09-5.223 5.291-4.74 10.596-9.471 15.812-14.295 5.891-5.399 12.08-10.5 17.368-16.516 2.526-2.96 5.387-5.712 7.35-9.092-.896.47-1.738 1.03-2.534 1.639M42.494 33.096c.759 1.619 1.86 3.036 2.888 4.488 4.626 6.427 9.808 12.444 15.444 18.006 7.114 7.395 14.163 14.852 21.365 22.16 1.223 1.222 2.328 2.59 3.776 3.561-1.037-1.653-2.374-3.085-3.601-4.59-7.724-9.396-15.691-18.578-23.457-27.936-4.366-5.033-9.145-9.711-14.163-14.093-.682-.62-1.432-1.166-2.252-1.596m160.05-1.803c-4.645 4.912-9.084 10.04-12.959 15.587-5.083 7.095-10.35 14.052-15.42 21.154-2.435 3.49-5.129 6.812-7.336 10.454.48-.35.942-.735 1.33-1.192 3.647-4.355 7.35-8.66 10.986-13.027 4.61-5.445 9.065-11.018 13.72-16.42 4.782-5.628 8.94-11.755 12.792-18.045.48-.766.857-1.589 1.128-2.45-1.608 1.09-2.846 2.606-4.241 3.94m-145.99-9.286c.225.797.503 1.578.873 2.32 3.845 7.567 8.265 14.86 13.436 21.6 6.271 8.725 12.532 17.465 18.921 26.106.983 1.31 1.868 2.71 3.056 3.848-.667-1.676-1.718-3.147-2.648-4.678C83.776 60.744 77.127 50.43 70.668 40c-3.182-4.961-6.763-9.655-10.544-14.177-1.142-1.315-2.232-2.69-3.57-3.815m131.255.637c-4.26 5.943-8.078 12.207-11.32 18.764-4.127 7.689-8.318 15.343-12.338 23.089-1.543 3.014-3.315 5.92-4.584 9.068.293-.309.58-.625.838-.964 6.444-9.998 12.639-20.159 18.923-30.26 3.749-5.715 7.068-11.707 9.899-17.93 1.01-2.3 2.172-4.556 2.85-6.983-1.776 1.417-2.896 3.44-4.268 5.216M71.952 13.242c.22 1.005.526 1.992.865 2.964 2.126 6.134 4.607 12.154 7.556 17.938C86.29 45.143 91.98 56.268 97.958 67.24c.796 1.421 1.462 2.93 2.476 4.222-.503-2.165-1.642-4.1-2.476-6.138-4.645-10.771-9.625-21.394-14.316-32.146-2.926-6.366-6.413-12.466-10.246-18.33-.38-.62-.865-1.166-1.444-1.607m101.111 1.13c-2.187 4.215-4.271 8.482-6.066 12.88-1.558 3.779-2.793 7.676-4.23 11.502-3.38 8.99-6.656 18.02-9.887 27.066-.442 1.23-.941 2.458-1.128 3.765.252-.366.488-.748.705-1.14 5.712-12.386 11.058-24.944 16.663-37.38 2.11-4.884 3.802-9.94 5.35-15.027.609-2.152 1.299-4.294 1.569-6.523-1.269 1.433-2.065 3.197-2.976 4.858m-84.547-7.89c.186 2.594.826 5.128 1.379 7.665 1.46 6.409 3.31 12.733 5.711 18.856 3.583 9.876 7.069 19.782 10.746 29.627.747 1.87 1.246 3.863 2.305 5.6-.358-2.453-1.238-4.792-1.86-7.185-3.097-11.25-6.526-22.407-9.667-33.646-1.68-5.513-3.78-10.893-6.092-16.17-.777-1.616-1.39-3.337-2.522-4.747m68.524 2.061c-2.224 6.172-4.187 12.455-5.505 18.886-1.741 8.68-3.814 17.286-5.57 25.962-.885 4.492-1.994 8.946-2.698 13.468.94-1.17 1.024-2.743 1.5-4.122 3.548-11.861 6.757-23.82 10.239-35.7 1.764-6.374 2.988-12.893 3.83-19.455.156-1.176.232-2.361.175-3.55-.877 1.398-1.392 2.98-1.97 4.511m-51.112-6.4c-.332 2.075-.011 4.171.057 6.255.556 6.6 1.372 13.187 2.877 19.641 2.218 10.222 4.203 20.494 6.504 30.701.572 2.43.865 4.945 1.768 7.288.038-.415.061-.838.023-1.253-1.54-11.693-3.224-23.367-4.938-35.034-.877-7.886-2.569-15.662-4.775-23.278-.422-1.468-.86-2.938-1.516-4.32m34.598 1.763c-1.105 4.767-1.963 9.586-2.58 14.44-.758 5.54-.811 11.136-1.349 16.7-.75 10.001-1.54 19.998-2.065 30.015.095.015.278.042.37.053 1.802-11.887 3.407-23.805 5.022-35.719 1.245-7.57 1.87-15.24 1.848-22.91-.02-1.836.038-3.684-.244-5.505-.61.865-.766 1.924-1.002 2.926M123.579.303c-.203.918-.355 1.848-.435 2.785-.61 6.823-.712 13.693-.373 20.536.75 9.015 1.173 18.052 1.859 27.074.427 4.759.534 9.555 1.192 14.292.138-.431.256-.873.26-1.326.144-11.949.026-23.897-.008-35.841.19-8.485-.495-16.978-1.875-25.349-.117-.746-.335-1.474-.62-2.171" transform="translate(-60.000000, -58.000000) translate(-734.000000, 0.000000) translate(794.000000, 58.000000) translate(0.000000, 0.981132)"/>
                        <path fill="#FEFFFF" d="M111.637 98.632c.285-1.261.975-2.857 2.469-2.941 1.508-.065 2.492 1.326 3.17 2.491 1.47 2.683 2.599 5.628 4.824 7.815-3.201-1.901-6.386-4.15-8.291-7.434.038 1.406.22 2.866-.221 4.226-.465 1.127-1.273 2.065-1.94 3.07-.56-2.366-.488-4.853-.011-7.227M137.985 98.563c.724-1.215 1.608-2.815 3.208-2.857 1.273-.103 1.955 1.147 2.58 2.038.202 1.15.343 2.313.435 3.479.018 1.383-.047 2.766-.134 4.145-.678-.465-1.417-.918-1.813-1.66-.915-1.54-.622-3.403-.511-5.099-2.008 3.239-5.209 5.364-8.276 7.48l1.177-.096c-.427.092-.854.183-1.276.263l-.05.327-.43-.041c2.324-2.218 3.65-5.17 5.09-7.979M112.746 109.894c-1.38.934-1.867 2.675-2.157 4.23-.29 2.164-.282 4.42.324 6.534.484 2.13 3.825 2.564 4.903.705 1.102-1.757 1.273-3.902 1.418-5.917.133-2-.648-4.18-2.404-5.274-.61-.354-1.421-.697-2.084-.278m-1.803.465c.279-.678.553-1.52 1.33-1.764 1.524-.488 3.205.294 4.191 1.478.888.953 1.19 2.298 2.062 3.262 1.021.712 2.248 1.063 3.323 1.699-.831.9-2.054 1.314-2.885 2.194-1.536 2.798-2.838 5.914-5.426 7.933-.716.598-1.95.785-2.572-.035-1.368-1.61-1.364-3.877-1.47-5.874.068-3.006.415-6.054 1.447-8.893M141.689 109.92c-1.84.817-2.843 2.866-2.885 4.805-.019 1.742.206 3.494.713 5.16.35 1.047.938 2.202 2.07 2.556.978.175 2.14.072 2.895-.648.869-1.006.953-2.412 1.093-3.673.164-2.534.053-5.31-1.451-7.464-.515-.803-1.555-1.253-2.435-.735m-.381-1.177c1.12-.488 2.918-.503 3.421.85 1.437 3.26 1.769 6.915 1.73 10.442-.083 1.726-.224 3.647-1.375 5.026-.64.83-1.856.777-2.595.122-2.591-2.012-3.906-5.113-5.422-7.913-.846-.9-2.172-1.262-2.808-2.39 1.341-.712 3.174-.944 3.875-2.472.682-1.482 1.577-3.033 3.174-3.665M127.583 119.686c-1.056 1.524-2.527 2.69-4.161 3.543-4.085 2.191-8.562 3.517-13.02 4.71-.445 2.575-.008 5.204.678 7.696.545 1.84 1.167 3.726 2.424 5.22.343-1.102.823-2.229 1.848-2.858 3.048-2.13 6.672-3.223 10.208-4.248 1.124-.24 2.29-.853 3.433-.354 3.91 1.22 7.899 2.453 11.37 4.678 1.14.656 1.616 1.925 2.218 3.018 1.265-1.573 1.885-3.524 2.373-5.448.59-2.458.965-5.026.523-7.54-3.75-.957-7.446-2.165-10.963-3.784-2.088-1.04-4.287-2.153-5.666-4.107-.27-.37-.85-1.31-1.265-.526m-3.15 1.886c1.512-.857 2.068-2.743 3.73-3.391 1.291.85 1.97 2.336 3.265 3.182 3.239 2.236 7.015 3.493 10.672 4.854.594.228 1.196.434 1.81.613.747.202 1.494.408 2.241.62.545 3.06-.18 6.154-1.105 9.065-.587 1.692-1.17 3.498-2.53 4.751-.637-1.131-1.132-2.453-2.344-3.101-3.28-2.023-7.09-2.93-10.775-3.92-1.57-.622-3.117.24-4.626.624-3.052.987-6.184 1.913-8.923 3.616-1.125.602-1.418 1.9-2.12 2.861-1.337-.396-1.676-1.954-2.182-3.074-1.129-3.407-2.161-7.064-1.457-10.665 1-.297 2.013-.575 2.97-.99l.243-.092c3.89-1.166 7.724-2.717 11.13-4.953" transform="translate(-60.000000, -58.000000) translate(-734.000000, 0.000000) translate(794.000000, 58.000000) translate(0.000000, 0.981132)"/>
                        <path fill="#FEFFFF" d="M126.661 122.132c.811 2.88.816 5.917 1.261 8.862.091.02.278.054.373.073.462-2.976.412-6.062 1.296-8.954.835 3.601-.514 7.106-1.44 10.527-1.09-3.36-2.344-6.93-1.49-10.508M10.236 133.113c1.291-.557 3.018-.244 4.15.579 1.55 1.223.236 3.893-1.59 3.817-1.074-.076-2.358-.171-3.086-1.082-.64-1.01-.362-2.541.526-3.314M243.471 133.227c.926-.297 1.924-.434 2.9-.362 1.741.576 1.966 3.76.041 4.275-1.288.46-3.109.713-3.924-.675-.968-1.082-.29-2.78.983-3.238M27.97 146.513c.955.084 1.923.148 2.834.468-.964-.011-1.909-.213-2.835-.468M225.654 146.974c.91-.301 1.874-.382 2.835-.408-.93.236-1.879.396-2.835.408M17.746 151.694c.95-.16 1.936-.107 2.865.14 1.086.432 1.712 1.704 1.589 2.836-.243 1.132-1.417 1.924-2.549 1.893-1.055-.052-2.256.05-3.143-.62-1.021-1.323-.652-3.948 1.238-4.249M236.498 151.725c1.01-.141 2.119-.251 3.075.202 1.234.647 1.338 2.35.907 3.52-.473 1.09-1.863 1.018-2.854 1.109-1.315.217-2.79-.495-3.167-1.825-.148-1.284.664-2.823 2.039-3.006M117.882 165.768c.526-1.89 1.581-3.608 3.071-4.888 1.836.99 3.707 1.917 5.548 2.908-.019 5.295-.03 10.595-.004 15.895-.396.015-.785.03-1.177.053.008-3.75.404-7.632-.713-11.266l-.29.076c-.96 3.517-1.508 7.178-1.264 10.836-.553.076-1.102.156-1.65.24.304-3.231.72-6.508.228-9.739-.057-.629-.404-1.158-.758-1.653-.667 3.81-.933 7.68-1.566 11.495-.617-.122-1.234-.24-1.848-.359-.537-4.507-.846-9.178.423-13.598M129.892 163.73c1.646-.818 3.247-1.719 4.893-2.534.716-.506 1.28.382 1.737.815 2.287 2.866 2.667 6.695 2.84 10.231-.009 2.373-.161 4.77-.565 7.11-.58.27-1.25.22-1.867.327-.381-3.395-.85-6.775-1.254-10.165-.034-.477-.305-.877-.53-1.273-1.234 3.688-.51 7.643-.24 11.43-.54-.1-1.074-.198-1.607-.293.19-3.182-.218-6.363-.927-9.457-.121-.583-.38-1.12-.643-1.646-1.132 3.689-.633 7.617-.675 11.412-.407.011-.815.023-1.22.038.047-5.33-.052-10.665.058-15.995" transform="translate(-60.000000, -58.000000) translate(-734.000000, 0.000000) translate(794.000000, 58.000000) translate(0.000000, 0.981132)"/>
                        <path fill="#3EC0C5" d="M123.578.303c.286.697.503 1.425.621 2.171 1.38 8.371 2.066 16.864 1.875 25.348.034 11.945.153 23.893.008 35.842-.004.453-.122.895-.26 1.325-.659-4.735-.766-9.532-1.192-14.291-.686-9.022-1.109-18.06-1.86-27.074-.339-6.843-.235-13.712.374-20.536.08-.937.233-1.867.434-2.785M140.527 3.907c.236-1.002.392-2.061 1.002-2.926.282 1.821.224 3.669.244 5.505.023 7.67-.603 15.34-1.848 22.91-1.616 11.914-3.22 23.832-5.022 35.719-.092-.011-.275-.038-.37-.053.526-10.016 1.314-20.014 2.065-30.015.538-5.563.59-11.16 1.35-16.7.616-4.854 1.474-9.673 2.579-14.44M105.929 2.143c.655 1.383 1.093 2.854 1.517 4.32 2.206 7.617 3.898 15.393 4.774 23.28 1.714 11.666 3.398 23.34 4.938 35.033.038.416.015.838-.023 1.254-.903-2.344-1.196-4.858-1.768-7.289-2.301-10.207-4.287-20.479-6.504-30.701-1.505-6.455-2.32-13.042-2.877-19.641-.068-2.084-.388-4.18-.057-6.256M157.04 8.544c.58-1.532 1.095-3.113 1.97-4.511.058 1.189-.018 2.374-.174 3.55-.843 6.562-2.066 13.08-3.83 19.455-3.483 11.88-6.691 23.84-10.238 35.7-.477 1.38-.56 2.952-1.501 4.122.704-4.522 1.813-8.976 2.697-13.468 1.756-8.675 3.83-17.283 5.57-25.962 1.319-6.431 3.281-12.714 5.507-18.886M88.516 6.483c1.131 1.41 1.745 3.131 2.522 4.747 2.313 5.277 4.413 10.657 6.093 16.17 3.14 11.24 6.569 22.395 9.666 33.646.622 2.393 1.502 4.732 1.86 7.185-1.06-1.736-1.558-3.73-2.305-5.6-3.677-9.845-7.163-19.751-10.745-29.627-2.4-6.122-4.252-12.447-5.712-18.856-.553-2.537-1.193-5.07-1.38-7.665M173.063 14.373c.911-1.66 1.707-3.425 2.976-4.857-.27 2.229-.96 4.37-1.57 6.522-1.547 5.087-3.238 10.143-5.35 15.027-5.604 12.436-10.95 24.993-16.662 37.38-.217.393-.453.773-.705 1.14.187-1.307.686-2.535 1.128-3.765 3.231-9.045 6.508-18.075 9.888-27.067 1.436-3.825 2.67-7.722 4.229-11.502 1.795-4.397 3.88-8.664 6.066-12.878M71.952 13.242c.579.441 1.063.987 1.444 1.608 3.834 5.863 7.32 11.963 10.246 18.33 4.69 10.751 9.67 21.374 14.316 32.145.834 2.038 1.973 3.973 2.476 6.138-1.013-1.292-1.68-2.8-2.476-4.222-5.979-10.973-11.668-22.098-17.585-33.097-2.949-5.784-5.43-11.804-7.556-17.938-.34-.972-.644-1.958-.865-2.964M187.81 22.645c1.37-1.776 2.491-3.799 4.266-5.216-.678 2.427-1.84 4.682-2.849 6.984-2.831 6.222-6.15 12.215-9.9 17.93-6.283 10.1-12.479 20.261-18.922 30.259-.259.34-.545.655-.838.964 1.269-3.147 3.041-6.054 4.584-9.068 4.02-7.746 8.211-15.4 12.338-23.089 3.242-6.557 7.06-12.82 11.32-18.764M56.554 22.008c1.338 1.125 2.427 2.5 3.571 3.814 3.78 4.523 7.361 9.217 10.542 14.177 6.46 10.432 13.108 20.746 19.525 31.205.93 1.531 1.981 3.002 2.648 4.678-1.188-1.139-2.072-2.537-3.055-3.848-6.39-8.64-12.651-17.381-18.923-26.106-5.17-6.74-9.59-14.032-13.435-21.6-.37-.742-.648-1.523-.873-2.32M202.544 31.294c1.395-1.334 2.633-2.85 4.24-3.94-.27.86-.647 1.684-1.127 2.45-3.852 6.29-8.01 12.417-12.791 18.044-4.656 5.403-9.11 10.977-13.722 16.422-3.634 4.365-7.338 8.671-10.985 13.026-.388.457-.85.842-1.33 1.193 2.207-3.643 4.901-6.966 7.336-10.456 5.07-7.101 10.337-14.059 15.42-21.152 3.875-5.548 8.314-10.676 12.959-15.587M42.494 33.096c.82.43 1.57.975 2.252 1.596 5.019 4.382 9.796 9.06 14.163 14.093 7.766 9.358 15.733 18.54 23.457 27.936 1.226 1.504 2.564 2.937 3.6 4.59-1.447-.97-2.552-2.339-3.776-3.562-7.201-7.308-14.25-14.764-21.364-22.16-5.636-5.562-10.818-11.577-15.443-18.005-1.03-1.452-2.13-2.87-2.889-4.488M217.553 40.891c.796-.61 1.638-1.17 2.534-1.638-1.963 3.38-4.824 6.13-7.35 9.09-5.289 6.016-11.477 11.118-17.368 16.517-5.216 4.823-10.52 9.555-15.813 14.295-2.023 1.745-3.902 3.673-6.09 5.223.66-1.165 1.647-2.084 2.573-3.032 8.944-9.472 18.137-18.703 27.145-28.11 4.526-4.408 9.309-8.561 14.37-12.345M30.198 45.856c1.642.826 3.155 1.882 4.694 2.888 5.75 3.931 11.321 8.15 16.385 12.938 8.512 7.643 17.097 15.206 25.53 22.94 1.051.976 2.183 1.879 3.07 3.018-2.164-1.185-4-2.869-5.97-4.335-7.758-5.937-15.38-12.048-23.057-18.083-7.007-5.228-13.553-11.091-19.432-17.568-.511-.522-.915-1.14-1.22-1.798M226.42 55.552c1.687-.922 3.315-1.993 5.144-2.625-.435.613-.907 1.204-1.46 1.715-5.01 4.69-10.291 9.11-15.935 13.026-10.42 6.953-20.693 14.131-31.153 21.027-1.288.824-2.496 1.791-3.898 2.416.48-.598 1.037-1.132 1.646-1.6 6.683-5.258 13.336-10.554 20.096-15.716 4.343-3.281 8.546-6.745 12.898-10.014 4.065-2.971 8.314-5.688 12.662-8.229M19.624 60.372c1.951.453 3.682 1.49 5.495 2.293 5.174 2.602 10.277 5.38 15.1 8.596 9.885 6.77 19.951 13.27 29.797 20.097 1.544 1.136 3.304 2.008 4.615 3.43-1.928-.785-3.666-1.951-5.48-2.957-7.258-4.15-14.506-8.317-21.703-12.566-4.77-2.857-9.724-5.402-14.335-8.518-3.49-2.317-6.87-4.797-10.158-7.384-1.166-.934-2.363-1.845-3.33-2.991M228.37 73.086c4.139-1.845 8.258-3.841 12.64-5.026-.5.56-1.053 1.075-1.673 1.493-5.746 4.059-11.755 7.766-18.047 10.913-9.513 4.545-18.895 9.361-28.413 13.895-3.044 1.406-5.982 3.056-9.122 4.24.667-.644 1.448-1.146 2.252-1.6 7.301-4.263 14.598-8.534 21.955-12.695 6.81-3.726 13.31-8.035 20.408-11.22M100.956 78.287c10.738-6.413 23.739-8.87 36.089-6.912 16.44 2.439 31.366 12.989 39.295 27.577 6.71 12.036 8.383 26.621 5.006 39.944-3.832.713-7.673 1.375-11.514 2.061.133-1.962.987-3.76 1.402-5.661 1.467-6.374 1.555-13.057.362-19.484-.887-4.672-2.827-9.053-5.06-13.221-2.793-4.542-6.29-8.657-10.433-12.025-2.602-2.385-5.692-4.133-8.885-5.597-12.144-5.982-27.08-5.525-39.08.59-4.507 2.477-8.79 5.487-12.131 9.442-2.866 2.747-4.954 6.168-6.817 9.643-5.034 9.838-6.375 21.603-3.147 32.222.45 1.406.94 2.793 1.36 4.21-3.8-.656-7.59-1.35-11.385-2.008-3.018-11.487-2.222-23.969 2.415-34.916 4.462-10.751 12.502-19.948 22.523-25.865M11.26 76.206c1.064.08 2.115.274 3.13.61 7.311 2.282 14.497 5.01 21.326 8.496 10.25 4.999 20.553 9.887 30.756 14.977 1.365.701 2.813 1.273 4.04 2.21-2.108-.43-4.028-1.455-6.036-2.191-11.004-4.312-21.88-8.946-32.868-13.293-5.929-2.473-11.633-5.456-17.173-8.698-1.098-.644-2.176-1.322-3.174-2.11M234.886 87.648c4.42-1.27 8.836-2.763 13.42-3.258-.72.537-1.478 1.02-2.283 1.425-7.486 3.803-15.251 7.094-23.319 9.46-10.211 3.357-20.408 6.752-30.654 10.001-1.589.481-3.136 1.136-4.797 1.338 1.204-.758 2.541-1.269 3.852-1.806 8.128-3.31 16.244-6.645 24.421-9.838 6.436-2.491 12.71-5.418 19.36-7.322M5.221 92.886c2.29-.026 4.528.507 6.768.9 3.543.628 7.041 1.466 10.531 2.335 4.836 1.238 9.519 2.995 14.282 4.473 8.851 2.8 17.683 5.65 26.49 8.584 1.42.484 2.918.823 4.206 1.631-.477-.054-.945-.122-1.41-.21-11.984-2.808-23.887-5.95-35.829-8.923-7.62-1.725-15.016-4.317-22.233-7.292-.983-.396-1.947-.861-2.805-1.498" transform="translate(-60.000000, -58.000000) translate(-734.000000, 0.000000) translate(794.000000, 58.000000) translate(0.000000, 0.981132)"/>
                        <path fill="#3EC0C5" d="M139.273 96.049c.75-.751 1.615-1.883 2.805-1.696 1.379.503 1.504 2.153 1.695 3.391-.625-.89-1.306-2.141-2.58-2.038-1.6.042-2.484 1.642-3.208 2.857-1.44 2.808-2.766 5.761-5.09 7.979-.397.354-.915.54-1.376.792 2.396-3.882 4.798-7.8 7.754-11.285M112.582 94.833c.549-.822 1.696-.514 2.301.069 2.092 1.753 3.574 4.088 5.095 6.329 1.276 1.988 2.678 3.9 3.829 5.97-2.812-1.254-5.826-2.226-8.939-2.188-1.132-.015-2.217.348-3.22.847.667-1.006 1.475-1.944 1.94-3.071.442-1.36.259-2.82.22-4.226 1.905 3.285 5.091 5.533 8.292 7.434-2.225-2.187-3.353-5.132-4.824-7.815-.678-1.165-1.662-2.556-3.17-2.491-1.494.084-2.184 1.68-2.47 2.941-.476 2.374-.548 4.861.012 7.228-.22.323-.446.651-.666.975-.199-1.566-.305-3.162.007-4.72.453-2.431.065-5.167 1.593-7.282" transform="translate(-60.000000, -58.000000) translate(-734.000000, 0.000000) translate(794.000000, 58.000000) translate(0.000000, 0.981132)"/>
                        <path fill="#3EC0C5" d="M141.75 98.61c-.111 1.695-.404 3.558.51 5.097.397.743 1.137 1.197 1.815 1.66.087-1.378.152-2.761.132-4.144.096.952.26 1.894.465 2.83.126.892-.003 1.795-.045 2.694-2.561-2.869-6.775-1.55-9.976-.754-.293.023-.884.073-1.177.095 3.067-2.114 6.268-4.24 8.276-7.479M240.167 102.785c4.268-.576 8.555-1.307 12.875-1.269-1.204.907-2.7 1.242-4.088 1.749-6.946 2.255-14.026 4.168-21.254 5.269-9.599 1.665-19.167 3.525-28.78 5.117-3.044.427-6.047 1.254-9.126 1.349 1.368-.652 2.885-.877 4.337-1.28 9.32-2.416 18.678-4.698 28.037-6.96 5.959-1.506 11.903-3.11 18-3.975M110.943 110.36c-1.032 2.838-1.379 5.886-1.448 8.892.107 1.997.103 4.264 1.471 5.874.621.82 1.855.633 2.572.035 2.587-2.02 3.89-5.135 5.426-7.933.83-.88 2.054-1.295 2.885-2.194-1.075-.636-2.302-.987-3.323-1.699-.873-.964-1.174-2.31-2.061-3.262-.988-1.184-2.668-1.966-4.192-1.478-.777.244-1.052 1.086-1.33 1.764m.808-2.594c2.096-.797 4.504.278 5.758 2.034.906 1.12 1.15 2.918 2.717 3.36.872.477 2.316.71 2.419 1.91-.427 1.817-2.797 1.97-3.407 3.66-1.455 2.93-3.082 5.994-5.936 7.796l-.244.091c-1.296.161-2.682-.274-3.304-1.493-1.432-2.599-1.211-5.715-1.143-8.584.203-2.172.61-4.332 1.308-6.405.457-.88.868-1.931 1.832-2.37M141.308 108.744c-1.597.632-2.492 2.183-3.174 3.665-.701 1.528-2.534 1.76-3.875 2.473.636 1.128 1.962 1.49 2.808 2.389 1.517 2.8 2.831 5.901 5.422 7.913.74.656 1.955.709 2.595-.121 1.15-1.38 1.292-3.3 1.375-5.026.039-3.529-.293-7.182-1.73-10.444-.503-1.352-2.301-1.337-3.421-.85m-2.412.591c1.292-1.463 3.467-2.29 5.353-1.566.717.248 1.09.953 1.452 1.574 1.33 3.597 1.551 7.456 1.715 11.255-.164 1.634-.347 3.372-1.291 4.774-.497.78-1.422 1.078-2.214 1.46-.614-.18-1.216-.386-1.811-.614-2.469-2.047-4.069-4.885-5.452-7.727-.682-1.604-3.464-1.817-3.209-3.894.816-1.097 2.336-1.204 3.384-1.997.796-1.02 1.174-2.316 2.073-3.265M1.464 110.317c5.354-.38 10.73.168 16.065.652 5.456.48 10.81 1.692 16.205 2.594 9.416 1.532 18.804 3.224 28.193 4.934 1.22.233 2.496.343 3.62.919-1.917.057-3.815-.275-5.72-.43-11.114-1.08-22.21-2.393-33.317-3.54-7.434-.663-14.773-2.153-21.982-4.039-1.052-.267-2.104-.572-3.064-1.09M233.43 119.092c5.175-.477 10.373-.511 15.562-.423 2.225.072 4.466.083 6.661.514-1.243.58-2.603.804-3.937 1.052-7.807 1.414-15.721 2.35-23.666 2.38-10.287.39-20.572.889-30.863 1.121-2.084.023-4.169.274-6.25.053.317-.125.637-.228.969-.308 13.815-1.661 27.689-2.888 41.524-4.39M119.89 126.152c1.893-1.246 3.875-2.355 5.906-3.36-.29 1.417-.602 3.044-1.917 3.886-1.646.983-3.646 1.12-5.517 1.085.385-.643.884-1.22 1.528-1.611M130.479 123.016c2.015 1.014 4 2.1 5.88 3.353.62.4 1.116.96 1.535 1.57-1.867.053-3.844-.07-5.495-1.021-1.345-.82-1.706-2.462-1.92-3.902M2.501 127.63c4.168-.526 8.356-.903 12.551-1.055 5.841-.381 11.687.13 17.528.24 8.398.236 16.796.518 25.19.834 2.446.228 4.93.008 7.342.515-1.356.228-2.735.297-4.11.343-9.725.335-19.449.78-29.177.952-2.373.088-4.747.195-7.114.37-4.065-.709-8.1-1.563-12.166-2.256-1.417-.308-2.698.507-3.685 1.44-.48.48-1.234.134-1.829.172-2.286-.29-4.614-.4-6.855-.988.744-.307 1.532-.476 2.325-.567M115.516 132.107c2.598-1.128 5.266-2.576 8.165-2.51 1.094-.062 1.757.86 2.31 1.652-2.462.302-4.691 1.43-6.897 2.48-2.123 1.03-4.195 2.158-6.26 3.293-.115-2 .73-4.115 2.682-4.915M130.033 131.25c.976-2.107 3.57-1.886 5.415-1.204 2.126.812 4.39 1.45 6.233 2.838 1.284.96 1.452 2.645 1.51 4.126-4.265-2.152-8.383-4.93-13.158-5.76M190.999 132.522c1.935-.213 3.883-.023 5.822-.004 5.788.202 11.58.37 17.36.564-.007.06-.027.183-.035.24-2.595-.064-5.082.797-7.636 1.094-3.745-.358-7.487-.816-11.229-1.208-1.432-.198-2.914-.187-4.282-.686M17.868 133.886c.22 1.62-.21 3.174-1.31 4.39 3.547 1.432 7.365 2 11.065 2.902 12.048 2.313 24.169 4.291 36.362 5.67 2.853.346 5.72.583 8.596.629 2.248-.062 4.462-.751 6.386-1.906-.934-.525-1.913-.971-2.965-1.2-14.223-3.482-28.62-6.164-43.04-8.683-5.039-.54-9.988-2.088-15.094-1.802m-1.006-.152c1.212-1.204 3.14-.83 4.676-.713 11.445 1.562 22.793 3.765 34.136 5.94 7.061 1.429 14.137 2.811 21.094 4.694 1.326.442 2.9.655 3.769 1.886-2.729 2.697-6.908 3.14-10.563 2.839-9.605-.759-19.142-2.233-28.657-3.757-7.64-1.311-15.314-2.568-22.809-4.587-1.204-.442-2.842-.66-3.323-2.039.584-.51 1.33-.914 1.68-1.631.187-.868-.087-1.756-.003-2.632M229.094 134.77c-16.586 2.744-33.15 5.723-49.473 9.776-.827.18-1.574.591-2.31.991 1.875 1.132 4.017 1.768 6.185 2 1.692.107 3.372-.209 5.06-.297 8.124-.765 16.194-1.958 24.25-3.223 7.814-1.288 15.637-2.598 23.33-4.496 1.28-.282 2.507-.773 3.646-1.425-.579-.808-1.417-1.607-1.257-2.697-.11-.518.236-1.497-.583-1.482-2.98-.309-5.917.43-8.848.853m-.636-.804c2.663-.385 5.311-.884 7.998-1.074 1.07-.012 2.347-.057 3.155.784.237.919-.225 1.898.08 2.805.427.598 1.044 1.028 1.608 1.493-.145.614-.549 1.11-1.166 1.304-3.026 1.219-6.26 1.778-9.427 2.506-12.925 2.599-25.964 4.648-39.06 6.134-3.852.31-7.849 1.12-11.625-.102-1.52-.404-2.983-1.128-4.027-2.332 1.055-1.261 2.77-1.482 4.248-1.958 6.82-1.814 13.748-3.185 20.663-4.572 9.16-1.803 18.343-3.483 27.553-4.988M249.198 135.665c2.19.26 4.37.675 6.477 1.342-1.965.643-4.073.38-6.1.625-.13-.656-.26-1.315-.377-1.967M87.136 146.524c1.585-.507 3.182-1.368 4.9-1.094 2.126.286 4.264 1.132 5.842 2.607.743.598.236 1.367-.252 1.913-3.532.376-7.35-.005-10.23-2.264-.103-.389-.19-.773-.26-1.162M158.885 147.655c2.896-2.297 7.629-3.371 10.593-.617-2.801 2.93-7.118 3.387-10.936 2.827-.255-.762-.469-1.702.343-2.21M25.062 152.43c.149 1.275.145 2.567-.03 3.844 3.414 1.216 7.075.762 10.615 1.112 2.908.267 5.833.141 8.741.363 5.834.396 11.69.095 17.52.491 5.144.103 10.288-.099 15.417-.427-1.03-1.676-3.026-2.301-4.794-2.857-5.757-1.082-11.625-1.327-17.448-1.856-9.994-.563-20.019-1.261-30.021-.67m-1.665.21c.293-1.01 1.433-1.053 2.301-1.167 5.594-.472 11.21-.114 16.811.035 6.863.285 13.725.712 20.568 1.334 3.468.38 6.985.566 10.384 1.41 2.13.757 4.507 1.77 5.506 3.965-1.856.91-3.993.72-5.997.853-13.603.26-27.214-.198-40.802-.868-2.537-.316-5.284.034-7.628-1.162-.896-.435-.309-1.444-.19-2.15.388-.902-.492-1.592-.953-2.25M213.945 152.437c-9.679.336-19.353 1.036-28.963 2.286-2.008.172-3.707 1.319-5.479 2.164-.05.35-.095.705-.137 1.064 5.567.121 11.137.556 16.705.152 3.798-.16 7.6-.019 11.4-.187 3.696.05 7.368-.446 11.065-.362 4.294-.327 8.646-.213 12.872-1.15-.446-1.311-.37-2.683.053-3.99-2.782-.33-5.582-.175-8.375-.194-3.049.076-6.105-.107-9.141.217m-7.24-.575c7.243-.343 14.502-.781 21.757-.53 1.615.122 3.418-.061 4.782.994-.412.652-.896 1.27-1.185 1.993.065.793.663 1.597.336 2.39-.885.864-2.219.974-3.377 1.154-9.072.731-18.176.902-27.27 1.173-7.37.046-14.758.374-22.112-.206-.713-.072-2.32-.25-1.722-1.314 1.753-2.29 4.729-3.337 7.499-3.75 7.057-1.01 14.182-1.443 21.292-1.904M119.07 152.792c-2.743 5.573-4.59 11.53-6.184 17.522.298-5.22.523-10.443.976-15.648.225.67.366 2.054 1.39 1.696 1.54-.865 2.634-2.302 3.819-3.57M110.31 156.67c1.334-.83 2.272-2.13 3.37-3.231-2.527 5.17-4.093 10.73-5.598 16.261.003-3.23.297-6.45.472-9.673.092-1.677.103-3.36.389-5.018.042.43.084.865.122 1.303.388.168.8.747 1.246.358M137.738 154.232c1.128 1.124 2.084 2.457 3.46 3.303 1.1.354 1.093-1.059 1.398-1.745.22 5.014.647 10.025.777 15.042-1.422-5.67-3.094-11.315-5.635-16.6M142.683 154.704c1.132 1.128 2.096 2.484 3.484 3.318 1.058.221 1.085-1.081 1.379-1.764.125 5.08.7 10.135.746 15.218-1.307-5.757-3.113-11.419-5.609-16.772M91.419 155.283c2.591-.293 5.54-.244 7.548 1.676-1.627 2.115-4.435 2.595-6.931 2.786-1.859.027-4.024.027-5.323-1.532 1.406-1.184 2.801-2.625 4.706-2.93M157.285 157.207c1.055-1.596 3.078-1.954 4.854-2.038 2.71-.133 5.456.872 7.358 2.827.21.571-.568.903-.964 1.15-2.527 1.015-5.354.621-7.94.054-1.32-.232-2.34-1.143-3.308-1.993M117.882 165.768c-1.27 4.42-.96 9.091-.423 13.598.614.119 1.23.237 1.848.359.633-3.814.9-7.685 1.566-11.495.354.495.7 1.024.758 1.653.492 3.231.076 6.508-.228 9.738.548-.083 1.097-.163 1.65-.24-.244-3.657.304-7.318 1.264-10.835l.29-.076c1.117 3.634.72 7.517.713 11.266.392-.023.781-.038 1.177-.053-.026-5.3-.015-10.6.004-15.895-1.84-.991-3.712-1.917-5.548-2.908-1.49 1.28-2.545 2.999-3.071 4.888m-.88 1.521c.553-2.584 1.562-5.506 4.004-6.862 2.058.873 3.979 2.053 5.986 3.04-.007 5.578-.003 11.156 0 16.734-.723-.007-1.443-.015-2.164-.012.076-3.455.19-6.934-.305-10.367-.788 3.235-1.276 6.588-.91 9.918-.926.19-1.856.373-2.782.56.373-3.368.827-6.786.343-10.161-.621 3.333-.907 6.725-1.353 10.084-.899-.102-1.806-.155-2.686-.376-.773-4.123-.857-8.42-.133-12.558M129.892 163.73c-.11 5.33-.011 10.664-.057 15.995.404-.015.812-.027 1.22-.038.041-3.795-.458-7.723.674-11.412.262.526.522 1.063.643 1.646.71 3.094 1.117 6.275.927 9.457.533.095 1.067.194 1.608.293-.271-3.787-.995-7.742.24-11.43.224.396.495.796.53 1.273.403 3.39.872 6.77 1.253 10.165.617-.107 1.288-.058 1.867-.328.404-2.339.556-4.736.564-7.109-.172-3.536-.552-7.365-2.839-10.23-.457-.434-1.02-1.322-1.737-.816-1.646.815-3.247 1.716-4.893 2.534m-.488-.293c2.012-1.04 4.017-2.104 6.043-3.113 2.649 1.978 3.776 5.292 4.127 8.462.503 3.685.21 7.418-.293 11.087-.91.122-1.822.248-2.732.381-.472-3.463-.884-6.934-1.322-10.4-.599 3.466-.042 6.987.236 10.454-.934-.202-1.863-.4-2.79-.614.5-3.173-.076-6.4-.773-9.498-.785 3.265-.331 6.678-.38 10.005-.71-.007-1.418-.004-2.127.004.026-5.59.011-11.179.011-16.768M149.877 163.178l.85.015c.023 1.6-.091 3.212.148 4.804.363 2.104 1.715 3.924 3.468 5.102-1.376.74-2.777 1.433-4.222 2.023-.11-3.982-.091-7.963-.244-11.944M92.917 168.329c.125.732.263 1.463.411 2.194.796.023 1.604.122 2.4-.007.409-.42.919-1.09.503-1.673-.723-1.112-2.248-1.093-3.314-.514m-2.126-.134c1.017-1.756 3.181-2.27 5.052-2.537 2.461-.557 4.248 3.162 2.484 4.88-1.147 1.014-2.594 1.658-4.031 2.165-1.421.495-2.58-.697-3.582-1.509-.011-.994-.19-2.027.077-2.999M159.826 169.624c.732.96 2.035 1.375 3.098.69 1.063-.617.484-2.621-.785-2.427-1.124-.065-1.985.713-2.313 1.737m-1.029-3.825c2.005-.61 4.386.13 5.995 1.456 2.049 1.577.88 5.787-1.91 5.535-2.02-.247-3.913-1.318-5.426-2.644-.328-1.54-.217-3.505 1.341-4.347M43.405 166.683c.66-.332 1.421-.279 2.138-.313 4.587-.01 9.175-.149 13.759 0 .514-.068 1.6.523.792 1.003-2.667.343-5.33.742-8.017.899-3.181.236-6.382.628-9.571.315.278-.643.427-1.37.899-1.904M196.287 166.447c4.618-.286 9.252-.107 13.877-.077.98.015 1.985.008 2.931.324.423.572.335 1.333.438 2.004-5.19.168-10.349-.678-15.523-.948-.694-.134-2.42-.23-1.723-1.303M105.917 166.782l.103.549c.42 2.465 0 4.983.316 7.463-1.295-.59-2.568-1.23-3.798-1.942 1.996-1.388 3.075-3.708 3.38-6.07M177.167 172.577c.255 1.523 2.107 1.06 3.14.708-.004-.708-.008-1.413-.004-2.118-1.132-.472-3.52-.313-3.136 1.41m-.853-3.947c2.194.163 4.766.286 6.301 2.088 1.437 1.859.192 4.953-2.182 5.159-1.955-.118-3.662-1.266-5.24-2.332-.948-.473-.564-1.658-.392-2.465.179-.983.884-1.727 1.513-2.45M76.483 171.171c-.305.385-.724.938-.435 1.448.42 1.413 2.999 1.478 3.277-.035.225-1.436-1.897-2.179-2.842-1.413m.076-2.092c1.223-.41 2.518-.305 3.772-.13.743 1.094 1.463 2.336 1.261 3.716-1.39 2.125-4.012 3.024-6.424 3.318-1.105-.937-2.31-2.168-2.016-3.757.16-1.768 1.902-2.678 3.407-3.147" transform="translate(-60.000000, -58.000000) translate(-734.000000, 0.000000) translate(794.000000, 58.000000) translate(0.000000, 0.981132)"/>
                        <path fill="#211F21" d="M100.636 76.827c9.096-5.33 19.75-7.902 30.273-7.464 11.29.416 22.432 4.37 31.41 11.24 10.074 7.612 17.5 18.7 20.494 30.98 2.184 8.839 2.226 18.222 0 27.054l-1.466.26c3.376-13.324 1.703-27.91-5.007-39.945-7.929-14.588-22.854-25.138-39.296-27.577-12.35-1.958-25.35.499-36.088 6.912-10.02 5.917-18.06 15.114-22.522 25.865-4.638 10.947-5.434 23.429-2.416 34.916-.51-.095-1.022-.19-1.528-.282-2.782-11.232-2.061-23.329 2.183-34.1 4.554-11.628 13.169-21.599 23.963-27.859M101.086 173.655c.488-.255.983-.51 1.452-.803 1.23.712 2.503 1.352 3.798 1.943.035.285.077.571.134.86l.229.907c-1.89-.933-3.86-1.722-5.613-2.907M154.343 173.1c.507.281 1.029.525 1.562.765-2.073 1.26-4.305 2.225-6.527 3.177.225-.628.453-1.25.655-1.882l.089-.038c1.443-.59 2.846-1.283 4.221-2.023" transform="translate(-60.000000, -58.000000) translate(-734.000000, 0.000000) translate(794.000000, 58.000000) translate(0.000000, 0.981132)"/>
                        <path fill="#9580BC" d="M108.139 85.56c11.999-6.115 26.935-6.572 39.079-.59 3.193 1.462 6.283 3.211 8.885 5.596 4.142 3.368 7.64 7.483 10.433 12.024 2.233 4.169 4.173 8.55 5.06 13.221 1.193 6.428 1.105 13.11-.362 19.485-.415 1.9-1.269 3.7-1.402 5.661-5.472.984-10.947 1.959-16.422 2.904-1.784.347-2.77 2.24-2.706 3.94.03 5.132.023 10.26.023 15.392l-.85-.015c-.106-3.105-.384-6.203-.743-9.289-.061-.625-.331-1.193-.579-1.756-.385-2.016-.225-4.47-1.95-5.91-1.4-1.234-2.847-2.656-4.768-2.964.157-.225.317-.45.477-.675 1.124.663 2.18 1.433 3.284 2.13-.586-.701-1.116-1.501-1.924-1.95-.8-.378-1.695-.442-2.546-.61l.016.034c-.869-.076-1.738-.156-2.606-.179 1.52-.224 3.063-.175 4.595-.194 1.155-1.627 2.104-3.402 2.693-5.311 1.64-5.121 1.899-10.573 1.59-15.907-.164-3.799-.384-7.658-1.715-11.255-.384-1.063-.77-2.176-.629-3.322.511-4.934 1.41-9.899.987-14.87-2.072-1.056-4.45-1.757-6.778-1.262-2.149.38-3.94 1.95-4.881 3.882-1.917 4.195-4.379 8.112-6.771 12.044-2.088-3.437-4.241-6.85-5.944-10.497-.82-1.92-2.237-3.718-4.276-4.408-2.686-.957-5.628-.187-8.047 1.143-.252 4.927.617 9.81 1.22 14.68.163 1.178-.317 2.301-.664 3.402-.697 2.073-1.105 4.234-1.306 6.405-.382 5.212-.473 10.493.487 15.648.678 3.673 1.825 7.357 4.13 10.352-.674.468-1.337.96-1.989 1.463.088.266.176.537.263.808-.994.765-2.091 1.497-2.74 2.598-.586 1.28-.659 2.713-.88 4.084-.102-.004-.308-.007-.41-.007-.508 5.125-1.19 10.257-1.06 15.415.202 2.915-.07 5.84.057 8.755-.057-.289-.099-.575-.133-.86-.317-2.48.102-5-.317-7.464l-.102-.55c-.218-5.672-.07-11.35-.1-17.026-.045-1.627.26-3.535-.956-4.843-.937-1.147-2.51-1.181-3.848-1.425-4.542-.777-9.077-1.596-13.611-2.411-.42-1.418-.91-2.804-1.36-4.21-3.228-10.619-1.887-22.384 3.147-32.222 1.863-3.475 3.951-6.896 6.817-9.643 3.342-3.955 7.624-6.965 12.132-9.441M17.868 133.886c5.106-.286 10.055 1.261 15.093 1.802 14.422 2.519 28.818 5.201 43.041 8.683 1.052.229 2.031.675 2.965 1.2-1.924 1.155-4.138 1.844-6.386 1.906-2.877-.046-5.743-.283-8.596-.63-12.193-1.378-24.314-3.356-36.362-5.669-3.7-.902-7.518-1.47-11.066-2.902 1.101-1.216 1.532-2.77 1.311-4.39M229.094 134.77c2.931-.423 5.868-1.162 8.848-.853.82-.015.473.964.583 1.482-.16 1.09.678 1.89 1.257 2.697-1.139.652-2.366 1.143-3.646 1.425-7.693 1.898-15.516 3.208-23.33 4.496-8.056 1.265-16.126 2.458-24.25 3.223-1.688.088-3.368.404-5.06.297-2.168-.232-4.31-.868-6.184-2 .735-.4 1.482-.811 2.31-.99 16.323-4.054 32.886-7.033 49.472-9.777" transform="translate(-60.000000, -58.000000) translate(-734.000000, 0.000000) translate(794.000000, 58.000000) translate(0.000000, 0.981132)"/>
                        <path fill="#9580BC" d="M87.136 146.524c.07.389.157.773.26 1.162 2.88 2.26 6.698 2.64 10.23 2.264.488-.546.995-1.315.252-1.913-1.578-1.475-3.716-2.32-5.842-2.607-1.718-.274-3.315.587-4.9 1.094m1.296-2.613c4.366-.66 8.76 1.078 12.11 3.813.677.606 1.447 1.421 1.23 2.416-.724 1.28-2.374 1.398-3.677 1.589-3.94.274-7.98-.48-11.542-2.199-1.406-.804-3.036-1.687-3.68-3.246 1.543-1.345 3.566-2.035 5.559-2.373M158.885 147.655c-.812.508-.598 1.448-.343 2.21 3.818.56 8.135.103 10.936-2.827-2.964-2.754-7.697-1.68-10.593.617m-3.132.294c3.11-2.671 7.202-4.45 11.358-4.134 2.443.122 4.768 1.093 6.745 2.503-2.428 3.312-6.619 4.588-10.498 5.216-2.628.312-5.547.625-7.97-.674-1.243-.717-.473-2.229.365-2.911M213.945 152.437c3.036-.324 6.092-.14 9.14-.217 2.794.019 5.594-.137 8.376.195-.423 1.306-.499 2.678-.053 3.988-4.226.938-8.578.824-12.872 1.151-3.697-.084-7.37.411-11.066.362-3.799.168-7.6.027-11.4.187-5.567.404-11.137-.031-16.704-.152.042-.359.087-.713.137-1.064 1.772-.845 3.471-1.992 5.48-2.164 9.609-1.25 19.283-1.95 28.962-2.286M25.062 152.43c10.002-.591 20.027.107 30.021.67 5.823.53 11.69.774 17.448 1.856 1.768.556 3.765 1.18 4.794 2.857-5.13.328-10.273.53-15.417.427-5.83-.396-11.686-.095-17.52-.491-2.908-.222-5.833-.096-8.74-.363-3.54-.35-7.202.104-10.617-1.112.176-1.277.18-2.569.031-3.844M91.419 155.283c-1.905.305-3.3 1.746-4.706 2.93 1.3 1.559 3.464 1.559 5.323 1.532 2.496-.19 5.304-.67 6.931-2.786-2.008-1.92-4.957-1.97-7.548-1.676m-1.128-1.1c3.342-.74 6.9-.264 10.045 1.043.88.4 2.171 1.326 1.504 2.423-.758 1.212-2.168 1.775-3.437 2.29-3.12 1.124-6.488 1.596-9.796 1.345-2.042-.206-4.188-.67-5.792-2.027 1.635-2.632 4.504-4.359 7.476-5.075M157.285 157.207c.968.85 1.989 1.76 3.307 1.993 2.587.567 5.414.96 7.941-.053.396-.248 1.173-.58.964-1.15-1.902-1.956-4.649-2.961-7.358-2.828-1.776.084-3.799.442-4.854 2.038m-2.226-1.234c1.772-1.406 4.134-1.722 6.31-2.047 4.721-.631 9.74 1.38 12.472 5.335-3.239 2.316-7.469 2.35-11.253 1.806-2.53-.45-5.174-1.04-7.243-2.64-.804-.526-1.166-1.822-.286-2.454M90.79 168.196c-.266.971-.088 2.003-.076 2.998 1.002.812 2.16 2.004 3.582 1.509 1.436-.507 2.884-1.15 4.031-2.164 1.765-1.719-.023-5.437-2.484-4.88-1.87.265-4.035.78-5.053 2.537m3.334-3.685c1.437-.29 3.09-.731 4.454.023 1.285 1.288 2.222 3.154 1.921 5.01-.255 1.494-1.745 2.176-2.896 2.9-1.894 1.063-4.046 2.335-6.298 1.741-2.427-1.018-3.723-4.519-2.088-6.725 1.162-1.592 3.056-2.446 4.907-2.949M158.797 165.799c-1.558.842-1.669 2.808-1.34 4.347 1.512 1.326 3.406 2.397 5.425 2.644 2.79.252 3.959-3.959 1.91-5.535-1.609-1.326-3.99-2.066-5.995-1.456m-.407-1.486c1.475-.404 3.036-.057 4.48.327 1.849.56 3.731 1.54 4.725 3.27 1.033 1.84.191 4.157-1.196 5.567-1.448 1.36-3.642.88-5.27.125-1.554-.785-3.177-1.554-4.458-2.759-1.55-2.057-.248-5.246 1.719-6.53M43.405 166.683c-.472.533-.62 1.26-.9 1.904 3.19.313 6.39-.08 9.572-.315 2.687-.157 5.35-.556 8.017-.9.808-.48-.278-1.07-.792-1.002-4.584-.149-9.172-.01-13.76 0-.716.034-1.478-.019-2.137.313m-3.597-.968c5.97-.281 11.953-.29 17.927-.286 3.849.122 7.773-.217 11.55.706-.229.49-.377 1.196-1.029 1.287-3.319.77-6.745.922-10.124 1.311-6.725.602-13.466 1.105-20.21 1.474-.941.058-1.883 0-2.82-.099-.713-1.295-.255-2.838.644-3.913 1.307-.415 2.705-.354 4.062-.48M196.287 166.447c-.697 1.074 1.029 1.17 1.723 1.303 5.174.27 10.333 1.116 15.523.948-.103-.67-.015-1.432-.438-2.004-.946-.316-1.951-.309-2.93-.324-4.626-.03-9.26-.21-13.878.077m-3.943-.93c8.474-.145 16.963-.176 25.434.266 1.044.153 2.26-.041 3.17.584.617.933 1.124 2.152.716 3.269-.647.86-1.848.556-2.77.582-8.767-.49-17.527-1.12-26.253-2.084-1.548-.236-3.144-.316-4.63-.819-.51-.137-.61-.625-.64-1.078 1.52-.777 3.319-.571 4.973-.72M76.559 169.08c-1.505.468-3.247 1.378-3.407 3.147-.293 1.589.91 2.819 2.016 3.757 2.412-.294 5.033-1.193 6.424-3.32.202-1.379-.518-2.62-1.26-3.714-1.255-.175-2.55-.282-3.773.13m.423-1.54c1.318-.233 2.789-.575 4.057.02 1.449 1.336 2.447 3.463 1.929 5.448-.488 1.37-1.936 1.97-3.072 2.697-1.802.995-3.848 2.157-5.974 1.596-2.66-1.005-3.88-4.994-1.829-7.132 1.269-1.402 3.082-2.18 4.889-2.63M176.314 168.63c-.63.723-1.334 1.467-1.513 2.45-.172.807-.556 1.992.393 2.465 1.577 1.066 3.284 2.214 5.239 2.332 2.374-.206 3.62-3.3 2.183-5.16-1.535-1.801-4.108-1.924-6.302-2.087m-.701-1.14c2.217-.556 4.594.046 6.622 1.018 1.711.83 3.38 2.439 3.265 4.492-.163 1.783-1.17 3.722-2.945 4.336-2.229.491-4.313-.743-6.184-1.78-1.174-.72-2.667-1.451-2.908-2.96-.262-1.913.698-3.894 2.15-5.106" transform="translate(-60.000000, -58.000000) translate(-734.000000, 0.000000) translate(794.000000, 58.000000) translate(0.000000, 0.981132)"/>
                        <path fill="#000101" d="M110.15 92.033c-.54 1.242-.377 2.644-.373 3.962.145 2.351.35 4.702.652 7.038l.56-.918c-.312 1.558-.206 3.154-.008 4.72l.667-.976c1.002-.498 2.088-.86 3.22-.845 3.113-.038 6.127.933 8.939 2.187.389.434.892.754 1.352 1.108-2.042-4.16-4.263-8.225-6.32-12.378-.84-1.715-1.951-3.456-3.723-4.317-1.582-.663-3.514-.488-4.965.419m26.573 3.73c-2.07 4.194-4.378 8.264-6.333 12.512.382-.305.778-.598 1.128-.94.461-.252.98-.439 1.376-.793l.43.041.05-.327c.423-.08.85-.172 1.276-.263 3.2-.796 7.415-2.114 9.976.755.041-.9.171-1.803.045-2.694l.142.46c.525-4.057 1.257-8.221.636-12.302-.98-.983-2.569-1.033-3.872-.945-2.37.354-3.882 2.488-4.854 4.496M134.4 93.77c.94-1.932 2.732-3.502 4.881-3.883 2.328-.496 4.706.206 6.779 1.261.422 4.972-.477 9.937-.988 14.87-.14 1.148.245 2.26.629 3.323-.362-.62-.735-1.326-1.452-1.574-1.886-.723-4.061.103-5.353 1.566-.9.949-1.277 2.245-2.073 3.265-1.048.793-2.568.9-3.384 1.997-.255 2.077 2.527 2.29 3.209 3.894 1.383 2.842 2.983 5.68 5.453 7.727-3.659-1.36-7.435-2.618-10.673-4.855-1.296-.845-1.974-2.331-3.266-3.18-1.661.647-2.217 2.533-3.73 3.39-3.407 2.236-7.24 3.788-11.13 4.953 2.854-1.802 4.481-4.865 5.936-7.795.61-1.692 2.98-1.844 3.407-3.661-.103-1.201-1.547-1.433-2.42-1.91-1.566-.441-1.81-2.24-2.716-3.36-1.254-1.756-3.662-2.83-5.758-2.034-.964.438-1.375 1.49-1.833 2.37.347-1.102.827-2.226.663-3.403-.602-4.87-1.47-9.754-1.219-14.68 2.42-1.33 5.361-2.1 8.047-1.143 2.039.69 3.456 2.488 4.276 4.408 1.703 3.646 3.856 7.06 5.944 10.497 2.392-3.932 4.854-7.849 6.771-12.043" transform="translate(-60.000000, -58.000000) translate(-734.000000, 0.000000) translate(794.000000, 58.000000) translate(0.000000, 0.981132)"/>
                        <path fill="#000101" d="M112.746 109.894c.663-.419 1.474-.076 2.084.278 1.756 1.094 2.537 3.274 2.404 5.274-.145 2.015-.316 4.16-1.418 5.917-1.078 1.859-4.42 1.425-4.903-.705-.606-2.115-.614-4.37-.324-6.534.29-1.555.777-3.296 2.157-4.23M141.689 109.92c.88-.517 1.92-.067 2.435.736 1.504 2.153 1.615 4.93 1.451 7.464-.14 1.261-.224 2.667-1.093 3.673-.754.72-1.917.823-2.896.648-1.131-.354-1.719-1.509-2.07-2.557-.506-1.665-.73-3.417-.712-5.159.042-1.939 1.044-3.988 2.885-4.804" transform="translate(-60.000000, -58.000000) translate(-734.000000, 0.000000) translate(794.000000, 58.000000) translate(0.000000, 0.981132)"/>
                        <path fill="#000101" d="M129.404 163.437c0 5.59.016 11.179-.011 16.767.709-.007 1.418-.01 2.126-.003.05-3.326-.404-6.74.38-10.005.698 3.097 1.274 6.324.775 9.498.926.213 1.855.411 2.789.614-.279-3.468-.835-6.988-.236-10.455.438 3.467.85 6.938 1.322 10.4.91-.132 1.82-.258 2.731-.38.503-3.669.797-7.402.294-11.087-.35-3.17-1.478-6.484-4.126-8.462-2.028 1.01-4.032 2.072-6.044 3.113m-12.402 3.852c-.724 4.137-.64 8.435.133 12.558.88.22 1.787.274 2.686.377.446-3.36.732-6.752 1.353-10.085.484 3.375.03 6.793-.343 10.161.926-.187 1.856-.37 2.781-.56-.365-3.33.122-6.683.912-9.918.495 3.434.38 6.912.304 10.367.72-.003 1.44.005 2.164.012-.003-5.578-.007-11.156 0-16.734-2.008-.987-3.928-2.168-5.985-3.04-2.443 1.357-3.453 4.279-4.005 6.862m-6.691-10.619c-.446.389-.858-.19-1.246-.358-.038-.438-.08-.872-.122-1.303-.286 1.657-.297 3.341-.389 5.018-.175 3.223-.469 6.442-.472 9.673 1.505-5.532 3.071-11.09 5.597-16.261-1.097 1.102-2.035 2.4-3.368 3.231m8.76-3.878c-1.185 1.268-2.279 2.705-3.818 3.57-1.025.358-1.166-1.026-1.39-1.696-.454 5.205-.68 10.428-.977 15.648 1.593-5.993 3.441-11.948 6.185-17.522m-9.679-4.363c-.758.91.889 1.78 1.03.586.384-.803-.705-1.214-1.03-.586m.606 2.515c-.891.606-1.265 1.623-1.627 2.587 3.334-1.322 6.885-1.936 10.406-2.526-.29-.64-.617-1.254-.979-1.852-.788.4-1.585.971-2.519.85-1.676-.073-2.755-1.562-3.574-2.846-.266 1.36-.499 2.918-1.707 3.787m13.21-4.26c1.52 1.89 2.523 4.115 3.457 6.336-1.166.077-2.332.14-3.498.194 2.45 2.846 3.528 6.538 4.991 9.93 1.913-3.487 3.372-7.3 6.036-10.31-1.36.026-2.725.042-4.085.068 1.212-2.256 2.305-4.621 4.066-6.511-3.658.034-7.312.198-10.966.293m-9.32-.038c-.11.667-.07 1.345.152 1.993.93.163 2.317.846 2.854-.32.625-.602.141-1.388-.152-2.016-.938-.027-2.172-.598-2.854.343m-4.79-14.46c-.96-5.154-.869-10.435-.487-15.647-.07 2.87-.29 5.986 1.143 8.584.62 1.22 2.007 1.654 3.303 1.494-.956.415-1.97.693-2.968.99-.705 3.6.328 7.258 1.455 10.665.507 1.12.846 2.678 2.184 3.074.7-.96.994-2.26 2.118-2.861 2.74-1.703 5.872-2.63 8.924-3.615 1.509-.386 3.056-1.247 4.626-.626 3.684.99 7.495 1.898 10.775 3.921 1.212.647 1.707 1.97 2.344 3.101 1.36-1.253 1.944-3.059 2.53-4.751.925-2.91 1.65-6.004 1.105-9.064-.747-.213-1.493-.419-2.24-.621.792-.381 1.717-.678 2.213-1.46.945-1.401 1.128-3.139 1.292-4.773.309 5.334.05 10.786-1.59 15.907-.59 1.909-1.538 3.684-2.693 5.311-1.532.02-3.075-.03-4.595.194-2.244.789-3.658 3.136-3.578 5.475.023 4.576 1.581 8.954 2.941 13.27 1.929 5.704 3.826 11.426 6.124 16.997.975.366 1.996.58 3.025.742-5.152 2.797-11.191 3.076-16.926 3.22-5.223.29-10.516.062-15.625-1.112-1.917-.423-3.723-1.2-5.446-2.13 1.132-.095 2.256-.305 3.308-.755 2.61-6.549 4.893-13.232 7.041-19.945 1.06-3.6 2.199-7.304 1.92-11.099-.16-2.228-1.863-4.518-4.206-4.701-1.89-.141-3.513.983-5.079 1.859.327.096.686.164.956-.148 1.414-.85 3.144-1.524 4.79-.96 1.433.62 2.4 2.099 2.64 3.62.29 2.944-.331 5.878-.914 8.751-1.627 7.647-4.641 14.9-7.792 22.026-1.044.262-2.249.632-3.254.064-1.003-.647-1.19-1.95-1.166-3.047.03-5.338.107-10.677.19-16.015.095-2.213.069-4.434.397-6.629.22-1.372.293-2.804.88-4.084.648-1.1 1.745-1.833 2.74-2.599l-.263-.807c.651-.503 1.314-.995 1.988-1.463-2.305-2.995-3.452-6.68-4.13-10.352" transform="translate(-60.000000, -58.000000) translate(-734.000000, 0.000000) translate(794.000000, 58.000000) translate(0.000000, 0.981132)"/>
                        <path fill="#000101" d="M130.033 131.25c4.775.83 8.893 3.608 13.157 5.76-.057-1.481-.225-3.166-1.509-4.126-1.844-1.387-4.107-2.026-6.233-2.838-1.844-.682-4.44-.903-5.415 1.203m-14.517.858c-1.95.8-2.797 2.914-2.683 4.915 2.065-1.135 4.138-2.264 6.26-3.293 2.207-1.05 4.436-2.178 6.897-2.48-.552-.792-1.215-1.714-2.309-1.653-2.9-.065-5.566 1.383-8.165 2.51m14.963-9.09c.213 1.44.575 3.082 1.92 3.902 1.65.952 3.628 1.074 5.495 1.021-.42-.61-.915-1.17-1.536-1.57-1.878-1.253-3.863-2.34-5.88-3.353m-10.588 3.136c-.644.392-1.143.967-1.528 1.611 1.871.035 3.871-.102 5.517-1.085 1.315-.843 1.628-2.47 1.917-3.887-2.03 1.006-4.012 2.115-5.906 3.361m6.771-4.02c-.854 3.578.4 7.147 1.49 10.508.926-3.421 2.274-6.926 1.44-10.527-.884 2.892-.834 5.978-1.296 8.953-.095-.018-.282-.053-.373-.072-.445-2.945-.45-5.981-1.261-8.862m.922-2.446c.415-.785.994.156 1.265.526 1.38 1.954 3.578 3.067 5.666 4.107 3.517 1.62 7.213 2.827 10.962 3.784.443 2.514.069 5.082-.521 7.54-.489 1.924-1.11 3.874-2.374 5.448-.602-1.094-1.079-2.362-2.219-3.018-3.47-2.225-7.46-3.46-11.37-4.678-1.142-.5-2.308.114-3.432.354-3.537 1.025-7.16 2.118-10.208 4.248-1.025.63-1.506 1.756-1.848 2.858-1.258-1.493-1.879-3.38-2.423-5.22-.686-2.492-1.125-5.121-.68-7.696 4.46-1.193 8.937-2.519 13.021-4.71 1.635-.853 3.106-2.019 4.16-3.543M76.982 167.54c-1.807.45-3.62 1.227-4.889 2.629-2.05 2.138-.83 6.127 1.829 7.133 2.126.56 4.172-.602 5.975-1.597 1.135-.728 2.583-1.326 3.07-2.697.519-1.985-.48-4.111-1.927-5.449-1.269-.594-2.74-.251-4.058-.019m-37.174-1.824c-1.357.125-2.755.064-4.062.479-.9 1.075-1.356 2.618-.644 3.913.937.1 1.879.157 2.82.1 6.744-.37 13.484-.873 20.21-1.475 3.38-.389 6.805-.542 10.124-1.31.651-.092.8-.798 1.029-1.288-3.776-.922-7.7-.584-11.55-.706-5.974-.003-11.956.005-17.927.287m54.317-1.205c-1.853.503-3.746 1.356-4.908 2.95-1.635 2.205-.34 5.706 2.088 6.724 2.252.594 4.405-.678 6.298-1.742 1.15-.723 2.64-1.405 2.896-2.9.301-1.854-.637-3.721-1.92-5.009-1.364-.755-3.019-.312-4.454-.023m-3.834-10.329c-2.972.717-5.841 2.443-7.476 5.075 1.605 1.356 3.75 1.821 5.792 2.027 3.307.252 6.676-.221 9.796-1.345 1.27-.514 2.679-1.078 3.437-2.29.667-1.097-.625-2.022-1.505-2.423-3.143-1.307-6.702-1.783-10.044-1.044m-72.545-2.488c-1.89.301-2.26 2.926-1.238 4.248.887.67 2.088.568 3.143.621 1.131.03 2.305-.761 2.55-1.893.121-1.132-.504-2.404-1.59-2.835-.93-.248-1.916-.3-2.865-.14m5.65.944c.462.66 1.342 1.35.954 2.252-.119.705-.706 1.714.19 2.148 2.343 1.197 5.09.847 7.628 1.163 13.588.67 27.199 1.127 40.801.868 2.005-.133 4.142.057 5.998-.853-.999-2.194-3.376-3.208-5.506-3.966-3.4-.842-6.916-1.029-10.384-1.41-6.843-.621-13.705-1.048-20.568-1.333-5.6-.149-11.217-.508-16.81-.034-.87.113-2.009.155-2.302 1.165m55.421-3.117c-1.15.866-1.287 2.572-.994 3.879.659 1.474 2.477 1.791 3.92 1.871 1.544.232 2.778-1.124 3.175-2.485.365-1.546-.956-3.055-2.443-3.303-1.185-.182-2.55-.605-3.658.038m-50.849-3.01c.926.256 1.87.458 2.835.469-.91-.32-1.878-.384-2.835-.468m60.463-2.603c-1.993.34-4.016 1.029-5.56 2.374.644 1.558 2.275 2.442 3.681 3.246 3.563 1.719 7.602 2.473 11.541 2.2 1.304-.192 2.954-.31 3.678-1.59.217-.995-.552-1.81-1.231-2.415-3.35-2.736-7.743-4.473-12.11-3.815m-71.569-10.176c-.084.876.19 1.764.004 2.632-.35.717-1.097 1.12-1.68 1.63.48 1.38 2.118 1.598 3.322 2.04 7.495 2.019 15.17 3.276 22.809 4.587 9.514 1.523 19.051 2.998 28.657 3.757 3.654.3 7.834-.142 10.563-2.838-.87-1.232-2.443-1.445-3.769-1.887-6.957-1.883-14.034-3.265-21.094-4.694-11.343-2.175-22.69-4.378-34.137-5.94-1.535-.118-3.463-.49-4.675.713m-6.626-.62c-.888.772-1.166 2.304-.526 3.314.728.91 2.012 1.006 3.086 1.082 1.826.076 3.14-2.595 1.59-3.818-1.133-.823-2.859-1.135-4.15-.579m-1.376-4.1c.988-.933 2.268-1.749 3.685-1.44 4.065.693 8.1 1.547 12.166 2.255 16.564 3.14 33.188 5.952 49.779 8.958.507.091 1.017.187 1.528.282 3.795.66 7.586 1.352 11.385 2.008 4.534.815 9.069 1.634 13.61 2.411 1.338.244 2.912.278 3.85 1.425 1.215 1.308.91 3.216.956 4.843.03 5.677-.119 11.354.099 17.027-.305 2.362-1.384 4.682-3.38 6.07-.469.292-.965.548-1.452.803-3.346 1.315-6.798 2.336-10.2 3.498-1.696.716-3.556-.346-4.276-1.928-2.534 1.421-5.395 2.118-8.081 3.204-2.37.736-4.843 2.37-7.38 1.33-2.39-.835-3.704-3.478-3.32-5.917-11.111-.088-22.222-.091-33.333-.06-1.46.06-3.132.026-4.156-1.182-1.582-1.627-.866-4.062-1.03-6.085-.19-1.646.545-3.513 2.214-4.072-1.006.338-2.065.106-3.094.053-4.092-.385-8.192-.66-12.28-1.04-1.848-.122-3.43-1.837-3.346-3.7.183-2.933.438-5.868.713-8.793.144-1.871 1.947-3.41 3.817-3.277 3.327.252 6.653.514 9.972.838-5.86-1.272-11.785-2.23-17.664-3.41-1.41-.259-2.588-1.44-2.862-2.842-.256-1.577.374-3.128.575-4.683.526-2.183.583-4.507 1.505-6.576M175.613 167.49c-1.452 1.212-2.412 3.194-2.15 5.106.24 1.509 1.734 2.24 2.908 2.96 1.87 1.037 3.955 2.271 6.184 1.78 1.775-.613 2.781-2.553 2.945-4.336.114-2.053-1.554-3.662-3.265-4.492-2.028-.972-4.405-1.574-6.622-1.018m16.73-1.973c-1.653.149-3.452-.057-4.972.72.03.454.13.94.64 1.078 1.486.503 3.083.584 4.63.819 8.726.964 17.486 1.593 26.253 2.085.922-.027 2.122.277 2.77-.583.408-1.117-.099-2.336-.716-3.27-.91-.624-2.126-.43-3.17-.582-8.47-.443-16.96-.412-25.434-.267m-33.954-1.204c-1.966 1.284-3.27 4.473-1.719 6.53 1.28 1.204 2.904 1.974 4.458 2.759 1.628.754 3.822 1.235 5.27-.126 1.387-1.41 2.23-3.726 1.197-5.567-.995-1.73-2.877-2.708-4.725-3.269-1.445-.384-3.007-.73-4.481-.327m-3.33-8.34c-.88.632-.518 1.928.285 2.453 2.069 1.601 4.713 2.191 7.244 2.64 3.783.546 8.013.512 11.252-1.805-2.732-3.955-7.75-5.967-12.472-5.334-2.175.324-4.537.64-6.31 2.046m81.439-4.248c-1.376.182-2.187 1.722-2.039 3.006.378 1.33 1.852 2.042 3.167 1.825.991-.092 2.38-.02 2.854-1.109.43-1.17.328-2.873-.907-3.52-.956-.453-2.065-.343-3.075-.202m-29.793.137c-7.11.461-14.236.895-21.292 1.905-2.77.411-5.746 1.46-7.499 3.75-.599 1.062 1.01 1.241 1.722 1.313 7.354.58 14.743.252 22.112.206 9.095-.27 18.198-.441 27.27-1.173 1.158-.18 2.492-.29 3.377-1.154.327-.793-.27-1.597-.336-2.39.29-.724.774-1.34 1.185-1.992-1.364-1.056-3.167-.873-4.782-.995-7.255-.251-14.514.187-21.757.53m-33.024-2.282c-1.087.331-1.97 1.33-2.142 2.453-.057 1.338.885 2.584 2.054 3.147 1.44.214 3.04.057 4.283-.761 1.414-.972 1.09-3.075.362-4.382-1.063-1.426-3.106-.717-4.557-.457m51.973-2.606c.956-.012 1.905-.172 2.835-.408-.96.027-1.924.107-2.835.408m-69.901.975c-.838.682-1.608 2.195-.366 2.91 2.424 1.3 5.343.988 7.971.675 3.88-.628 8.07-1.905 10.498-5.216-1.978-1.41-4.302-2.381-6.744-2.503-4.157-.316-8.25 1.463-11.36 4.134m87.72-14.722c-1.274.457-1.952 2.156-.984 3.238.815 1.387 2.637 1.136 3.924.675 1.925-.514 1.7-3.7-.042-4.276-.975-.071-1.973.066-2.899.363m-15.013.74c-9.21 1.504-18.392 3.185-27.552 4.986-6.916 1.387-13.843 2.76-20.664 4.573-1.478.476-3.193.697-4.248 1.958 1.044 1.204 2.507 1.928 4.027 2.332 3.776 1.223 7.773.411 11.625.102 13.096-1.485 26.135-3.535 39.06-6.133 3.167-.729 6.402-1.288 9.427-2.507.617-.195 1.021-.69 1.166-1.304-.564-.464-1.181-.895-1.608-1.493-.305-.907.157-1.886-.08-2.805-.808-.841-2.084-.796-3.155-.784-2.687.19-5.334.69-7.998 1.074m12.925-5.925c1.707-.27 3.639-1.055 5.216.066 1.3.739 1.673 2.282 1.883 3.653.24 1.3.472 2.602.716 3.905.118.652.247 1.31.377 1.966.34 1.38.465 2.98-.507 4.146-1.07 1.478-3.037 1.459-4.648 1.821-4.973 1.006-10.01 1.741-14.94 2.922 3.2-.362 6.416-.56 9.628-.83 1.848-.187 3.662 1.257 3.898 3.098.267 2.472.404 4.956.651 7.429.07 1.048.256 2.19-.266 3.162-.56 1.185-1.783 2.015-3.094 2.084-4.085.378-8.18.656-12.266 1.04-1.025.065-2.076.267-3.071-.083 1.726.503 2.439 2.434 2.24 4.083-.117 1.662.268 3.415-.289 5.015-.613 1.478-2.213 2.392-3.802 2.259-11.466-.01-22.935-.034-34.4.068.045 1.117.076 2.294-.458 3.316-1.066 2.274-3.897 3.508-6.283 2.697-2.427-.834-4.816-1.764-7.232-2.629-1.616-.628-3.323-1.06-4.79-2.012-.69 1.463-2.35 2.575-3.992 2.016-3.361-1.078-6.719-2.198-10.05-3.368-.532-.24-1.054-.484-1.561-.766-1.753-1.177-3.105-2.999-3.468-5.101-.24-1.594-.125-3.205-.148-4.805 0-5.132.008-10.26-.023-15.392-.065-1.7.922-3.593 2.706-3.94 5.475-.945 10.95-1.92 16.422-2.904 3.84-.685 7.681-1.348 11.515-2.06.366-.066 1.101-.195 1.467-.26 7.903-1.39 15.802-2.793 23.697-4.22 2.553-.298 5.04-1.16 7.635-1.095l.035-.24.015-.083c9.1-1.433 18.126-3.304 27.187-4.958M142.683 154.704c2.496 5.353 4.302 11.015 5.61 16.772-.046-5.083-.622-10.139-.747-15.218-.294.683-.321 1.985-1.38 1.764-1.387-.834-2.351-2.19-3.483-3.318m-4.945-.472c2.541 5.285 4.214 10.93 5.636 16.6-.13-5.018-.557-10.028-.779-15.042-.304.686-.297 2.099-1.397 1.745-1.376-.846-2.332-2.18-3.46-3.303m8.276-5.784c-.317.58.388 1.623.96.971.72-.605-.538-1.93-.96-.971m-4.84 1.562c-.982.13-1.844-.426-2.682-.838-.343.602-.682 1.204-1.017 1.806 3.574.595 7.152 1.292 10.566 2.541-.423-1.02-.926-2.03-1.845-2.69-1.07-.803-1.245-2.202-1.55-3.406-.991 1.036-1.905 2.462-3.471 2.587m-2.16-2.594c.35.484.529 1.219 1.142 1.455.766.107 1.68.008 2.24-.59.347-.679.187-1.57-.361-2.096-1.174-.32-2.45.13-3.022 1.23m2.13-5.226l-.015-.035c.85.167 1.745.233 2.545.61.808.45 1.338 1.249 1.924 1.95-1.104-.697-2.16-1.467-3.284-2.13-.16.225-.32.45-.476.675 1.92.308 3.368 1.73 4.766 2.964 1.727 1.44 1.567 3.894 1.952 5.91.48 6.934.384 13.903.498 20.852.005 1.341.16 2.907-.85 3.962-1.002.876-2.404.461-3.558.186-3.125-7.025-6.089-14.188-7.735-21.724-.56-2.614-1.07-5.27-1.07-7.952-.043-1.771.768-3.63 2.335-4.54.964-.603 2.145-.351 3.2-.233-.057-.126-.175-.373-.232-.495" transform="translate(-60.000000, -58.000000) translate(-734.000000, 0.000000) translate(794.000000, 58.000000) translate(0.000000, 0.981132)"/>
                        <path fill="#7257A3" d="M136.724 95.763c.972-2.008 2.485-4.142 4.854-4.496 1.303-.088 2.893-.038 3.872.945.62 4.08-.11 8.245-.637 12.302l-.14-.46c-.207-.938-.37-1.878-.465-2.832-.092-1.165-.233-2.328-.435-3.478-.19-1.238-.316-2.888-1.695-3.39-1.19-.187-2.054.944-2.805 1.695-2.956 3.486-5.357 7.402-7.754 11.285-.35.343-.746.636-1.128.941 1.955-4.248 4.264-8.317 6.333-12.512M110.15 92.033c1.452-.907 3.384-1.082 4.966-.419 1.772.86 2.884 2.602 3.722 4.317 2.058 4.153 4.28 8.218 6.321 12.378-.46-.354-.963-.674-1.352-1.108-1.15-2.069-2.553-3.982-3.83-5.97-1.52-2.241-3.002-4.577-5.094-6.33-.606-.582-1.753-.89-2.302-.067-1.527 2.114-1.138 4.85-1.592 7.28l-.56.919c-.301-2.336-.507-4.687-.652-7.038-.004-1.318-.167-2.72.374-3.962M109.998 150.943c1.208-.868 1.44-2.426 1.707-3.786.82 1.283 1.898 2.773 3.574 2.845.934.123 1.73-.449 2.519-.85.362.6.69 1.212.98 1.853-3.521.59-7.073 1.204-10.407 2.525.362-.964.735-1.98 1.627-2.587M141.175 150.01c1.566-.125 2.48-1.55 3.47-2.587.306 1.204.48 2.602 1.551 3.406.92.66 1.422 1.67 1.845 2.69-3.414-1.25-6.992-1.946-10.566-2.541.335-.603.674-1.204 1.017-1.806.838.411 1.7.968 2.683.838M78.818 149.523c1.109-.644 2.473-.221 3.658-.038 1.486.247 2.809 1.756 2.443 3.303-.396 1.36-1.631 2.716-3.174 2.484-1.445-.08-3.262-.397-3.921-1.871-.294-1.307-.157-3.013.994-3.878M173.68 149.58c1.452-.26 3.495-.969 4.558.457.727 1.307 1.052 3.41-.362 4.382-1.242.818-2.843.975-4.283.76-1.17-.562-2.111-1.808-2.054-3.146.171-1.124 1.055-2.122 2.141-2.453M92.917 168.329c1.066-.58 2.591-.598 3.314.514.416.583-.094 1.254-.503 1.673-.796.13-1.604.03-2.4.007-.148-.73-.286-1.462-.411-2.194M159.826 169.624c.328-1.024 1.189-1.802 2.313-1.737 1.27-.194 1.848 1.81.785 2.427-1.063.685-2.366.27-3.098-.69M76.483 171.171c.945-.766 3.067-.023 2.842 1.413-.278 1.513-2.857 1.448-3.277.035-.29-.51.13-1.063.435-1.448M177.167 172.577c-.385-1.723 2.004-1.882 3.136-1.41-.004.705 0 1.41.004 2.118-1.033.351-2.885.815-3.14-.708" transform="translate(-60.000000, -58.000000) translate(-734.000000, 0.000000) translate(794.000000, 58.000000) translate(0.000000, 0.981132)"/>
                        <path fill="#F8AA45" d="M113.889 146.646c.682-.941 1.916-.37 2.854-.343-.084.621-.015 1.307-.408 1.844-.59.415-1.345.38-2.027.514-.145-.673-.294-1.345-.42-2.015M139.014 147.415c.571-1.1 1.848-1.55 3.021-1.23.55.526.71 1.418.363 2.096-.56.598-1.475.697-2.24.59-.614-.236-.793-.971-1.144-1.456M126.25 148.093c1.489-.03 2.975-.022 4.465.02-.964 1.463-1.692 3.067-2.233 4.732-.61-1.646-1.334-3.246-2.233-4.752M126.22 154.21c1.504-.024 3.013-.02 4.522.01-.983 1.467-1.7 3.086-2.325 4.732-.544-1.66-1.26-3.265-2.198-4.743" transform="translate(-60.000000, -58.000000) translate(-734.000000, 0.000000) translate(794.000000, 58.000000) translate(0.000000, 0.981132)"/>
                        <path fill="#C2693F" d="M116.743 146.303c.293.628.777 1.414.152 2.016-.538 1.166-1.924.483-2.854.32-.22-.648-.263-1.326-.152-1.993.125.67.274 1.341.419 2.015.682-.133 1.437-.099 2.027-.514.393-.537.324-1.223.408-1.844M126.22 154.21c.936 1.477 1.653 3.081 2.197 4.742.625-1.646 1.342-3.265 2.325-4.731-1.509-.031-3.018-.035-4.523-.012m.03-6.116c.9 1.505 1.624 3.106 2.234 4.752.54-1.665 1.268-3.27 2.232-4.732-1.49-.042-2.976-.05-4.466-.02m-3.04-1.41c3.654-.094 7.308-.258 10.966-.292-1.76 1.89-2.854 4.256-4.066 6.511 1.36-.026 2.725-.042 4.085-.068-2.663 3.01-4.123 6.823-6.036 10.31-1.463-3.391-2.541-7.084-4.991-9.93 1.166-.053 2.332-.118 3.498-.194-.934-2.22-1.936-4.446-3.456-6.336M109.392 148.429c.325-.629 1.414-.217 1.03.587-.141 1.192-1.788.324-1.03-.587M146.014 148.448c.422-.96 1.68.366.96.971-.572.652-1.276-.392-.96-.971" transform="translate(-60.000000, -58.000000) translate(-734.000000, 0.000000) translate(794.000000, 58.000000) translate(0.000000, 0.981132)"/>
                        <path fill="#FFF" d="M73.859 226.975v-20.793h8.164v-7.797H57.53v7.797h8.164v20.793h8.165zm12.29 0h24.494v-28.59H86.149v28.59zm8.165-7.798h8.164v-12.995h-8.164v12.995zm36.784 7.798v-20.793h8.164v-7.797h-24.493v7.797h8.164v20.793h8.165zm36.783 0v-7.798h-16.329v-2.599h16.33v-7.798h-16.33v-2.598h16.33v-7.797h-24.494v10.395h-10.886l8.165 7.798h2.721v10.397h24.493zm12.291 0v-10.397l5.443 5.199 5.443-5.199v10.397h8.164v-31.19l-13.607 12.995-13.607-12.995v31.19h8.164z" transform="translate(-60.000000, -58.000000) translate(-734.000000, 0.000000) translate(794.000000, 58.000000) translate(0.000000, 0.981132)"/>
                    </g>
                    <g transform="translate(-60.000000, -58.000000) translate(-734.000000, 0.000000) translate(794.000000, 58.000000) translate(57.000000, 196.981132)">
                        <mask id="acg23cafjb" fill="#fff">
                            <use xlink:href="#ud70dcu3xa"/>
                        </mask>
                        <path fill="#FFF" d="M-7.164 38.212L149.313 38.212 149.313 -18.983 -7.164 -18.983z" mask="url(#acg23cafjb)"/>
                    </g>
                    <path fill="#FFF" d="M212.45 210.23c.841-.233 1.734-.319 2.605-.187 1.03.66 1.226 2.237.55 3.202-1.205.762-3.376 1.26-4.243-.209-.84-.985-.11-2.51 1.089-2.805" transform="translate(-60.000000, -58.000000) translate(-734.000000, 0.000000) translate(794.000000, 58.000000)"/>
                    <g transform="translate(-60.000000, -58.000000) translate(-734.000000, 0.000000) translate(794.000000, 58.000000) translate(211.000000, 209.981132)">
                        <mask id="r2hxuv3wkd" fill="#fff">
                            <use xlink:href="#k4hof7z4zc"/>
                        </mask>
                        <path fill="#FFF" d="M-7.469 10.591L12.395 10.591 12.395 -6.877 -7.469 -6.877z" mask="url(#r2hxuv3wkd)"/>
                    </g>
                    <path fill="#FFF" d="M41.45 210.23c.84-.233 1.733-.319 2.605-.187 1.03.66 1.226 2.237.55 3.202-1.205.762-3.377 1.26-4.243-.209-.84-.985-.111-2.51 1.088-2.805" transform="translate(-60.000000, -58.000000) translate(-734.000000, 0.000000) translate(794.000000, 58.000000)"/>
                    <g transform="translate(-60.000000, -58.000000) translate(-734.000000, 0.000000) translate(794.000000, 58.000000) translate(40.000000, 209.981132)">
                        <mask id="0f1kbtae9f" fill="#fff">
                            <use xlink:href="#g6h9h2ef9e"/>
                        </mask>
                        <path fill="#FFF" d="M-7.508 10.591L12.357 10.591 12.357 -6.877 -7.508 -6.877z" mask="url(#0f1kbtae9f)"/>
                    </g>
                    <g fill="#FFF">
                        <path d="M131.539.69c3.945.057 7.903.048 11.833.35-7.896 1.325-16.08 1.43-24.153 1.632-35.904.437-71.816.682-107.727.385-3.738-.116-7.51.028-11.222-.361 1.18-.293 2.374-.562 3.554-.854-.13-.24-.399-.72-.535-.96C9.894.362 16.549.521 23.182.453M119.519 41.321c6.747.135 13.548-.168 20.254.47.006.265.02.783.034 1.043 1.231.263 2.47.523 3.703.8-18.892.601-37.818.404-56.724.419-18.592-.135-37.177-.168-55.764-.437-10-.188-20.117-.125-29.927-1.676.633-.081 1.906-.25 2.546-.33.177-.572.735-.466 1 .009M2.41 58.58L2.41 51.737 1.114 51.737 1.114 50.512 5.407 50.512 5.407 51.737 4.132 51.737 4.132 58.58zM6.185 58.58L6.185 50.512 7.896 50.512 7.896 53.829 9.379 53.829 9.379 50.512 11.089 50.512 11.089 58.58 9.379 58.58 9.379 55.005 7.896 55.005 7.896 58.58zM12.385 58.58L12.385 50.512 16.046 50.512 16.046 51.647 14.096 51.647 14.096 53.789 15.6 53.789 15.6 54.935 14.096 54.935 14.096 57.465 16.066 57.465 16.066 58.58zM21.852 58.69c-.622 0-1.114-.113-1.477-.339-.363-.225-.617-.539-.762-.941-.146-.401-.218-.868-.218-1.4v-2.899c0-.557.072-1.036.218-1.439.145-.401.399-.712.762-.932.363-.218.855-.328 1.477-.328.602 0 1.073.097 1.416.289.342.193.584.465.726.817.141.352.212.76.212 1.225v.678h-1.659v-.758c0-.185-.01-.359-.03-.522-.022-.163-.079-.296-.172-.4-.093-.102-.254-.153-.482-.153-.228 0-.394.053-.498.158-.104.108-.169.245-.197.414-.028.17-.042.358-.042.564v3.665c0 .226.02.424.058.593.037.169.11.298.217.389.108.09.261.133.462.133.22 0 .378-.05.472-.154.093-.103.152-.24.176-.413.024-.172.036-.356.036-.548v-.787h1.659v.667c0 .473-.069.889-.207 1.25-.138.363-.377.648-.716.857-.338.21-.815.314-1.43.314M27.597 57.505c.221 0 .384-.048.488-.144.103-.097.172-.227.207-.39.035-.162.052-.336.052-.522v-3.816c0-.185-.017-.358-.052-.517-.035-.16-.104-.287-.207-.384-.104-.096-.267-.144-.488-.144-.207 0-.363.048-.466.144-.104.097-.173.224-.208.384-.034.159-.051.332-.051.517v3.816c0 .186.015.36.046.522.031.163.099.293.202.39.104.096.263.144.477.144m0 1.185c-.615 0-1.102-.106-1.462-.32-.36-.211-.617-.515-.772-.91-.156-.395-.234-.868-.234-1.42v-3.008c0-.55.078-1.023.234-1.414.155-.393.413-.691.772-.897.36-.206.847-.308 1.462-.308.623 0 1.115.104 1.478.313.363.21.622.508.778.897.155.388.233.858.233 1.409v3.008c0 .552-.078 1.025-.233 1.42-.156.395-.415.699-.778.91-.363.214-.855.32-1.478.32M31.226 58.58L31.226 50.512 32.419 50.512 34.285 54.715 34.285 50.512 35.695 50.512 35.695 58.58 34.554 58.58 32.689 54.118 32.689 58.58zM39.304 58.69c-.622 0-1.114-.113-1.477-.339-.363-.225-.618-.539-.763-.941-.145-.401-.218-.868-.218-1.4v-2.899c0-.557.073-1.036.218-1.439.145-.401.4-.712.763-.932.363-.218.855-.328 1.477-.328.602 0 1.073.097 1.415.289.342.193.585.465.726.817.141.352.213.76.213 1.225v.678h-1.66v-.758c0-.185-.01-.359-.03-.522-.021-.163-.078-.296-.171-.4-.094-.102-.254-.153-.483-.153-.228 0-.394.053-.498.158-.103.108-.169.245-.196.414-.028.17-.042.358-.042.564v3.665c0 .226.019.424.058.593.037.169.11.298.217.389.107.09.261.133.461.133.221 0 .379-.05.472-.154.094-.103.152-.24.176-.413.025-.172.037-.356.037-.548v-.787h1.659v.667c0 .473-.07.889-.208 1.25-.138.363-.376.648-.715.857-.339.21-.816.314-1.43.314M42.705 58.58L42.705 50.512 46.365 50.512 46.365 51.647 44.416 51.647 44.416 53.789 45.919 53.789 45.919 54.935 44.416 54.935 44.416 57.465 46.386 57.465 46.386 58.58zM48.958 53.948h.498c.275 0 .493-.043.652-.13.16-.085.272-.217.337-.392.066-.176.1-.394.1-.653 0-.372-.072-.656-.213-.852-.142-.195-.406-.293-.794-.293h-.58v2.32zm-1.711 4.632v-8.068h2.177c.567 0 1.053.062 1.457.184.404.123.716.34.934.653.217.311.326.743.326 1.294 0 .333-.03.627-.088.883-.059.255-.163.478-.311.666-.15.19-.358.341-.628.453l1.162 3.935h-1.753l-.964-3.655h-.601v3.655h-1.711zM54.018 58.58L54.018 51.737 52.722 51.737 52.722 50.512 57.015 50.512 57.015 51.737 55.739 51.737 55.739 58.58zM62.541 58.69c-.518 0-.95-.091-1.296-.274-.345-.183-.606-.458-.782-.827-.176-.368-.279-.838-.306-1.41l1.472-.237c.014.33.05.608.109.83.059.223.149.39.27.499.12.109.27.164.45.164.222 0 .372-.066.452-.2.08-.132.12-.285.12-.457 0-.34-.086-.623-.255-.853-.17-.228-.393-.458-.67-.691l-.87-.728c-.31-.252-.565-.537-.762-.856-.197-.319-.295-.71-.295-1.176 0-.664.202-1.173.606-1.529.405-.355.96-.533 1.664-.533.421 0 .768.067 1.037.2.27.133.479.31.627.532.149.223.253.465.312.728.058.262.095.522.109.782l-1.463.209c-.014-.246-.036-.462-.067-.648-.031-.186-.093-.332-.187-.438-.093-.106-.233-.16-.42-.16-.2 0-.348.072-.446.214-.096.144-.145.301-.145.475 0 .285.068.519.202.702.135.182.32.373.555.572l.85.717c.353.292.655.626.908 1 .252.377.378.84.378 1.391 0 .378-.09.72-.269 1.026-.18.306-.43.545-.752.717-.322.173-.7.259-1.136.259M65.486 58.58L65.486 50.512 67.197 50.512 67.197 53.829 68.68 53.829 68.68 50.512 70.391 50.512 70.391 58.58 68.68 58.58 68.68 55.005 67.197 55.005 67.197 58.58zM73.357 55.801h1.006l-.508-3.257-.498 3.257zm-2.085 2.78l1.628-8.07h1.898l1.618 8.07h-1.587l-.3-1.773H73.2l-.322 1.772h-1.607zM78.915 53.948h.498c.276 0 .494-.043.653-.13.16-.085.271-.217.337-.392.065-.176.098-.394.098-.653 0-.372-.07-.656-.212-.852-.142-.195-.406-.293-.794-.293h-.58v2.32zm-1.711 4.632v-8.068h2.177c.567 0 1.053.062 1.458.184.404.123.715.34.933.653.217.311.326.743.326 1.294 0 .333-.03.627-.088.883-.059.255-.162.478-.311.666-.149.19-.358.341-.627.453l1.16 3.935H80.48l-.963-3.655h-.602v3.655h-1.711zM83.239 58.58L84.939 58.58 84.939 50.512 83.239 50.512zM86.224 58.58L86.224 50.512 87.418 50.512 89.285 54.715 89.285 50.512 90.695 50.512 90.695 58.58 89.554 58.58 87.687 54.118 87.687 58.58zM94.116 58.7c-.567 0-1.016-.115-1.348-.343-.332-.23-.569-.555-.71-.977-.143-.422-.213-.911-.213-1.469v-2.7c0-.577.072-1.075.217-1.494.146-.419.4-.74.762-.966.363-.226.856-.339 1.478-.339.602 0 1.077.097 1.426.29.35.192.6.464.752.816.152.352.228.77.228 1.255v.469h-1.67v-.569c0-.212-.013-.4-.04-.562-.028-.164-.092-.29-.193-.384-.1-.093-.26-.14-.481-.14-.229 0-.395.058-.498.17-.104.113-.17.257-.198.433-.028.176-.041.364-.041.563v3.576c0 .226.02.428.062.607.042.18.12.32.233.42.115.099.278.149.493.149.214 0 .38-.054.498-.16.117-.106.199-.25.243-.433.045-.182.068-.39.068-.622v-.857h-.82v-.996h2.365v4.144h-1.12l-.103-.728c-.111.246-.277.449-.498.608-.222.16-.519.239-.892.239M102.204 53.929h.602c.248 0 .44-.039.575-.115.136-.076.226-.198.274-.363.05-.166.073-.379.073-.638 0-.246-.018-.452-.056-.618-.039-.165-.123-.295-.254-.388-.132-.093-.34-.14-.622-.14h-.592v2.262zm-1.71 4.652v-8.07h2.664c.504 0 .916.092 1.234.275.319.183.554.446.711.792.155.345.233.764.233 1.255 0 .578-.102 1.03-.306 1.355-.204.325-.482.556-.835.692-.352.136-.757.204-1.213.204h-.778v3.497h-1.71zM106.155 58.58L106.155 50.512 107.866 50.512 107.866 57.465 109.836 57.465 109.836 58.58zM112.314 55.801h1.006l-.508-3.257-.498 3.257zm-2.084 2.78l1.628-8.07h1.898l1.618 8.07h-1.587l-.301-1.773h-1.327l-.321 1.772h-1.608zM116.586 58.58L116.586 51.737 115.29 51.737 115.29 50.512 119.583 50.512 119.583 51.737 118.308 51.737 118.308 58.58zM120.341 58.58L120.341 50.512 123.886 50.512 123.886 51.628 122.051 51.628 122.051 53.809 123.606 53.809 123.606 54.955 122.051 54.955 122.051 58.58zM127.09 57.505c.222 0 .384-.048.488-.144.103-.097.173-.227.207-.39.035-.162.051-.336.051-.522v-3.816c0-.185-.016-.358-.051-.517-.034-.16-.104-.287-.207-.384-.104-.096-.266-.144-.487-.144-.208 0-.363.048-.467.144-.104.097-.173.224-.207.384-.035.159-.053.332-.053.517v3.816c0 .186.016.36.047.522.032.163.099.293.202.39.104.096.264.144.478.144m0 1.185c-.617 0-1.103-.106-1.463-.32-.36-.211-.617-.515-.772-.91-.156-.395-.234-.868-.234-1.42v-3.008c0-.55.078-1.023.234-1.414.155-.393.412-.691.772-.897.36-.206.846-.308 1.463-.308.621 0 1.114.104 1.477.313.363.21.622.508.778.897.155.388.233.858.233 1.409v3.008c0 .552-.078 1.025-.233 1.42-.156.395-.415.699-.778.91-.363.214-.856.32-1.477.32M132.43 53.948h.498c.276 0 .495-.043.653-.13.16-.085.272-.217.337-.392.066-.176.099-.394.099-.653 0-.372-.071-.656-.213-.852-.142-.195-.406-.293-.793-.293h-.58v2.32zm-1.71 4.632v-8.068h2.177c.567 0 1.053.062 1.458.184.404.123.714.34.932.653.218.311.328.743.328 1.294 0 .333-.03.627-.09.883-.058.255-.162.478-.31.666-.15.19-.358.341-.628.453l1.161 3.935h-1.751l-.965-3.655h-.602v3.655h-1.71zM136.734 58.58L136.879 50.512 138.693 50.512 139.731 55.602 140.841 50.512 142.593 50.512 142.737 58.58 141.493 58.58 141.359 53.112 140.291 58.58 139.223 58.58 138.103 53.072 137.989 58.58z" transform="translate(-60.000000, -58.000000) translate(-734.000000, 0.000000) translate(794.000000, 58.000000) translate(56.000000, 191.981132)"/>
                    </g>
                </g>
            </g>
        </g>
    </g>
</svg>
