<?xml version="1.0" encoding="UTF-8"?>
<svg width="316px" height="211px" viewBox="0 0 316 211" version="1.1" xmlns="http://www.w3.org/2000/svg" xmlns:xlink="http://www.w3.org/1999/xlink">
    <title>christmas-gifts</title>
    <g id="Page-1" stroke="none" stroke-width="1" fill="none" fill-rule="evenodd">
        <g id="L-Splas-V3-Copy" transform="translate(-29.000000, -131.000000)">
            <g id="christmas-gifts" transform="translate(32.000000, 133.000000)">
                <g id="color" transform="translate(40.000000, 0.000000)" fill-rule="nonzero">
                    <g id="Group">
                        <path d="M195.475902,165.280405 L195.475902,159.740712 L228.626786,159.740712 C229.884233,159.740712 230.913054,160.768696 230.913054,162.025122 L230.913054,166.59394 C230.913054,167.850365 229.884233,168.878349 228.626786,168.878349 L226.283362,168.878349 L195.475902,168.878349 L195.475902,165.280405 Z" id="Path" fill="#6ACED4"></path>
                        <path d="M210.165173,24.1039117 C210.336643,23.5899197 210.450957,23.0759276 210.56527,22.6190457 C210.851054,21.3626206 210.90821,20.0490853 210.793897,18.6784397 C214.509082,17.022243 220.682005,10.5687868 224.225721,7.1421729 C226.569145,11.3112198 227.255025,16.3369202 223.71131,21.8766127 C230.855897,19.9348648 233.427949,21.4197308 236,24.3894629 C236,24.3894629 220.453379,39.8092255 201.134415,39.8092255 L191.989344,39.8092255 C200.391378,39.8092255 207.993219,30.9000293 210.165173,24.1039117 Z" id="Path" fill="#339EFF"></path>
                        <path d="M228.626786,171.162759 L228.626786,203.144488 C228.626786,204.400914 227.597966,205.428898 226.340518,205.428898 L194.332768,205.428898 L194.332768,170.020554 C194.961492,170.020554 195.475902,169.506562 195.475902,168.878349 L226.283362,168.878349 C225.025914,168.878349 223.997094,169.906334 223.997094,171.162759 C223.997094,172.419184 225.025914,173.447168 226.283362,173.447168 C227.597966,173.447168 228.569629,172.419184 228.626786,171.162759 L228.626786,171.162759 Z M206.278518,196.862363 C206.278518,195.605938 205.249697,194.577954 203.99225,194.577954 C202.734803,194.577954 201.705982,195.605938 201.705982,196.862363 C201.705982,198.118788 202.734803,199.146772 203.99225,199.146772 C205.306854,199.146772 206.278518,198.118788 206.278518,196.862363 Z" id="Shape" fill="#55C7CD"></path>
                        <path d="M228.626786,168.878349 L228.626786,171.162759 L228.569629,171.162759 C228.569629,169.906334 227.540809,168.878349 226.283362,168.878349 L228.626786,168.878349 Z" id="Path" fill="#FFB62E"></path>
                        <path d="M228.626786,139.181029 L228.626786,159.740712 L195.475902,159.740712 C195.475902,159.1125 194.961492,158.598508 194.332768,158.598508 L194.332768,136.89662 L211.479777,136.89662 L226.340518,136.89662 C227.597966,136.89662 228.626786,137.924604 228.626786,139.181029 Z M223.997094,153.458587 C223.997094,152.202162 222.968273,151.174177 221.710826,151.174177 C220.453379,151.174177 219.424558,152.202162 219.424558,153.458587 C219.424558,154.715012 220.453379,155.742996 221.710826,155.742996 C223.02543,155.742996 223.997094,154.715012 223.997094,153.458587 Z" id="Shape" fill="#55C7CD"></path>
                        <ellipse id="Oval" fill="#FFE880" cx="226.283362" cy="171.162759" rx="2.28626786" ry="2.28440927"></ellipse>
                        <ellipse id="Oval" fill="#FFE880" cx="221.710826" cy="153.458587" rx="2.28626786" ry="2.28440927"></ellipse>
                        <path d="M217.195447,42.0936348 L217.195447,60.3689089 C217.195447,61.625334 216.166626,62.6533182 214.909179,62.6533182 L211.479777,62.6533182 L173.756357,62.6533182 L173.756357,39.8092255 L176.614192,39.8092255 C176.614192,39.8092255 176.614192,39.8092255 176.614192,39.8092255 L191.932187,39.8092255 L201.077258,39.8092255 L214.909179,39.8092255 C216.166626,39.8092255 217.195447,40.8372097 217.195447,42.0936348 Z M216.052313,43.8069417 C216.052313,41.9223041 214.509082,40.3803278 212.622911,40.3803278 C210.73674,40.3803278 209.193509,41.9223041 209.193509,43.8069417 C209.193509,45.6915794 210.73674,47.2335556 212.622911,47.2335556 C214.509082,47.2335556 216.052313,45.6915794 216.052313,43.8069417 Z M198.905304,58.0844997 C198.905304,56.199862 197.362073,54.6578858 195.475902,54.6578858 C193.589731,54.6578858 192.0465,56.199862 192.0465,58.0844997 C192.0465,59.9691373 193.589731,61.5111136 195.475902,61.5111136 C197.362073,61.5111136 198.905304,59.9691373 198.905304,58.0844997 Z M181.758295,43.8069417 C181.758295,41.9223041 180.215064,40.3803278 178.328893,40.3803278 C176.442722,40.3803278 174.899491,41.9223041 174.899491,43.8069417 C174.899491,45.6915794 176.442722,47.2335556 178.328893,47.2335556 C180.215064,47.2335556 181.758295,45.6915794 181.758295,43.8069417 Z" id="Shape" fill="#FF4D55"></path>
                        <ellipse id="Oval" fill="#FFBC63" cx="212.622911" cy="43.8069417" rx="3.42940179" ry="3.42661391"></ellipse>
                        <path d="M211.479777,69.3352153 C211.822717,69.9063176 212.051344,70.5345302 212.051344,71.219853 C212.051344,71.9051758 211.822717,72.5904985 211.479777,73.1044906 L211.479777,69.3352153 Z" id="Path" fill="#FFFFFF"></path>
                        <path d="M211.479777,97.8903312 C211.822717,98.4614335 212.051344,99.0896461 212.051344,99.7749689 C212.051344,100.460292 211.822717,101.145614 211.479777,101.659607 L211.479777,97.8903312 Z" id="Path" fill="#FFFFFF"></path>
                        <path d="M211.479777,126.445447 C211.822717,127.016549 212.051344,127.644762 212.051344,128.330085 C212.051344,129.015408 211.822717,129.70073 211.479777,130.214722 L211.479777,126.445447 Z" id="Path" fill="#FFFFFF"></path>
                        <path d="M211.479777,130.214722 L211.479777,136.89662 L194.332768,136.89662 C194.332768,135.640194 193.303948,134.61221 192.0465,134.61221 L187.473965,134.61221 C186.216517,134.61221 185.187697,135.640194 185.187697,136.89662 L171.47009,136.89662 L171.47009,130.214722 C172.098813,131.128486 173.127634,131.756699 174.327924,131.756699 C176.214095,131.756699 177.757326,130.214722 177.757326,128.330085 C177.757326,126.445447 176.214095,124.903471 174.327924,124.903471 C173.127634,124.903471 172.098813,125.531683 171.47009,126.445447 L171.47009,101.659607 C172.098813,102.57337 173.127634,103.201583 174.327924,103.201583 C176.214095,103.201583 177.757326,101.659607 177.757326,99.7749689 C177.757326,97.8903312 176.214095,96.348355 174.327924,96.348355 C173.127634,96.348355 172.098813,96.9765675 171.47009,97.8903312 L171.47009,73.1044906 C172.098813,74.0182543 173.127634,74.6464669 174.327924,74.6464669 C176.214095,74.6464669 177.757326,73.1044906 177.757326,71.219853 C177.757326,69.3352153 176.214095,67.7932391 174.327924,67.7932391 C173.127634,67.7932391 172.098813,68.4214516 171.47009,69.3352153 L171.47009,62.6533182 L173.756357,62.6533182 L211.479777,62.6533182 L211.479777,69.3352153 C210.851054,68.4214516 209.822233,67.7932391 208.621942,67.7932391 C206.735771,67.7932391 205.192541,69.3352153 205.192541,71.219853 C205.192541,73.1044906 206.735771,74.6464669 208.621942,74.6464669 C209.822233,74.6464669 210.851054,74.0182543 211.479777,73.1044906 L211.479777,97.8903312 C210.851054,96.9765675 209.822233,96.348355 208.621942,96.348355 C206.735771,96.348355 205.192541,97.8903312 205.192541,99.7749689 C205.192541,101.659607 206.735771,103.201583 208.621942,103.201583 C209.822233,103.201583 210.851054,102.57337 211.479777,101.659607 L211.479777,126.445447 C210.851054,125.531683 209.822233,124.903471 208.621942,124.903471 C206.735771,124.903471 205.192541,126.445447 205.192541,128.330085 C205.192541,130.214722 206.735771,131.756699 208.621942,131.756699 C209.822233,131.756699 210.90821,131.128486 211.479777,130.214722 Z M194.904335,85.4974109 C194.904335,83.6127733 193.361104,82.070797 191.474933,82.070797 C189.588762,82.070797 188.045532,83.6127733 188.045532,85.4974109 C188.045532,87.3820486 189.588762,88.9240248 191.474933,88.9240248 C193.361104,88.9240248 194.904335,87.3820486 194.904335,85.4974109 Z M194.904335,114.052527 C194.904335,112.167889 193.361104,110.625913 191.474933,110.625913 C189.588762,110.625913 188.045532,112.167889 188.045532,114.052527 C188.045532,115.937164 189.588762,117.479141 191.474933,117.479141 C193.361104,117.479141 194.904335,115.937164 194.904335,114.052527 Z" id="Shape" fill="#FF4D55"></path>
                        <path d="M211.479777,126.445447 L211.479777,130.214722 C210.851054,131.128486 209.822233,131.756699 208.621942,131.756699 C206.735771,131.756699 205.192541,130.214722 205.192541,128.330085 C205.192541,126.445447 206.735771,124.903471 208.621942,124.903471 C209.822233,124.903471 210.90821,125.531683 211.479777,126.445447 Z" id="Path" fill="#FFBC63"></path>
                        <path d="M211.479777,97.8903312 L211.479777,101.659607 C210.851054,102.57337 209.822233,103.201583 208.621942,103.201583 C206.735771,103.201583 205.192541,101.659607 205.192541,99.7749689 C205.192541,97.8903312 206.735771,96.348355 208.621942,96.348355 C209.822233,96.348355 210.90821,96.9765675 211.479777,97.8903312 Z" id="Path" fill="#FFBC63"></path>
                        <path d="M211.479777,69.3352153 L211.479777,73.1044906 C210.851054,74.0182543 209.822233,74.6464669 208.621942,74.6464669 C206.735771,74.6464669 205.192541,73.1044906 205.192541,71.219853 C205.192541,69.3352153 206.735771,67.7932391 208.621942,67.7932391 C209.822233,67.7932391 210.90821,68.4214516 211.479777,69.3352153 Z" id="Path" fill="#FFBC63"></path>
                        <path d="M173.756357,39.8092255 C171.698716,35.1261865 169.412449,32.4991158 167.183337,31.1855805 C171.870186,1.48825995 196.504723,-3.13766882 201.877452,1.60248042 C206.335674,5.48597618 210.279487,12.4534245 210.73674,18.6784397 C210.851054,20.0490853 210.793897,21.3626206 210.508113,22.6190457 C210.3938,23.0759276 210.279487,23.5899197 210.108016,24.1039117 C207.936062,30.9571396 200.334221,39.8092255 191.932187,39.8092255 L176.614192,39.8092255 C176.614192,39.8092255 176.614192,39.8092255 176.614192,39.8092255 L173.756357,39.8092255 L173.756357,39.8092255 Z M176.099782,31.6424623 C192.389441,22.1050536 202.106079,6.11418873 197.190603,5.65730687 C185.64495,4.51510224 174.728021,17.3649044 171.069993,34.269533 C172.84185,33.5271 174.499395,32.6133363 176.099782,31.6424623 Z" id="Shape" fill="#339EFF"></path>
                        <ellipse id="Oval" fill="#FFE880" cx="203.99225" cy="196.862363" rx="2.28626786" ry="2.28440927"></ellipse>
                        <ellipse id="Oval" fill="#FFBC63" cx="195.475902" cy="58.0844997" rx="3.42940179" ry="3.42661391"></ellipse>
                        <path d="M176.099782,31.6424623 C174.499395,32.6133363 172.784694,33.4699898 171.069993,34.269533 C174.670865,17.3649044 185.64495,4.51510224 197.190603,5.65730687 C202.163236,6.17129896 192.446597,22.1621639 176.099782,31.6424623 Z" id="Path" fill="#339EFF"></path>
                        <path d="M195.475902,165.280405 L195.475902,168.878349 C195.475902,169.506562 194.961492,170.020554 194.332768,170.020554 L185.187697,170.020554 C184.558973,170.020554 184.044563,169.506562 184.044563,168.878349 L184.044563,163.567098 L184.044563,159.740712 C184.044563,159.1125 184.558973,158.598508 185.187697,158.598508 L194.332768,158.598508 C194.961492,158.598508 195.475902,159.1125 195.475902,159.740712 L195.475902,165.280405 Z" id="Path" fill="#6ACED4"></path>
                        <polygon id="Path" fill="#6ACED4" points="190.617583 205.428898 185.187697 205.428898 185.187697 170.020554 194.332768 170.020554 194.332768 205.428898"></polygon>
                        <path d="M194.332768,136.89662 L194.332768,158.598508 L185.187697,158.598508 L185.187697,136.89662 C185.187697,135.640194 186.216517,134.61221 187.473965,134.61221 L192.0465,134.61221 C193.303948,134.61221 194.332768,135.640194 194.332768,136.89662 Z" id="Path" fill="#6ACED4"></path>
                        <ellipse id="Oval" fill="#FFBC63" cx="191.474933" cy="85.4974109" rx="3.42940179" ry="3.42661391"></ellipse>
                        <ellipse id="Oval" fill="#FFBC63" cx="191.474933" cy="114.052527" rx="3.42940179" ry="3.42661391"></ellipse>
                        <path d="M185.187697,170.020554 L185.187697,205.428898 L179.757811,205.428898 C180.272221,205.029126 180.558004,204.400914 180.558004,203.715591 C180.558004,202.459166 179.529184,201.431181 178.271736,201.431181 C177.014289,201.431181 175.985469,202.459166 175.985469,203.715591 C175.985469,204.400914 176.271252,205.029126 176.785662,205.428898 L91.4507145,205.428898 C90.1932671,205.428898 89.1644466,204.400914 89.1644466,203.144488 L89.1644466,168.878349 L137.976265,168.878349 C136.833132,169.04968 135.975781,169.963444 135.975781,171.162759 C135.975781,172.419184 137.004602,173.447168 138.262049,173.447168 C139.519496,173.447168 140.548317,172.419184 140.548317,171.162759 C140.548317,170.020554 139.690966,169.04968 138.547832,168.878349 L184.044563,168.878349 C184.044563,169.506562 184.558973,170.020554 185.187697,170.020554 Z M174.842335,177.444884 C174.842335,176.188459 173.813514,175.160475 172.556067,175.160475 C171.29862,175.160475 170.269799,176.188459 170.269799,177.444884 C170.269799,178.701309 171.29862,179.729293 172.556067,179.729293 C173.870671,179.729293 174.842335,178.701309 174.842335,177.444884 Z M127.973844,192.293544 C127.973844,191.037119 126.945023,190.009135 125.687576,190.009135 C124.430128,190.009135 123.401308,191.037119 123.401308,192.293544 C123.401308,193.549969 124.430128,194.577954 125.687576,194.577954 C127.00218,194.577954 127.973844,193.549969 127.973844,192.293544 Z M103.396464,196.862363 C103.396464,195.605938 102.367643,194.577954 101.110196,194.577954 C99.8527488,194.577954 98.8239283,195.605938 98.8239283,196.862363 C98.8239283,198.118788 99.8527488,199.146772 101.110196,199.146772 C102.4248,199.146772 103.396464,198.118788 103.396464,196.862363 Z" id="Shape" fill="#55C7CD"></path>
                        <path d="M185.187697,136.89662 L185.187697,158.598508 C184.558973,158.598508 184.044563,159.1125 184.044563,159.740712 L89.1644466,159.740712 L89.1644466,156.314098 L89.1644466,139.181029 C89.1644466,137.924604 90.1932671,136.89662 91.4507145,136.89662 L108.597723,136.89662 L148.607411,136.89662 L171.47009,136.89662 L185.187697,136.89662 Z M175.985469,152.430603 C175.985469,151.174177 174.956648,150.146193 173.699201,150.146193 C172.441753,150.146193 171.412933,151.174177 171.412933,152.430603 C171.412933,153.687028 172.441753,154.715012 173.699201,154.715012 C175.013805,154.715012 175.985469,153.687028 175.985469,152.430603 Z M107.397433,144.32095 C107.397433,143.064525 106.368612,142.03654 105.111165,142.03654 C103.853718,142.03654 102.824897,143.064525 102.824897,144.32095 C102.824897,145.577375 103.853718,146.605359 105.111165,146.605359 C106.425769,146.605359 107.397433,145.577375 107.397433,144.32095 Z" id="Shape" fill="#55C7CD"></path>
                        <path d="M184.044563,163.567098 L184.044563,168.878349 L138.547832,168.878349 C138.433519,168.878349 138.319206,168.878349 138.262049,168.878349 C138.147736,168.878349 138.033422,168.878349 137.976265,168.878349 L89.1644466,168.878349 C88.8215064,168.878349 88.5357229,168.821239 88.2499395,168.649908 C87.4497457,168.307247 86.8781787,167.507704 86.8781787,166.59394 L86.8781787,162.025122 C86.8781787,160.768696 87.9069993,159.740712 89.1644466,159.740712 L184.044563,159.740712 L184.044563,163.567098 Z" id="Path" fill="#6ACED4"></path>
                        <ellipse id="Oval" fill="#FFBC63" cx="178.328893" cy="43.8069417" rx="3.42940179" ry="3.42661391"></ellipse>
                        <path d="M178.271736,201.431181 C179.529184,201.431181 180.558004,202.459166 180.558004,203.715591 C180.558004,204.400914 180.272221,205.029126 179.757811,205.428898 L176.785662,205.428898 C176.271252,205.029126 175.985469,204.400914 175.985469,203.715591 C175.985469,202.402055 177.014289,201.431181 178.271736,201.431181 Z" id="Path" fill="#FFE880"></path>
                        <path d="M176.785662,205.428898 L179.757811,205.428898 C179.357714,205.771559 178.843303,206 178.271736,206 C177.70017,206 177.185759,205.771559 176.785662,205.428898 Z" id="Path" fill="#FFFFFF"></path>
                        <path d="M174.327924,67.7932391 C176.214095,67.7932391 177.757326,69.3352153 177.757326,71.219853 C177.757326,73.1044906 176.214095,74.6464669 174.327924,74.6464669 C173.127634,74.6464669 172.098813,74.0182543 171.47009,73.1044906 L171.47009,69.3352153 C172.098813,68.4214516 173.127634,67.7932391 174.327924,67.7932391 Z" id="Path" fill="#FFBC63"></path>
                        <path d="M174.327924,96.348355 C176.214095,96.348355 177.757326,97.8903312 177.757326,99.7749689 C177.757326,101.659607 176.214095,103.201583 174.327924,103.201583 C173.127634,103.201583 172.098813,102.57337 171.47009,101.659607 L171.47009,97.8903312 C172.098813,96.9765675 173.127634,96.348355 174.327924,96.348355 Z" id="Path" fill="#FFBC63"></path>
                        <path d="M174.327924,124.903471 C176.214095,124.903471 177.757326,126.445447 177.757326,128.330085 C177.757326,130.214722 176.214095,131.756699 174.327924,131.756699 C173.127634,131.756699 172.098813,131.128486 171.47009,130.214722 L171.47009,126.445447 C172.098813,125.531683 173.127634,124.903471 174.327924,124.903471 Z" id="Path" fill="#FFBC63"></path>
                        <ellipse id="Oval" fill="#FFE880" cx="173.699201" cy="152.430603" rx="2.28626786" ry="2.28440927"></ellipse>
                        <ellipse id="Oval" fill="#FFE880" cx="172.556067" cy="177.444884" rx="2.28626786" ry="2.28440927"></ellipse>
                        <polygon id="Path" fill="#339EFF" points="173.756357 39.8092255 173.756357 62.6533182 171.47009 62.6533182 148.607411 62.6533182 146.321143 62.6533182 146.321143 39.8092255"></polygon>
                        <path d="M157.352386,32.6133363 C158.952773,30.9000293 162.953742,28.6727303 167.183337,31.1284703 C169.412449,32.4420056 171.755873,35.0690762 173.756357,39.7521153 L146.321143,39.7521153 C146.321143,37.8103674 147.349964,35.754399 149.007508,34.269533 C150.093485,33.2415488 151.522403,32.4991158 153.065633,32.2135647 C154.437394,31.9851237 155.866311,32.0993442 157.352386,32.6133363 Z" id="Path" fill="#339EFF"></path>
                        <path d="M171.47009,130.214722 L171.47009,136.89662 L148.607411,136.89662 L148.607411,130.214722 C148.950351,129.70073 149.178978,129.015408 149.178978,128.330085 C149.178978,127.644762 148.950351,126.959439 148.607411,126.445447 L148.607411,101.659607 C148.950351,101.145614 149.178978,100.460292 149.178978,99.7749689 C149.178978,99.0896461 148.950351,98.4043233 148.607411,97.8903312 L148.607411,73.1044906 C148.950351,72.5904985 149.178978,71.9051758 149.178978,71.219853 C149.178978,70.5345302 148.950351,69.8492074 148.607411,69.3352153 L148.607411,62.6533182 L171.47009,62.6533182 L171.47009,69.3352153 C171.127149,69.9063176 170.898523,70.5345302 170.898523,71.219853 C170.898523,71.9051758 171.127149,72.5904985 171.47009,73.1044906 L171.47009,97.8903312 C171.127149,98.4614335 170.898523,99.0896461 170.898523,99.7749689 C170.898523,100.460292 171.127149,101.145614 171.47009,101.659607 L171.47009,126.445447 C171.127149,127.016549 170.898523,127.644762 170.898523,128.330085 C170.898523,129.015408 171.127149,129.64362 171.47009,130.214722 Z" id="Path" fill="#339EFF"></path>
                        <path d="M171.47009,126.445447 L171.47009,130.214722 C171.127149,129.70073 170.898523,129.015408 170.898523,128.330085 C170.898523,127.644762 171.127149,126.959439 171.47009,126.445447 Z" id="Path" fill="#FFFFFF"></path>
                        <path d="M171.47009,97.8903312 L171.47009,101.659607 C171.127149,101.145614 170.898523,100.460292 170.898523,99.7749689 C170.898523,99.0896461 171.127149,98.4043233 171.47009,97.8903312 Z" id="Path" fill="#FFFFFF"></path>
                        <path d="M171.47009,69.3352153 L171.47009,73.1044906 C171.127149,72.5904985 170.898523,71.9051758 170.898523,71.219853 C170.898523,70.5345302 171.127149,69.8492074 171.47009,69.3352153 Z" id="Path" fill="#FFFFFF"></path>
                        <path d="M146.321143,39.8092255 L143.520465,39.8092255 C143.520465,39.8092255 143.463308,39.8092255 143.463308,39.8092255 L128.145314,39.8092255 C119.114556,39.8092255 110.998305,29.5293838 109.569387,22.6190457 C109.283604,21.3626206 109.226447,20.0490853 109.34076,18.6784397 C109.855171,12.4534245 113.798983,5.48597618 118.200048,1.60248042 C123.629935,-3.13766882 148.778881,1.60248042 153.065633,32.2706749 C151.465246,32.556226 150.093485,33.2986591 149.007508,34.3266432 C145.406636,17.4220146 134.43255,4.57221247 122.886898,5.71441711 C117.914265,6.22840919 127.68806,22.2192741 143.977719,31.6995726 C145.578106,32.6704465 147.292807,33.5271 149.007508,34.3266432 C147.349964,35.8115093 146.321143,37.8674776 146.321143,39.8092255 Z" id="Path" fill="#339EFF"></path>
                        <path d="M148.607411,69.3352153 C148.950351,69.9063176 149.178978,70.5345302 149.178978,71.219853 C149.178978,71.9051758 148.950351,72.5904985 148.607411,73.1044906 L148.607411,69.3352153 Z" id="Path" fill="#FFFFFF"></path>
                        <path d="M148.607411,97.8903312 C148.950351,98.4614335 149.178978,99.0896461 149.178978,99.7749689 C149.178978,100.460292 148.950351,101.145614 148.607411,101.659607 L148.607411,97.8903312 Z" id="Path" fill="#FFFFFF"></path>
                        <path d="M148.607411,126.445447 C148.950351,127.016549 149.178978,127.644762 149.178978,128.330085 C149.178978,129.015408 148.950351,129.70073 148.607411,130.214722 L148.607411,126.445447 Z" id="Path" fill="#FFFFFF"></path>
                        <path d="M148.607411,130.214722 L148.607411,136.89662 L108.597723,136.89662 L108.597723,130.214722 C109.226447,131.128486 110.255268,131.756699 111.455558,131.756699 C113.341729,131.756699 114.88496,130.214722 114.88496,128.330085 C114.88496,126.445447 113.341729,124.903471 111.455558,124.903471 C110.255268,124.903471 109.226447,125.531683 108.597723,126.445447 L108.597723,111.768118 L108.597723,101.659607 C109.226447,102.57337 110.255268,103.201583 111.455558,103.201583 C113.341729,103.201583 114.88496,101.659607 114.88496,99.7749689 C114.88496,97.8903312 113.341729,96.348355 111.455558,96.348355 C110.255268,96.348355 109.226447,96.9765675 108.597723,97.8903312 L108.597723,93.4928434 L108.597723,73.1044906 C109.226447,74.0182543 110.255268,74.6464669 111.455558,74.6464669 C113.341729,74.6464669 114.88496,73.1044906 114.88496,71.219853 C114.88496,69.3352153 113.341729,67.7932391 111.455558,67.7932391 C110.255268,67.7932391 109.226447,68.4214516 108.597723,69.3352153 L108.597723,62.6533182 L146.321143,62.6533182 L148.607411,62.6533182 L148.607411,69.3352153 C147.978687,68.4214516 146.949867,67.7932391 145.749576,67.7932391 C143.863405,67.7932391 142.320174,69.3352153 142.320174,71.219853 C142.320174,73.1044906 143.863405,74.6464669 145.749576,74.6464669 C146.949867,74.6464669 147.978687,74.0182543 148.607411,73.1044906 L148.607411,97.8903312 C147.978687,96.9765675 146.949867,96.348355 145.749576,96.348355 C143.863405,96.348355 142.320174,97.8903312 142.320174,99.7749689 C142.320174,101.659607 143.863405,103.201583 145.749576,103.201583 C146.949867,103.201583 147.978687,102.57337 148.607411,101.659607 L148.607411,126.445447 C147.978687,125.531683 146.949867,124.903471 145.749576,124.903471 C143.863405,124.903471 142.320174,126.445447 142.320174,128.330085 C142.320174,130.214722 143.863405,131.756699 145.749576,131.756699 C146.949867,131.756699 148.035844,131.128486 148.607411,130.214722 Z M132.031969,85.4974109 C132.031969,83.6127733 130.488738,82.070797 128.602567,82.070797 C126.716396,82.070797 125.173165,83.6127733 125.173165,85.4974109 C125.173165,87.3820486 126.716396,88.9240248 128.602567,88.9240248 C130.488738,88.9240248 132.031969,87.3820486 132.031969,85.4974109 Z M132.031969,114.052527 C132.031969,112.167889 130.488738,110.625913 128.602567,110.625913 C126.716396,110.625913 125.173165,112.167889 125.173165,114.052527 C125.173165,115.937164 126.716396,117.479141 128.602567,117.479141 C130.488738,117.479141 132.031969,115.937164 132.031969,114.052527 Z" id="Shape" fill="#FF4D55"></path>
                        <path d="M148.607411,126.445447 L148.607411,130.214722 C147.978687,131.128486 146.949867,131.756699 145.749576,131.756699 C143.863405,131.756699 142.320174,130.214722 142.320174,128.330085 C142.320174,126.445447 143.863405,124.903471 145.749576,124.903471 C146.949867,124.903471 148.035844,125.531683 148.607411,126.445447 Z" id="Path" fill="#FFBC63"></path>
                        <path d="M148.607411,97.8903312 L148.607411,101.659607 C147.978687,102.57337 146.949867,103.201583 145.749576,103.201583 C143.863405,103.201583 142.320174,101.659607 142.320174,99.7749689 C142.320174,97.8903312 143.863405,96.348355 145.749576,96.348355 C146.949867,96.348355 148.035844,96.9765675 148.607411,97.8903312 Z" id="Path" fill="#FFBC63"></path>
                        <path d="M148.607411,69.3352153 L148.607411,73.1044906 C147.978687,74.0182543 146.949867,74.6464669 145.749576,74.6464669 C143.863405,74.6464669 142.320174,73.1044906 142.320174,71.219853 C142.320174,69.3352153 143.863405,67.7932391 145.749576,67.7932391 C146.949867,67.7932391 148.035844,68.4214516 148.607411,69.3352153 Z" id="Path" fill="#FFBC63"></path>
                        <path d="M146.321143,39.8092255 L146.321143,62.6533182 L108.597723,62.6533182 L105.168322,62.6533182 C103.910874,62.6533182 102.882054,61.625334 102.882054,60.3689089 L102.882054,42.0936348 C102.882054,40.8372097 103.910874,39.8092255 105.168322,39.8092255 L119.000242,39.8092255 L128.145314,39.8092255 L143.463308,39.8092255 C143.463308,39.8092255 143.520465,39.8092255 143.520465,39.8092255 L146.321143,39.8092255 Z M145.178009,58.0844997 C145.178009,56.199862 143.634778,54.6578858 141.748607,54.6578858 C139.862436,54.6578858 138.319206,56.199862 138.319206,58.0844997 C138.319206,59.9691373 139.862436,61.5111136 141.748607,61.5111136 C143.634778,61.5111136 145.178009,59.9691373 145.178009,58.0844997 Z M128.031,43.8069417 C128.031,41.9223041 126.487769,40.3803278 124.601598,40.3803278 C122.715427,40.3803278 121.172197,41.9223041 121.172197,43.8069417 C121.172197,45.6915794 122.715427,47.2335556 124.601598,47.2335556 C126.487769,47.2335556 128.031,45.6915794 128.031,43.8069417 Z M110.883991,58.0844997 C110.883991,56.199862 109.34076,54.6578858 107.454589,54.6578858 C105.568419,54.6578858 104.025188,56.199862 104.025188,58.0844997 C104.025188,59.9691373 105.568419,61.5111136 107.454589,61.5111136 C109.34076,61.5111136 110.883991,59.9691373 110.883991,58.0844997 Z" id="Shape" fill="#FF4D55"></path>
                        <path d="M143.977719,31.6424623 C127.68806,22.1050536 117.971422,6.11418873 122.886898,5.65730687 C134.375394,4.51510224 145.349479,17.3649044 149.007508,34.269533 C147.292807,33.5271 145.578106,32.6133363 143.977719,31.6424623 Z" id="Path" fill="#339EFF"></path>
                        <ellipse id="Oval" fill="#FFBC63" cx="141.748607" cy="58.0844997" rx="3.42940179" ry="3.42661391"></ellipse>
                        <path d="M138.604989,168.878349 C139.748123,169.04968 140.605473,169.963444 140.605473,171.162759 C140.605473,172.419184 139.576653,173.447168 138.319206,173.447168 C137.061758,173.447168 136.032938,172.419184 136.032938,171.162759 C136.032938,170.020554 136.890288,169.04968 138.033422,168.878349 L138.604989,168.878349 Z" id="Path" fill="#FFE880"></path>
                        <path d="M138.604989,168.878349 L137.976265,168.878349 C138.090579,168.878349 138.204892,168.878349 138.262049,168.878349 C138.376362,168.878349 138.490676,168.878349 138.604989,168.878349 Z" id="Path" fill="#FFFFFF"></path>
                        <ellipse id="Oval" fill="#FFBC63" cx="128.602567" cy="85.4974109" rx="3.42940179" ry="3.42661391"></ellipse>
                        <ellipse id="Oval" fill="#FFBC63" cx="128.602567" cy="114.052527" rx="3.42940179" ry="3.42661391"></ellipse>
                        <path d="M128.145314,39.8092255 L119.000242,39.8092255 C99.6812788,39.8092255 84.1346573,24.3894629 84.1346573,24.3894629 C86.7067086,21.4197308 89.27876,19.9348648 96.4233471,21.8766127 C92.8796319,16.3369202 93.5655122,11.3112198 95.9089368,7.1421729 C99.452652,10.5687868 105.625575,17.022243 109.34076,18.6784397 C109.226447,20.0490853 109.283604,21.3626206 109.569387,22.6190457 C110.998305,29.5293838 119.114556,39.8092255 128.145314,39.8092255 Z" id="Path" fill="#339EFF"></path>
                        <ellipse id="Oval" fill="#FFE880" cx="125.687576" cy="192.293544" rx="2.28626786" ry="2.28440927"></ellipse>
                        <ellipse id="Oval" fill="#FFBC63" cx="124.601598" cy="43.8069417" rx="3.42940179" ry="3.42661391"></ellipse>
                        <path d="M111.455558,67.7932391 C113.341729,67.7932391 114.88496,69.3352153 114.88496,71.219853 C114.88496,73.1044906 113.341729,74.6464669 111.455558,74.6464669 C110.255268,74.6464669 109.226447,74.0182543 108.597723,73.1044906 L108.597723,69.3352153 C109.226447,68.4214516 110.255268,67.7932391 111.455558,67.7932391 Z" id="Path" fill="#FFBC63"></path>
                        <path d="M111.455558,96.348355 C113.341729,96.348355 114.88496,97.8903312 114.88496,99.7749689 C114.88496,101.659607 113.341729,103.201583 111.455558,103.201583 C110.255268,103.201583 109.226447,102.57337 108.597723,101.659607 L108.597723,97.8903312 C109.226447,96.9765675 110.255268,96.348355 111.455558,96.348355 Z" id="Path" fill="#FFBC63"></path>
                        <path d="M111.455558,124.903471 C113.341729,124.903471 114.88496,126.445447 114.88496,128.330085 C114.88496,130.214722 113.341729,131.756699 111.455558,131.756699 C110.255268,131.756699 109.226447,131.128486 108.597723,130.214722 L108.597723,126.445447 C109.226447,125.531683 110.255268,124.903471 111.455558,124.903471 Z" id="Path" fill="#FFBC63"></path>
                        <ellipse id="Oval" fill="#FFBC63" cx="107.454589" cy="58.0844997" rx="3.42940179" ry="3.42661391"></ellipse>
                        <path d="M108.597723,130.214722 L108.597723,136.89662 L91.4507145,136.89662 C90.1932671,136.89662 89.1644466,137.924604 89.1644466,139.181029 L89.1644466,156.314098 L72.0174376,173.447168 L72.0174376,139.181029 L99.452652,111.768118 L108.597723,111.768118 L108.597723,126.445447 C108.254783,127.016549 108.026156,127.644762 108.026156,128.330085 C108.026156,129.015408 108.254783,129.64362 108.597723,130.214722 Z" id="Path" fill="#9580BC"></path>
                        <path d="M108.597723,126.445447 L108.597723,130.214722 C108.254783,129.70073 108.026156,129.015408 108.026156,128.330085 C108.026156,127.644762 108.254783,126.959439 108.597723,126.445447 Z" id="Path" fill="#FFFFFF"></path>
                        <path d="M108.597723,101.659607 L108.597723,111.768118 L99.452652,111.768118 L88.0213127,111.768118 L74.3037055,111.768118 L74.3037055,93.4928434 L80.8767256,93.4928434 L108.597723,93.4928434 L108.597723,97.8903312 C108.254783,98.4614335 108.026156,99.0896461 108.026156,99.7749689 C108.026156,100.460292 108.254783,101.088504 108.597723,101.659607 Z" id="Path" fill="#9580BC"></path>
                        <path d="M108.597723,97.8903312 L108.597723,101.659607 C108.254783,101.145614 108.026156,100.460292 108.026156,99.7749689 C108.026156,99.0896461 108.254783,98.4043233 108.597723,97.8903312 Z" id="Path" fill="#FFFFFF"></path>
                        <path d="M108.597723,69.3352153 L108.597723,73.1044906 C108.254783,72.5904985 108.026156,71.9051758 108.026156,71.219853 C108.026156,70.5345302 108.254783,69.8492074 108.597723,69.3352153 Z" id="Path" fill="#FFFFFF"></path>
                        <ellipse id="Oval" fill="#FFE880" cx="105.111165" cy="144.32095" rx="2.28626786" ry="2.28440927"></ellipse>
                        <ellipse id="Oval" fill="#FFE880" cx="101.110196" cy="196.862363" rx="2.28626786" ry="2.28440927"></ellipse>
                        <path d="M101.053039,82.1279072 C101.510293,84.1267654 101.56745,86.0685132 100.710099,87.3249383 C98.4238314,90.7515522 92.2509082,93.4928434 80.8767256,93.4928434 L74.3037055,93.4928434 L72.0174376,93.4928434 C73.2177283,91.3797648 72.9891015,89.0382453 71.9602809,87.1536076 C77.790264,82.5276789 83.8488738,77.7304194 88.7643497,75.2746794 C92.0222814,73.6184827 94.7658029,72.9902702 96.5376605,74.0182543 C98.0237346,74.7606873 100.195689,78.5870729 101.053039,82.1279072 Z" id="Path" fill="#FF5A52"></path>
                        <polygon id="Path" fill="#614B8B" points="99.452652 111.768118 72.0174376 139.181029 72.0174376 127.758982 88.0213127 111.768118"></polygon>
                        <path d="M94.3085493,62.6533182 C95.2230564,63.5670819 93.794139,67.4505777 88.7643497,75.2175692 L88.7643497,75.2746794 C83.8488738,77.7304194 77.7331073,82.5276789 71.9602809,87.1536076 C71.9602809,87.0964974 71.9031242,87.0964974 71.9031242,87.0393872 C80.9338823,71.6196246 92.479535,60.7686806 94.3085493,62.6533182 L94.3085493,62.6533182 Z" id="Path" fill="#FF5A52"></path>
                        <path d="M86.3637685,53.8012323 C89.9646403,56.6567439 93.3368854,60.5402396 94.365706,62.6533182 C92.5366917,60.7686806 80.9338823,71.6196246 71.9602809,87.0393872 C70.817147,85.0405291 68.8166626,83.4985528 66.7018649,83.3272221 C66.7590216,79.3295059 66.4160814,75.0462385 65.730201,70.8200813 C69.2739162,59.9120271 74.9895859,50.2032877 78.9333979,50.2032877 C80.3051586,50.2032877 82.0198595,50.8886105 83.7345604,51.9737049 C84.5347542,52.4876969 85.4492613,53.1159095 86.3637685,53.8012323 Z" id="Path" fill="#FF5A52"></path>
                        <path d="M91.4507145,205.428898 L72.0174376,205.428898 L72.0174376,184.869214 L88.2499395,168.649908 C88.5357229,168.764129 88.8786631,168.878349 89.1644466,168.878349 L89.1644466,203.144488 C89.1644466,204.400914 90.1932671,205.428898 91.4507145,205.428898 Z" id="Path" fill="#9580BC"></path>
                        <path d="M89.1644466,156.314098 L89.1644466,159.740712 C87.9069993,159.740712 86.8781787,160.768696 86.8781787,162.025122 L86.8781787,166.59394 C86.8781787,167.507704 87.4497457,168.307247 88.2499395,168.649908 L72.0174376,184.869214 L72.0174376,173.447168 L89.1644466,156.314098 Z" id="Path" fill="#614B8B"></path>
                        <polygon id="Path" fill="#8A76AE" points="88.0213127 111.768118 72.0174376 127.758982 72.0174376 111.768118 74.3037055 111.768118"></polygon>
                        <polygon id="Path" fill="#FF5A52" points="74.3037055 93.4928434 74.3037055 111.768118 72.0174376 111.768118 53.7272947 111.768118 51.4410269 111.768118 51.4410269 93.4928434 52.6413175 93.4928434 72.0174376 93.4928434"></polygon>
                        <path d="M63.6154032,84.1267654 C64.5870671,83.4985528 65.6158876,83.2701119 66.6447082,83.3272221 C68.7595059,83.4985528 70.817147,84.9834188 71.9031242,87.0393872 C71.9031242,87.0964974 71.9602809,87.0964974 71.9602809,87.1536076 C72.9891015,89.0382453 73.2177283,91.436875 72.0174376,93.4928434 L52.6413175,93.4928434 C51.3267135,89.6664578 52.0125938,86.5825053 53.7272947,84.6407574 C55.3848389,82.8703403 58.014047,82.1279072 60.8147251,82.8703403 L60.8147251,82.8703403 C61.7292323,83.1558914 62.7008961,83.555663 63.6154032,84.1267654 Z" id="Path" fill="#FF5A52"></path>
                        <polygon id="Path" fill="#FF5A52" points="72.0174376 184.869214 72.0174376 205.428898 53.7272947 205.428898 53.7272947 191.722442 53.7272947 157.456303 53.7272947 146.034257 53.7272947 111.768118 72.0174376 111.768118 72.0174376 127.758982 72.0174376 139.181029 72.0174376 173.447168"></polygon>
                        <path d="M60.8147251,82.9274505 C58.014047,82.1850175 55.3848389,82.8703403 53.7272947,84.6978677 C48.1830952,66.8223651 39.3809639,55.1718778 37.7234197,57.3991769 C40.5812545,52.0308151 51.3838702,46.4340124 55.2705256,47.0051147 C59.4429644,47.6333272 63.7868733,58.8269327 65.6730443,70.8771916 C66.3589247,75.1033487 66.7018649,79.3866161 66.6447082,83.3843323 C65.6158876,83.3272221 64.5870671,83.555663 63.6154032,84.1838756 C62.7008961,83.555663 61.7292323,83.1558914 60.8147251,82.9274505 L60.8147251,82.9274505 Z" id="Path" fill="#FF5A52"></path>
                        <polygon id="Path" fill="#6A5798" points="53.7272947 191.722442 53.7272947 205.428898 40.0096876 205.428898"></polygon>
                        <polygon id="Path" fill="#9580BC" points="53.7272947 157.456303 53.7272947 191.722442 40.0096876 205.428898 8.00193752 205.428898 8.00193752 203.144488"></polygon>
                        <polygon id="Path" fill="#614B8B" points="53.7272947 146.034257 53.7272947 157.456303 8.00193752 203.144488 8.00193752 191.722442"></polygon>
                        <polygon id="Path" fill="#9580BC" points="53.7272947 111.768118 53.7272947 146.034257 8.00193752 191.722442 8.00193752 157.456303"></polygon>
                        <polygon id="Path" fill="#614B8B" points="53.7272947 111.768118 8.00193752 157.456303 8.00193752 146.034257 42.2959554 111.768118 51.4410269 111.768118"></polygon>
                        <path d="M25.6633567,67.8503493 C26.749334,66.9365856 27.9496246,66.1941526 29.1499152,65.794381 C32.1220635,64.7663968 36.923226,67.5647981 41.9530153,72.0193962 C45.953984,75.5602306 50.1264229,80.0719389 53.7272947,84.6407574 C51.9554372,86.5253951 51.2695568,89.6093476 52.6413175,93.4928434 L51.4410269,93.4928434 L45.1537903,93.4928434 C29.7214822,93.4928434 20.5764108,83.6127733 19.7190603,79.615057 C19.0903366,76.5311045 21.8910148,71.0485223 25.6633567,67.8503493 Z" id="Path" fill="#FF5A52"></path>
                        <path d="M51.4410269,93.4928434 L51.4410269,111.768118 L42.2959554,111.768118 L8.00193752,111.768118 L2.28626786,111.768118 C1.02882054,111.768118 0,110.740133 0,109.483708 L0,95.7772526 C0,94.5208275 1.02882054,93.4928434 2.28626786,93.4928434 L9.8881085,93.4928434 L45.1537903,93.4928434 L51.4410269,93.4928434 Z" id="Path" fill="#9580BC"></path>
                        <polygon id="Path" fill="#9580BC" points="42.2959554 111.768118 8.00193752 146.034257 8.00193752 111.768118"></polygon>
                        <path d="M37.7234197,57.3420666 L37.7234197,57.3420666 C39.3809639,55.1147676 48.1830952,66.7652549 53.7272947,84.6407574 C50.1264229,80.1290491 45.953984,75.5602306 41.9530153,72.0193962 C37.8948898,63.0530898 36.923226,58.4842713 37.7234197,57.3420666 Z" id="Path" fill="#FF5A52"></path>
                    </g>
                </g>
                <g id="shadows" transform="translate(41.000000, 6.000000)" fill-rule="nonzero">
                    <path d="M50.4858827,73.8213754 C48.1443429,60.4673282 37.6930798,51.2792873 37.6930798,51.2792873 C36.1510902,62.3505913 44.5463671,70.0548492 50.4858827,73.8213754 Z" id="Path" fill="#000000" opacity="0.35"></path>
                    <path d="M74.5866095,76.6177356 C79.8407964,64.1197172 92.1196027,57.4997622 92.1196027,57.4997622 C91.1487203,68.6852034 81.2114538,74.3349925 74.5866095,76.6177356 Z" id="Path" fill="#000000" opacity="0.35"></path>
                    <g id="Group" opacity="0.35" transform="translate(18.960761, 43.803304)" fill="#FFFFFF">
                        <ellipse id="Oval" transform="translate(45.386226, 38.208611) rotate(-61.523065) translate(-45.386226, -38.208611) " cx="45.386226" cy="38.208611" rx="2.56849057" ry="1.42751402"></ellipse>
                        <ellipse id="Oval" transform="translate(37.012337, 37.384044) rotate(-43.654781) translate(-37.012337, -37.384044) " cx="37.0123371" cy="37.3840443" rx="2.511946" ry="1.37010517"></ellipse>
                        <path d="M0,30.3604832 C6.11084779,33.6133921 18.0469897,22.4850195 10.7368167,15.9221331 C16.9618859,17.5200533 27.9271455,29.6185917 27.9271455,29.6185917 C19.6460901,23.2839796 9.82304504,40.0050728 20.8454154,43.3150503 C9.53749141,40.8040328 0,30.3604832 0,30.3604832 Z" id="Path"></path>
                        <path d="M24.0436161,12.4409499 C20.0458652,3.93773184 40.9483913,13.9247329 37.8073013,5.68434189e-14 C42.4903809,5.70685774 44.0323705,18.7184934 44.0323705,18.7184934 C39.4064016,11.071304 33.8666611,31.9584033 28.3840313,19.2891792 C25.8711593,16.0362703 24.0436161,12.4409499 24.0436161,12.4409499 Z" id="Path"></path>
                        <path d="M47.2305712,18.7184934 C46.3739103,29.1620431 63.2786855,18.090739 57.9673879,27.1075743 C65.7344468,16.4928189 64.3637893,19.2891792 64.3637893,19.2891792 C67.9617651,11.4707841 52.1992045,14.2671444 54.5407443,4.73669192 C46.7736854,10.7288926 47.2305712,18.7184934 47.2305712,18.7184934 Z" id="Path"></path>
                        <path d="M58.4813845,32.414952 C62.136471,32.4720205 67.4477686,44.6276275 58.1387201,43.7715989 C67.6762115,43.7715989 78.3559174,40.0050728 78.3559174,40.0050728 C70.4746371,42.9726388 68.3044295,30.4746203 73.1588413,24.1400082 C67.162215,25.0531055 58.4813845,32.414952 58.4813845,32.414952 Z" id="Path"></path>
                    </g>
                    <path d="M3.19820071,106.407533 L3.19820071,94.3660632 C3.19820071,92.8822802 4.39752598,91.6838401 5.88240488,91.6838401 L51.1141007,91.6838401 L51.1141007,87.6319711 L0,87.6319711 L0,106.407533 L3.19820071,106.407533 L3.19820071,106.407533 Z" id="Path" fill="#FFFFFF" opacity="0.5"></path>
                    <rect id="Rectangle" fill="#FFFFFF" opacity="0.5" x="73.1017306" y="87.6319711" width="34.8946542" height="4.051869"></rect>
                    <rect id="Rectangle" fill="#000000" opacity="0.3" x="7.08173015" y="105.836847" width="46.2596889" height="5.70685774"></rect>
                    <rect id="Rectangle" fill="#000000" opacity="0.3" x="70.9315229" y="105.836847" width="37.0648618" height="5.70685774"></rect>
                    <rect id="Rectangle" fill="#000000" opacity="0.2" x="53.341419" y="106.692876" width="17.7043254" height="3.42411464"></rect>
                    <rect id="Rectangle" fill="#FFFFFF" opacity="0.35" x="52.4847581" y="110.116991" width="4.05486162" height="89.8830094"></rect>
                    <path d="M52.4847581,187.730256 L52.4847581,200 L7.08173015,200 L7.08173015,180.482547 C7.08173015,186.874227 28.4982528,190.127136 52.4847581,187.730256 Z" id="Path" fill="#000000" opacity="0.07"></path>
                    <path d="M88.8071805,179.112901 L88.8071805,199.942931 L70.9315229,199.942931 L70.9315229,184.705621 C77.1565922,183.278907 83.2103292,181.452712 88.8071805,179.112901 Z" id="Path" fill="#000000" opacity="0.07"></path>
                    <path d="M60.5944814,141.618845 L60.5944814,141.618845 C59.6807097,141.618845 58.9382703,140.876954 58.9382703,139.963857 L58.9382703,123.128626 C58.9382703,122.215529 59.6807097,121.473637 60.5944814,121.473637 L60.5944814,121.473637 C61.508253,121.473637 62.2506924,122.215529 62.2506924,123.128626 L62.2506924,139.963857 C62.1935817,140.876954 61.4511423,141.618845 60.5944814,141.618845 Z" id="Path" fill="#FFFFFF" opacity="0.35"></path>
                    <path d="M65.6202253,166.101265 L65.6202253,166.101265 C64.7064537,166.101265 63.9640142,165.359374 63.9640142,164.446276 L63.9640142,159.024761 C63.9640142,158.111664 64.7064537,157.369773 65.6202253,157.369773 L65.6202253,157.369773 C66.533997,157.369773 67.2764364,158.111664 67.2764364,159.024761 L67.2764364,164.446276 C67.2764364,165.359374 66.533997,166.101265 65.6202253,166.101265 Z" id="Path" fill="#FFFFFF" opacity="0.35"></path>
                    <path d="M60.5944814,147.04036 L60.5944814,147.04036 C59.6807097,147.04036 58.9382703,146.298469 58.9382703,145.385371 L58.9382703,145.385371 C58.9382703,144.472274 59.6807097,143.730383 60.5944814,143.730383 L60.5944814,143.730383 C61.508253,143.730383 62.2506924,144.472274 62.2506924,145.385371 L62.2506924,145.385371 C62.1935817,146.298469 61.4511423,147.04036 60.5944814,147.04036 Z" id="Path" fill="#FFFFFF" opacity="0.35"></path>
                    <path d="M73.1017306,87.6319711 L51.0569899,87.6319711 L50.4858827,105.266162 L54.1980799,104.695476 L54.1980799,92.9393488 C54.1980799,92.0262515 54.9405194,91.28436 55.854291,91.28436 L56.3682876,91.28436 L56.3682876,95.1650233 C56.3682876,96.0781205 57.0536163,96.8770806 57.9102772,96.8770806 C58.8811595,96.9341492 59.623599,96.1922577 59.623599,95.2220919 L59.623599,93.6812403 C59.623599,92.3115944 60.7087028,91.2272915 62.0793603,91.2272915 L73.0446198,91.2272915 L73.0446198,87.6319711 L73.1017306,87.6319711 Z" id="Path" fill="#FFFFFF" opacity="0.35"></path>
                    <path d="M92.6907099,152.633081 L92.6907099,137.509908 C92.6907099,136.083193 93.8329245,134.884753 95.3178034,134.884753 L184.124984,134.884753 L184.124984,131.517707 L88.8071805,131.517707 L88.8071805,153.774452 L92.6907099,152.633081 Z" id="Path" fill="#FFFFFF" opacity="0.35"></path>
                    <rect id="Rectangle" fill="#FFFFFF" opacity="0.35" x="88.1789625" y="161.764053" width="4.68307961" height="36.5238895"></rect>
                    <path d="M109.823928,147.496909 C110.909032,147.496909 110.909032,145.784851 109.823928,145.784851 C108.738824,145.784851 108.738824,147.496909 109.823928,147.496909 L109.823928,147.496909 Z" id="Path" fill="#FFE880"></path>
                    <rect id="Rectangle" fill="#FFFFFF" opacity="0.35" x="193.205589" y="130.947021" width="33.6953289" height="3.99480042"></rect>
                    <path d="M184.124984,188.700422 L184.124984,199.543451 L88.8071805,199.543451 L88.1789625,186.474747 C89.2069556,193.893662 143.633478,196.40468 184.124984,188.700422 Z" id="Path" fill="#000000" opacity="0.05"></path>
                    <path d="M227.529136,162.905425 C227.529136,180.425478 227.529136,199.543451 227.529136,199.543451 L194.404915,199.543451 L194.404915,186.474747 C213.537008,181.623918 227.529136,173.976729 227.529136,162.905425 Z" id="Path" fill="#000000" opacity="0.05"></path>
                    <rect id="Rectangle" fill="#FFFFFF" opacity="0.5" x="87.036748" y="153.203767" width="95.9460214" height="3.5382518"></rect>
                    <rect id="Rectangle" fill="#FFFFFF" opacity="0.5" x="194.404915" y="153.203767" width="34.8375435" height="3.5382518"></rect>
                    <path d="M187.151852,151.491709 L187.151852,133.40097 C187.151852,132.487873 187.894292,131.745981 188.808063,131.745981 L193.491143,131.745981 L192.348929,129.177895 L184.696091,129.919787 L184.696091,152.176532 L187.151852,151.491709 Z" id="Path" fill="#FFFFFF" opacity="0.5"></path>
                    <rect id="Rectangle" fill="#FFFFFF" opacity="0.5" x="184.124984" y="164.046796" width="2.9697578" height="35.9532038"></rect>
                    <path d="M186.123859,162.67715 L186.123859,156.399607 C186.123859,155.771853 186.637856,155.201167 187.323185,155.201167 L194.462025,155.201167 L193.319811,152.975492 L182.354551,152.404806 L183.096991,163.304905 L186.123859,162.67715 Z" id="Path" fill="#FFFFFF" opacity="0.5"></path>
                    <rect id="Rectangle" fill="#000000" opacity="0.25" x="107.59661" y="57.3285565" width="40.377284" height="5.13617197"></rect>
                    <rect id="Rectangle" fill="#000000" opacity="0.25" x="170.818184" y="57.3285565" width="40.377284" height="5.13617197"></rect>
                    <rect id="Rectangle" fill="#000000" opacity="0.2" x="147.973894" y="56.1871849" width="22.6729586" height="5.13617197"></rect>
                    <path d="M148.145226,121.245363 L148.145226,130.947021 L107.996385,130.947021 L107.025502,119.818649 L107.59661,116.851083 C107.59661,121.75898 126.50026,123.585175 148.145226,121.245363 Z" id="Path" fill="#000000" opacity="0.05"></path>
                    <path d="M211.538133,87.0612853 C211.538133,114.511271 211.538133,130.947021 211.538133,130.947021 L193.434032,130.947021 L192.291818,129.177895 L184.63898,129.919787 L179.09924,130.947021 L170.361299,130.947021 L170.361299,117.478837 C197.431783,112.856282 211.538133,102.355664 211.538133,87.0612853 Z" id="Path" fill="#000000" opacity="0.05"></path>
                    <path d="M106.05462,57.1002822 L106.05462,40.7216005 C106.05462,39.294886 107.196835,38.1535145 108.624603,38.1535145 L145.118357,38.1535145 L145.118357,34.5011255 L103.084862,34.5011255 L103.084862,56.1871849 L106.05462,57.1002822 Z" id="Path" fill="#FFFFFF" opacity="0.35"></path>
                    <path d="M173.787942,38.1535145 L215.935659,38.1535145 L215.935659,34.5011255 L172.759949,34.5011255 C172.702838,34.5011255 172.360174,38.1535145 173.787942,38.1535145 Z" id="Path" fill="#FFFFFF" opacity="0.35"></path>
                    <g id="Group" opacity="0.3" transform="translate(145.118357, 33.473891)" fill="#FFFFFF">
                        <polygon id="Path" points="6.39640142 27.8494658 6.39640142 97.4731302 2.28442908 97.4731302 2.28442908 27.27878 2.85553635 27.27878 2.85553635 27.8494658"></polygon>
                        <path d="M13.1354672,60.3785549 L13.1354672,60.3785549 C12.1645849,60.3785549 11.4221454,59.6366634 11.4221454,58.6664976 L11.4221454,36.5238895 C11.4221454,35.5537237 12.1645849,34.8118322 13.1354672,34.8118322 L13.1354672,34.8118322 C14.1063496,34.8118322 14.848789,35.5537237 14.848789,36.5238895 L14.848789,58.6664976 C14.848789,59.5795948 14.1063496,60.3785549 13.1354672,60.3785549 Z" id="Path"></path>
                        <path d="M19.9887545,83.2059859 L19.9887545,83.2059859 C19.0178721,83.2059859 18.2754326,82.4640944 18.2754326,81.4939285 L18.2754326,65.0581782 C18.2754326,64.0880124 19.0178721,63.3461209 19.9887545,63.3461209 L19.9887545,63.3461209 C20.9596368,63.3461209 21.7020763,64.0880124 21.7020763,65.0581782 L21.7020763,81.4939285 C21.7020763,82.4070258 20.9596368,83.2059859 19.9887545,83.2059859 Z" id="Path"></path>
                        <path d="M27.413149,0 L22.2731835,0 L18.8465399,0 L2.28442908,0 L2.28442908,0.456548619 L0,0.456548619 L0,23.2839796 L4.11197234,23.2839796 L4.11197234,6.16340636 C4.11197234,5.02203481 5.02574398,4.10893757 6.16795852,4.10893757 L17.6472146,4.10893757 C18.3325434,4.10893757 18.9036506,4.67962335 18.9036506,5.36444628 L18.9036506,8.38908088 C18.9036506,9.30217812 19.5889794,10.1582068 20.502751,10.2152754 C21.4736334,10.2723439 22.3302943,9.47338385 22.3302943,8.50321803 L22.3302943,5.42151485 C22.3302943,4.73669192 22.9014015,4.16600615 23.5867303,4.16600615 L27.4702597,4.16600615 L27.4702597,0 L27.413149,0 Z" id="Path"></path>
                    </g>
                    <ellipse id="Oval" fill="#FFFFFF" opacity="0.3" transform="translate(152.026545, 29.824007) rotate(-27.110855) translate(-152.026545, -29.824007) " cx="152.026545" cy="29.8240075" rx="2.51241209" ry="1.19858853"></ellipse>
                    <path d="M160.2527,28.3947877 C162.994015,26.9680733 167.277319,27.3675533 170.875295,30.3351194 C163.051126,20.8046669 157.054499,26.6256618 157.054499,26.6256618 L160.2527,28.3947877 Z" id="Path" fill="#FFFFFF" opacity="0.3"></path>
                    <path d="M146.945901,26.2261818 C144.090364,3.68409372 128.156471,0.830664849 124.672717,0.431184807 C120.846298,-0.538981009 120.846298,0.431184807 120.846298,0.431184807 L123.473392,8.59199138 L135.523755,20.6334612 L145.118357,26.9680733 L146.945901,26.2261818 Z" id="Path" fill="#000000" opacity="0.25"></path>
                    <path d="M172.188842,26.2261818 C175.044378,3.68409372 190.978271,0.830664849 194.462025,0.431184807 C198.288444,-0.538981009 198.288444,0.431184807 198.288444,0.431184807 L195.661351,8.59199138 L183.610987,20.6334612 L174.016385,26.9680733 L172.188842,26.2261818 Z" id="Path" fill="#000000" opacity="0.25"></path>
                    <path d="M121.931402,32.8461368 C114.963893,27.8811705 124.615606,15.4972892 135.92353,22.3455185 C123.644724,10.2469801 122.274067,7.05113979 119.190087,2.88513364 C122.959395,15.3831521 107.025502,2.65685933 108.910156,15.7826321 C110.223703,25.1989474 121.931402,32.8461368 121.931402,32.8461368 Z" id="Path" fill="#FFFFFF" opacity="0.3"></path>
                    <path d="M86.808305,21.4324213 C86.7511943,19.0926096 93.4331494,19.0926096 97.6022324,19.720364 C98.8015577,19.8915697 99.7724401,18.6931296 99.3155543,17.551758 C98.4017826,15.2119464 97.9448968,13.499889 97.7735646,12.1873118 C97.6022324,10.8176659 99.2013328,9.84750008 100.286437,10.7605973 C103.141973,13.100409 106.454395,14.8695349 108.339049,15.1548778 C108.167717,13.2716147 107.253945,12.8721347 107.253945,12.8721347 L94.346921,0.602390539 C94.346921,0.602390539 89.7780628,3.62702514 95.0322497,14.3559177 C90.4633916,13.6710948 84.0669901,13.9564377 82.5821112,17.8371009 C84.1241009,19.2638154 86.808305,21.4324213 86.808305,21.4324213 Z" id="Path" fill="#FFFFFF" opacity="0.3"></path>
                    <path d="M196.40379,32.8461368 C203.371299,27.8811705 193.719586,15.4972892 182.411662,22.3455185 C194.690468,10.2469801 196.061126,7.05113979 199.145105,2.88513364 C195.375797,15.3831521 211.30969,2.65685933 209.425036,15.7826321 C208.111489,25.1989474 196.40379,32.8461368 196.40379,32.8461368 Z" id="Path" fill="#FFFFFF" opacity="0.3"></path>
                    <path d="M210.852804,15.4402207 C214.051005,13.8993691 217.648981,11.2171459 219.93341,9.16267715 C220.675849,8.47785422 221.875174,9.04854 221.818064,10.0757744 C221.703842,13.1574776 221.075624,16.1821122 221.075624,16.1821122 C221.075624,16.1821122 228.785572,10.4752544 223.360053,1.85789924 C216.335434,6.48045401 210.795693,12.7009289 210.795693,12.7009289 L210.795693,15.4402207 L210.852804,15.4402207 Z" id="Path" fill="#FFFFFF" opacity="0.3"></path>
                    <path d="M221.989396,17.6088266 C225.47315,19.2067468 228.271576,16.8098665 232.669102,20.4622555 C238.208842,14.0705748 224.844932,14.0705748 221.989396,17.6088266 Z" id="Path" fill="#FFFFFF" opacity="0.3"></path>
                </g>
                <g id="lines" stroke-linecap="round" stroke-linejoin="round">
                    <line x1="291.580349" y1="205.428898" x2="7.13957759" y2="205.428898" id="Path" stroke="#0B3B6B" stroke-width="3"></line>
                    <line x1="311" y1="205.428898" x2="298.434343" y2="205.428898" id="Path" stroke="#0B3B6B" stroke-width="3"></line>
                    <line x1="0.285583104" y1="205.428898" x2="0.285583104" y2="205.428898" id="Path" stroke="#0B3B6B" stroke-width="6"></line>
                    <path d="M234.463728,136.89662 L266.449036,136.89662 C267.705601,136.89662 268.733701,137.924604 268.733701,139.181029 L268.733701,159.740712" id="Path" stroke="#0B3B6B" stroke-width="3"></path>
                    <path d="M129.369146,159.740712 L129.369146,139.181029 C129.369146,137.924604 130.397245,136.89662 131.653811,136.89662 L225.325069,136.89662" id="Path" stroke="#0B3B6B" stroke-width="3"></path>
                    <path d="M268.733701,168.878349 L268.733701,203.144488 C268.733701,204.400914 267.705601,205.428898 266.449036,205.428898 L131.653811,205.428898 C130.397245,205.428898 129.369146,204.400914 129.369146,203.144488 L129.369146,168.878349" id="Path" stroke="#0B3B6B" stroke-width="3"></path>
                    <line x1="225.325069" y1="205.428898" x2="225.325069" y2="170.020554" id="Path" stroke="#0B3B6B" stroke-width="3"></line>
                    <path d="M225.325069,158.598508 L225.325069,136.89662 C225.325069,135.640194 226.353168,134.61221 227.609734,134.61221 L232.179063,134.61221 C233.435629,134.61221 234.463728,135.640194 234.463728,136.89662 L234.463728,158.598508" id="Path" stroke="#0B3B6B" stroke-width="3"></path>
                    <line x1="234.463728" y1="205.428898" x2="234.463728" y2="170.020554" id="Path" stroke="#0B3B6B" stroke-width="3"></line>
                    <path d="M224.182736,168.878349 L129.369146,168.878349 C128.11258,168.878349 127.084481,167.850365 127.084481,166.59394 L127.084481,162.025122 C127.084481,160.768696 128.11258,159.740712 129.369146,159.740712 L224.182736,159.740712" id="Path" stroke="#0B3B6B" stroke-width="3"></path>
                    <path d="M235.606061,159.740712 L268.733701,159.740712 C269.990266,159.740712 271.018365,160.768696 271.018365,162.025122 L271.018365,166.59394 C271.018365,167.850365 269.990266,168.878349 268.733701,168.878349 L235.606061,168.878349" id="Path" stroke="#0B3B6B" stroke-width="3"></path>
                    <path d="M234.463728,170.020554 L225.325069,170.020554 C224.696786,170.020554 224.182736,169.506562 224.182736,168.878349 L224.182736,159.740712 C224.182736,159.1125 224.696786,158.598508 225.325069,158.598508 L234.463728,158.598508 C235.092011,158.598508 235.606061,159.1125 235.606061,159.740712 L235.606061,168.878349 C235.606061,169.506562 235.092011,170.020554 234.463728,170.020554 Z" id="Path" stroke="#0B3B6B" stroke-width="3"></path>
                    <path d="M255.025712,39.8092255 L145.3618,39.8092255 C144.105234,39.8092255 143.077135,40.8372097 143.077135,42.0936348 L143.077135,60.3689089 C143.077135,61.625334 144.105234,62.6533182 145.3618,62.6533182 L255.025712,62.6533182 C256.282277,62.6533182 257.310376,61.625334 257.310376,60.3689089 L257.310376,42.0936348 C257.310376,40.8372097 256.282277,39.8092255 255.025712,39.8092255 Z" id="Path" stroke="#0B3B6B" stroke-width="3"></path>
                    <line x1="148.788797" y1="62.6533182" x2="148.788797" y2="136.89662" id="Path" stroke="#0B3B6B" stroke-width="3"></line>
                    <line x1="251.598714" y1="62.6533182" x2="251.598714" y2="136.89662" id="Path" stroke="#0B3B6B" stroke-width="3"></line>
                    <path d="M213.901745,62.6533182 L213.901745,39.8092255 C208.018733,26.2169903 199.908173,29.9862656 197.509275,32.6133363" id="Path" stroke="#0B3B6B" stroke-width="3"></path>
                    <line x1="188.770432" y1="62.6533182" x2="188.770432" y2="136.89662" id="Path" stroke="#0B3B6B" stroke-width="3"></line>
                    <line x1="211.61708" y1="62.6533182" x2="211.61708" y2="136.89662" id="Path" stroke="#0B3B6B" stroke-width="3"></line>
                    <path d="M201.164738,34.7835251 C193.739578,28.5013996 186.485767,34.6121944 186.485767,39.8092255 L186.485767,62.6533182" id="Path" stroke="#0B3B6B" stroke-width="3"></path>
                    <path d="M189.170248,34.269533 C185.514784,17.3649044 174.60551,4.51510224 163.067952,5.65730687 C157.641873,6.17129896 169.921947,25.4745573 189.170248,34.269533 Z" id="Path" stroke="#0B3B6B" stroke-width="3"></path>
                    <path d="M159.184022,39.8092255 C139.878604,39.8092255 124.342883,24.3894629 124.342883,24.3894629 C126.913131,21.4197308 129.483379,19.9348648 136.622957,21.8766127 C133.081726,16.3369202 133.767126,11.3112198 136.108907,7.1421729 C139.650138,10.5687868 145.818733,17.022243 149.531313,18.6784397" id="Path" stroke="#0B3B6B" stroke-width="3"></path>
                    <path d="M173.120478,30.9571396 C175.862075,34.8406353 183.744169,39.0667925 186.485767,39.8092255" id="Path" stroke="#0B3B6B" stroke-width="3"></path>
                    <path d="M170.55023,34.7264149 C172.035262,36.6681627 177.632691,39.8092255 183.687052,39.8092255" id="Path" stroke="#0B3B6B" stroke-width="3"></path>
                    <path d="M184.143985,31.6424623 C183.05877,28.2158484 181.687971,25.0747857 180.088705,22.2763843" id="Path" stroke="#0B3B6B" stroke-width="3"></path>
                    <path d="M193.225528,32.2706749 C188.941781,1.60248042 163.810468,-3.19477905 158.384389,1.60248042 C152.95831,6.34262966 148.274747,15.7087077 149.702663,22.6190457 C151.130579,29.586494 159.241139,39.8092255 168.265565,39.8092255" id="Path" stroke="#0B3B6B" stroke-width="3"></path>
                    <path d="M211.217264,34.269533 C214.872727,17.3649044 225.782002,4.51510224 237.319559,5.65730687 C242.802755,6.17129896 230.465565,25.4745573 211.217264,34.269533 Z" id="Path" stroke="#0B3B6B" stroke-width="3"></path>
                    <path d="M241.260606,39.8092255 C260.566024,39.8092255 276.101745,24.3894629 276.101745,24.3894629 C273.531497,21.4197308 270.961249,19.9348648 263.821671,21.8766127 C267.362902,16.3369202 266.677502,11.3112198 264.335721,7.1421729 C260.79449,10.5687868 254.625895,17.022243 250.913315,18.6784397" id="Path" stroke="#0B3B6B" stroke-width="3"></path>
                    <path d="M213.901745,39.8092255 C215.900826,39.2381232 220.527273,36.9537139 224.011387,34.2124228" id="Path" stroke="#0B3B6B" stroke-width="3"></path>
                    <path d="M232.007713,33.0702181 C229.151882,36.4397218 222.811938,39.8092255 216.757576,39.8092255" id="Path" stroke="#0B3B6B" stroke-width="3"></path>
                    <line x1="222.126538" y1="19.5350932" x2="222.126538" y2="19.5350932" id="Path" stroke="#0B3B6B" stroke-width="3"></line>
                    <path d="M220.355923,22.3334946 C218.699541,25.1318959 217.328742,28.2729587 216.300643,31.6995726" id="Path" stroke="#0B3B6B" stroke-width="3"></path>
                    <path d="M207.333333,31.1855805 C212.016896,1.48825995 236.63416,-3.13766882 242.003122,1.60248042 C247.429201,6.34262966 252.112764,15.7087077 250.684848,22.6190457 C249.256933,29.586494 241.146373,39.8092255 232.121947,39.8092255" id="Path" stroke="#0B3B6B" stroke-width="3"></path>
                    <path d="M148.788797,111.768118 L42.5518825,111.768118 C41.2953168,111.768118 40.2672176,110.740133 40.2672176,109.483708 L40.2672176,95.7772526 C40.2672176,94.5208275 41.2953168,93.4928434 42.5518825,93.4928434 L148.788797,93.4928434" id="Path" stroke="#0B3B6B" stroke-width="3"></path>
                    <line x1="48.2635445" y1="111.768118" x2="48.2635445" y2="205.428898" id="Path" stroke="#0B3B6B" stroke-width="3"></line>
                    <line x1="114.518825" y1="93.4928434" x2="114.518825" y2="111.768118" id="Path" stroke="#0B3B6B" stroke-width="3"></line>
                    <line x1="91.6721763" y1="93.4928434" x2="91.6721763" y2="111.768118" id="Path" stroke="#0B3B6B" stroke-width="3"></line>
                    <line x1="93.9568411" y1="205.428898" x2="93.9568411" y2="111.768118" id="Path" stroke="#0B3B6B" stroke-width="3"></line>
                    <line x1="112.23416" y1="205.428898" x2="112.23416" y2="111.768118" id="Path" stroke="#0B3B6B" stroke-width="3"></line>
                    <path d="M112.23416,93.4928434 C115.375574,88.0673713 108.807163,80.9285924 103.838017,84.1267654 C102.809917,84.7549779 102.010285,85.8400723 101.553352,87.4391588" id="Path" stroke="#0B3B6B" stroke-width="3"></path>
                    <path d="M103.838017,84.1267654 C96.984022,79.9577184 89.9015611,84.8691984 92.8716253,93.4928434" id="Path" stroke="#0B3B6B" stroke-width="3"></path>
                    <path d="M85.389348,93.4928434 C69.9678604,93.4928434 60.8292011,83.6127733 59.9724518,79.615057 C59.1157025,75.6173408 64.0848485,67.6219084 69.3966942,65.794381 C74.7085399,63.9668535 85.7891644,74.3609157 93.9568411,84.6407574 C85.6178145,57.7418383 69.9107438,45.0633668 82.1908173,72.0193962" id="Path" stroke="#0B3B6B" stroke-width="3"></path>
                    <path d="M106.865197,83.3272221 C107.093664,67.9074595 101.096419,47.8046579 95.4989899,46.9480045 C91.5579431,46.3197919 80.5344353,52.0879253 77.8499541,57.5133973" id="Path" stroke="#0B3B6B" stroke-width="3"></path>
                    <path d="M112.177043,87.1536076 C121.829752,79.4437263 132.16786,71.3911837 136.794307,74.0182543 C138.964738,75.2746794 143.191368,83.8983244 140.906703,87.3249383 C138.622039,90.7515522 132.453444,93.4928434 121.087236,93.4928434" id="Path" stroke="#0B3B6B" stroke-width="3"></path>
                    <path d="M112.119927,87.0393872 C125.428099,64.1952945 144.447934,51.3454923 128.96933,75.2175692" id="Path" stroke="#0B3B6B" stroke-width="3"></path>
                    <path d="M105.894215,70.8200813 C109.435445,59.9120271 115.147107,50.2032877 119.088154,50.2032877 C124.0573,50.2032877 132.796143,58.9982634 134.509642,62.6533182" id="Path" stroke="#0B3B6B" stroke-width="3"></path>
                    <path d="M71.3957759,93.4928434 C42.6089991,93.4928434 27.8729109,83.8983244 34.9553719,66.4797037 C40.2672176,53.4585709 48.4348944,62.8246489 43.522865,69.9063176 C36.2119376,80.4717105 18.1059688,68.0787902 29.9291093,48.6613114" id="Path" stroke="#0B3B6B" stroke-width="3"></path>
                    <path d="M50.2055096,93.4928434 C30.3289256,89.209576 21.0760331,113.024543 10.395225,96.0628038" id="Path" stroke="#0B3B6B" stroke-width="3"></path>
                    <g id="Group" opacity="0" transform="translate(48.263545, 111.768118)" stroke-width="3">
                        <line x1="34.2699725" y1="0" x2="0" y2="34.2661391" id="Path" stroke="#0B3B6B"></line>
                        <line x1="45.6932966" y1="0" x2="0" y2="45.6881854" id="Path" stroke="#0B3B6B"></line>
                        <line x1="45.6932966" y1="34.2661391" x2="0" y2="79.9543245" id="Path" stroke="#0B3B6B"></line>
                        <line x1="79.9632691" y1="0" x2="63.9706152" y2="15.9908649" id="Path" stroke="#8A76AE"></line>
                        <line x1="45.6932966" y1="45.6881854" x2="0" y2="91.3763709" id="Path" stroke="#0B3B6B"></line>
                        <line x1="91.3865932" y1="0" x2="63.9706152" y2="27.4129113" id="Path" stroke="#0B3B6B"></line>
                        <line x1="45.6932966" y1="79.9543245" x2="31.9853076" y2="93.6607801" id="Path" stroke="#0B3B6B"></line>
                        <line x1="81.1056015" y1="44.5459808" x2="63.9706152" y2="61.6790503" id="Path" stroke="#0B3B6B"></line>
                        <line x1="80.1917355" y1="56.8817909" x2="63.9706152" y2="73.1010967" id="Path" stroke="#0B3B6B"></line>
                    </g>
                    <g id="Group" opacity="0" transform="translate(144.219467, 40.380328)" stroke="#0B3B6B" stroke-width="3">
                        <ellipse id="Oval" cx="87.3884298" cy="45.1170831" rx="3.42699725" ry="3.42661391"></ellipse>
                        <ellipse id="Oval" cx="87.3884298" cy="73.672199" rx="3.42699725" ry="3.42661391"></ellipse>
                        <ellipse id="Oval" cx="104.523416" cy="30.8395252" rx="3.42699725" ry="3.42661391"></ellipse>
                        <ellipse id="Oval" cx="104.523416" cy="59.3946411" rx="3.42699725" ry="3.42661391"></ellipse>
                        <ellipse id="Oval" cx="104.523416" cy="87.949757" rx="3.42699725" ry="3.42661391"></ellipse>
                        <ellipse id="Oval" cx="70.2534435" cy="30.8395252" rx="3.42699725" ry="3.42661391"></ellipse>
                        <ellipse id="Oval" cx="70.2534435" cy="59.3946411" rx="3.42699725" ry="3.42661391"></ellipse>
                        <ellipse id="Oval" cx="70.2534435" cy="87.949757" rx="3.42699725" ry="3.42661391"></ellipse>
                        <ellipse id="Oval" cx="24.5601469" cy="45.1170831" rx="3.42699725" ry="3.42661391"></ellipse>
                        <ellipse id="Oval" cx="24.5601469" cy="73.672199" rx="3.42699725" ry="3.42661391"></ellipse>
                        <ellipse id="Oval" cx="41.6951331" cy="30.8395252" rx="3.42699725" ry="3.42661391"></ellipse>
                        <ellipse id="Oval" cx="41.6951331" cy="59.3946411" rx="3.42699725" ry="3.42661391"></ellipse>
                        <ellipse id="Oval" cx="41.6951331" cy="87.949757" rx="3.42699725" ry="3.42661391"></ellipse>
                        <ellipse id="Oval" cx="7.4251607" cy="30.8395252" rx="3.42699725" ry="3.42661391"></ellipse>
                        <ellipse id="Oval" cx="7.4251607" cy="59.3946411" rx="3.42699725" ry="3.42661391"></ellipse>
                        <ellipse id="Oval" cx="7.4251607" cy="87.949757" rx="3.42699725" ry="3.42661391"></ellipse>
                        <ellipse id="Oval" cx="20.5619835" cy="3.42661391" rx="3.42699725" ry="3.42661391"></ellipse>
                        <ellipse id="Oval" cx="37.6969697" cy="17.7041719" rx="3.42699725" ry="3.42661391"></ellipse>
                        <ellipse id="Oval" cx="3.42699725" cy="17.7041719" rx="3.42699725" ry="3.42661391"></ellipse>
                        <ellipse id="Oval" cx="91.3865932" cy="17.7041719" rx="3.42699725" ry="3.42661391"></ellipse>
                        <ellipse id="Oval" cx="74.251607" cy="3.42661391" rx="3.42699725" ry="3.42661391"></ellipse>
                        <ellipse id="Oval" cx="108.521579" cy="3.42661391" rx="3.42699725" ry="3.42661391"></ellipse>
                    </g>
                    <line x1="192.026079" y1="48.4899807" x2="192.026079" y2="53.1730197" id="Path" stroke="#0B3B6B" stroke-width="3"></line>
                    <line x1="195.453076" y1="45.120477" x2="195.453076" y2="56.5425234" id="Path" stroke="#0B3B6B" stroke-width="3"></line>
                    <line x1="197.737741" y1="115.994275" x2="197.737741" y2="110.854354" id="Path" stroke="#0B3B6B" stroke-width="3"></line>
                    <line x1="197.737741" y1="107.998842" x2="197.737741" y2="88.467143" id="Path" stroke="#0B3B6B" stroke-width="3"></line>
                    <line x1="201.164738" y1="79.3866161" x2="201.164738" y2="95.377481" id="Path" stroke="#0B3B6B" stroke-width="3"></line>
                    <line x1="204.591736" y1="118.792676" x2="204.591736" y2="129.64362" id="Path" stroke="#0B3B6B" stroke-width="3"></line>
                    <path d="M120.230487,60.4831294 C120.230487,60.4831294 122.343802,57.1136257 126.570432,53.8012323" id="Path" stroke="#0B3B6B" stroke-width="3"></path>
                    <path d="M120.230487,55.3432085 C120.973003,54.3723346 122.343802,53.0587993 123.88595,51.9165946" id="Path" stroke="#0B3B6B" stroke-width="3"></path>
                    <path d="M110.634894,76.8166557 C109.206979,78.4728524 108.064646,80.0719389 106.865197,83.3272221" id="Path" stroke="#0B3B6B" stroke-width="3"></path>
                    <path d="M99.2115702,76.5311045 C100.011203,78.3586319 100.753719,80.8143719 101.039302,82.9274505" id="Path" stroke="#0B3B6B" stroke-width="3"></path>
                    <line x1="97.6694215" y1="73.8469236" x2="97.6694215" y2="73.8469236" id="Path" stroke="#0B3B6B" stroke-width="3"></line>
                    <path d="M90.5869605,47.9188784 C92.014876,48.4899807 94.2424242,51.0028309 94.8707071,52.259256" id="Path" stroke="#0B3B6B" stroke-width="3"></path>
                    <line x1="88.0738292" y1="86.1827337" x2="92.1862259" y2="88.4100327" id="Path" stroke="#0B3B6B" stroke-width="3"></line>
                    <line x1="88.9305785" y1="89.7235681" x2="91.6721763" y2="90.8657727" id="Path" stroke="#0B3B6B" stroke-width="3"></line>
                    <path d="M135.309275,87.0393872 C136.90854,86.1827337 139.307438,84.526537 141.249403,82.1279072" id="Path" stroke="#0B3B6B" stroke-width="3"></path>
                    <path d="M70.5390266,70.1918688 C69.6822773,69.506546 67.0549128,68.1359005 65.9125803,67.8503493" id="Path" stroke="#0B3B6B" stroke-width="3"></path>
                    <line x1="109.035629" y1="89.8948988" x2="113.033792" y2="89.8948988" id="Path" stroke="#0B3B6B" stroke-width="3"></line>
                    <line x1="109.035629" y1="100.517402" x2="109.035629" y2="106.171315" id="Path" stroke="#0B3B6B" stroke-width="3"></line>
                    <line x1="106.808081" y1="119.363778" x2="106.808081" y2="132.09936" id="Path" stroke="#0B3B6B" stroke-width="3"></line>
                    <line x1="103.381084" y1="129.64362" x2="103.381084" y2="138.838367" id="Path" stroke="#0B3B6B" stroke-width="3"></line>
                    <line x1="103.381084" y1="181.157049" x2="103.381084" y2="191.722442" id="Path" stroke="#0B3B6B" stroke-width="3"></line>
                    <line x1="148.388981" y1="34.2124228" x2="148.388981" y2="34.2124228" id="Path" stroke="#0B3B6B" stroke-width="3"></line>
                    <path d="M140.678237,30.7858089 C141.649219,31.5282419 143.819651,32.6133363 145.761616,33.3557693" id="Path" stroke="#0B3B6B" stroke-width="3"></path>
                    <path d="M257.310376,19.9348648 C255.768228,21.5339513 252.34123,23.3614787 250.227916,24.1039117" id="Path" stroke="#0B3B6B" stroke-width="3"></path>
                    <g id="Group" transform="translate(147.417998, 144.320950)" stroke="#FFE880" stroke-width="3">
                        <g transform="translate(45.693297, 43.974878)" id="Path">
                            <line x1="0" y1="5.82524364" x2="4.85491276" y2="0.97087394"></line>
                            <line x1="0" y1="0.97087394" x2="4.85491276" y2="5.82524364"></line>
                            <line x1="2.45601469" y1="0" x2="2.45601469" y2="6.85322782"></line>
                        </g>
                        <g transform="translate(0.000000, 32.552832)" id="Path">
                            <line x1="0" y1="5.82524364" x2="4.85491276" y2="0.97087394"></line>
                            <line x1="0" y1="0.97087394" x2="4.85491276" y2="5.82524364"></line>
                            <line x1="2.45601469" y1="0" x2="2.45601469" y2="6.85322782"></line>
                        </g>
                        <g transform="translate(31.414141, 0.000000)" id="Path">
                            <line x1="0" y1="5.82524364" x2="4.85491276" y2="0.97087394"></line>
                            <line x1="0" y1="0.97087394" x2="4.85491276" y2="5.82524364"></line>
                            <line x1="2.45601469" y1="0" x2="2.45601469" y2="6.85322782"></line>
                        </g>
                        <g transform="translate(99.954086, 0.000000)" id="Path">
                            <line x1="0" y1="5.82524364" x2="4.85491276" y2="0.97087394"></line>
                            <line x1="0" y1="0.97087394" x2="4.85491276" y2="5.82524364"></line>
                            <line x1="2.45601469" y1="0" x2="2.45601469" y2="6.85322782"></line>
                        </g>
                        <g transform="translate(106.808081, 35.979446)" id="Path">
                            <line x1="0" y1="5.82524364" x2="4.85491276" y2="0.97087394"></line>
                            <line x1="0" y1="0.97087394" x2="4.85491276" y2="5.82524364"></line>
                            <line x1="2.45601469" y1="0" x2="2.45601469" y2="6.85322782"></line>
                        </g>
                    </g>
                    <g id="Group" opacity="0" transform="translate(139.021855, 142.036540)" stroke="#0B3B6B" stroke-width="3">
                        <ellipse id="Oval" cx="26.8448118" cy="50.257004" rx="2.28466483" ry="2.28440927"></ellipse>
                        <ellipse id="Oval" cx="2.28466483" cy="54.8258225" rx="2.28466483" ry="2.28440927"></ellipse>
                        <ellipse id="Oval" cx="39.4104683" cy="29.1262182" rx="2.28466483" ry="2.28440927"></ellipse>
                        <ellipse id="Oval" cx="73.6804408" cy="35.4083437" rx="2.28466483" ry="2.28440927"></ellipse>
                        <ellipse id="Oval" cx="74.8227732" cy="10.3940622" rx="2.28466483" ry="2.28440927"></ellipse>
                        <ellipse id="Oval" cx="6.28282828" cy="2.28440927" rx="2.28466483" ry="2.28440927"></ellipse>
                        <ellipse id="Oval" cx="122.800735" cy="11.4220464" rx="2.28466483" ry="2.28440927"></ellipse>
                        <ellipse id="Oval" cx="127.370064" cy="29.1262182" rx="2.28466483" ry="2.28440927"></ellipse>
                        <ellipse id="Oval" cx="105.094582" cy="54.8258225" rx="2.28466483" ry="2.28440927"></ellipse>
                        <ellipse id="Oval" cx="79.3921028" cy="61.6790503" rx="2.28466483" ry="2.28440927"></ellipse>
                    </g>
                    <line x1="224.182736" y1="163.567098" x2="218.985124" y2="163.567098" id="Path" stroke="#0B3B6B" stroke-width="3"></line>
                    <line x1="239.832691" y1="165.280405" x2="235.606061" y2="165.280405" id="Path" stroke="#0B3B6B" stroke-width="3"></line>
                    <line x1="230.751148" y1="199.146772" x2="230.751148" y2="205.543118" id="Path" stroke="#0B3B6B" stroke-width="3"></line>
                    <line x1="131.768044" y1="163.567098" x2="128.226814" y2="163.567098" id="Path" stroke="#0B3B6B" stroke-width="3"></line>
                    <line x1="230.751148" y1="139.181029" x2="230.751148" y2="145.291824" id="Path" stroke="#0B3B6B" stroke-width="3"></line>
                </g>
            </g>
        </g>
    </g>
</svg>