<?xml version="1.0" standalone="no"?>
<!DOCTYPE svg PUBLIC "-//W3C//DTD SVG 20010904//EN"
 "http://www.w3.org/TR/2001/REC-SVG-20010904/DTD/svg10.dtd">
<svg version="1.0" xmlns="http://www.w3.org/2000/svg"
 width="64.000000pt" height="64.000000pt" viewBox="0 0 64.000000 64.000000"
 preserveAspectRatio="xMidYMid meet">

<g transform="translate(0.000000,64.000000) scale(0.100000,-0.100000)"
fill="#000000" stroke="none">
<path d="M264 632 c-13 -8 -44 -66 -44 -82 0 -6 35 -10 93 -10 129 0 126 5
129 -195 2 -94 7 -160 13 -162 12 -4 135 264 135 294 0 27 5 24 -158 100 -137
64 -149 68 -168 55z"/>
<path d="M56 498 c-23 -33 -23 -443 0 -476 15 -21 21 -22 178 -22 113 0 166 4
174 12 17 17 17 479 0 496 -8 8 -61 12 -174 12 -157 0 -163 -1 -178 -22z"/>
</g>
</svg>
