<svg xmlns="http://www.w3.org/2000/svg" width="12" height="21" viewBox="0 0 12 21">
    <g fill="none" fill-rule="evenodd">
        <g fill="#FFF" fill-rule="nonzero">
            <g>
                <path d="M39.537 75.083l-9.245-9.137c-.187-.183-.292-.434-.292-.696 0-.261.105-.512.292-.696l9.245-9.137c.567-.556 1.475-.556 2.041 0 .27.266.422.63.422 1.008 0 .38-.152.743-.422 1.008L33.67 65.25l7.91 7.815c.269.267.42.63.42 1.009 0 .379-.151.742-.42 1.008-.567.557-1.475.557-2.042 0" transform="translate(-30.000000, -55.000000)"/>
            </g>
        </g>
    </g>
</svg>
