<svg xmlns="http://www.w3.org/2000/svg" width="14" height="14" viewBox="0 0 14 14">
    <g fill="none" fill-rule="evenodd">
        <g fill="#3EC0C5" fill-rule="nonzero">
            <g>
                <g>
                    <g>
                        <path d="M4.625 14.031l3.688-1.562c.052-.021.104-.052.156-.094l6.203-6.219c.219-.218.328-.484.328-.797 0-.312-.11-.578-.328-.796l-1.235-1.235C13.22 3.11 12.954 3 12.642 3c-.313 0-.579.11-.797.328L5.64 9.531c-.052.052-.089.11-.11.172L3.97 13.375c-.084.208-.047.39.11.547.155.156.338.193.546.11zm8.281-7.703l-1.234-1.234.969-.969 1.234 1.234-.969.97zM5.61 12.391l.907-2.141 4.359-4.36 1.234 1.235-4.359 4.36-2.14.906zM14.438 17c.156 0 .289-.055.398-.164.11-.11.164-.242.164-.398 0-.157-.055-.29-.164-.399-.11-.11-.242-.164-.399-.164H1.563c-.157 0-.29.055-.399.164-.11.11-.164.242-.164.398 0 .157.055.29.164.399.11.11.242.164.399.164h12.874z" transform="translate(-294.000000, -175.000000) translate(-33.000000, 0.000000) translate(0.000000, 170.000000) translate(326.000000, 2.000000)"/>
                    </g>
                </g>
            </g>
        </g>
    </g>
</svg>
