<svg xmlns="http://www.w3.org/2000/svg" xmlns:xlink="http://www.w3.org/1999/xlink" width="12" height="12" viewBox="0 0 12 12">
    <defs>
        <path id="uayk9txdaa" d="M0 0H12V12H0z"/>
    </defs>
    <g fill="none" fill-rule="evenodd">
        <g>
            <g>
                <g>
                    <g>
                        <g transform="translate(-146.000000, -580.000000) translate(0.000000, 103.000000) translate(20.000000, 466.000000) translate(126.000000, 8.000000) translate(0.000000, 3.000000)">
                            <mask id="6qgwjutcdb" fill="#fff">
                                <use xlink:href="#uayk9txdaa"/>
                            </mask>
                            <g mask="url(#6qgwjutcdb)">
                                <path fill="#BEB6C3" d="M11.03.97c.141.14.22.331.22.53v6c0 .199-.079.39-.22.53-.14.141-.331.22-.53.22H3.31c-.397 0-.779.158-1.06.44l-1.5 1.5V1.5c0-.199.079-.39.22-.53.14-.141.331-.22.53-.22h9c.199 0 .39.079.53.22zM.44.44C.157.72 0 1.101 0 1.5v9.595c0 .074.022.146.063.208.042.062.1.11.169.138.068.029.144.036.217.021.072-.014.14-.05.191-.102l2.14-2.14c.14-.14.332-.22.53-.22h7.19c.398 0 .78-.158 1.06-.44.282-.28.44-.662.44-1.06v-6c0-.398-.158-.78-.44-1.06C11.28.157 10.899 0 10.5 0h-9C1.102 0 .72.158.44.44z"/>
                                <path fill="#362444" d="M3.53 5.03c-.14.141-.331.22-.53.22s-.39-.079-.53-.22c-.141-.14-.22-.331-.22-.53s.079-.39.22-.53c.14-.141.331-.22.53-.22s.39.079.53.22c.141.14.22.331.22.53s-.079.39-.22.53zm3 0c-.14.141-.331.22-.53.22s-.39-.079-.53-.22c-.141-.14-.22-.331-.22-.53s.079-.39.22-.53c.14-.141.331-.22.53-.22s.39.079.53.22c.141.14.22.331.22.53s-.079.39-.22.53zm3 0c-.14.141-.331.22-.53.22s-.39-.079-.53-.22c-.141-.14-.22-.331-.22-.53s.079-.39.22-.53c.14-.141.331-.22.53-.22s.39.079.53.22c.141.14.22.331.22.53s-.079.39-.22.53z"/>
                            </g>
                        </g>
                    </g>
                </g>
            </g>
        </g>
    </g>
</svg>
