<svg xmlns="http://www.w3.org/2000/svg" width="14" height="12" viewBox="0 0 14 12">
    <g fill="none" fill-rule="evenodd">
        <g fill="#FFF" fill-rule="nonzero">
            <g>
                <g>
                    <g>
                        <path d="M20.75 21c.333 0 .625-.125.875-.375s.375-.542.375-.875v-8.5c0-.333-.125-.625-.375-.875S21.083 10 20.75 10H18l-1-1h-4l-1 1H9.25c-.333 0-.625.125-.875.375S8 10.917 8 11.25v8.5c0 .333.125.625.375.875s.542.375.875.375h11.5zM15 19.25c-.958 0-1.781-.344-2.469-1.031-.687-.688-1.031-1.51-1.031-2.469 0-.958.344-1.781 1.031-2.469.688-.687 1.51-1.031 2.469-1.031.958 0 1.781.344 2.469 1.031.687.688 1.031 1.51 1.031 2.469 0 .958-.344 1.781-1.031 2.469-.688.687-1.51 1.031-2.469 1.031zm0-1.531c1.313 0 1.969-.657 1.969-1.969 0-1.313-.657-1.969-1.969-1.969-1.313 0-1.969.656-1.969 1.969 0 1.313.656 1.969 1.969 1.969z" transform="translate(-197.000000, -225.000000) translate(30.000000, 170.000000) translate(115.000000, 0.000000) translate(44.000000, 46.000000)"/>
                    </g>
                </g>
            </g>
        </g>
    </g>
</svg>
