<svg xmlns="http://www.w3.org/2000/svg" width="13" height="18" viewBox="0 0 13 18">
    <g fill="none" fill-rule="evenodd" stroke-linecap="round" stroke-linejoin="round">
        <g stroke="#636585" stroke-width="1.5">
            <g>
                <g>
                    <g>
                        <g>
                            <g>
                                <path d="M11.077 5.538C11.077 8.597 5.538 16 5.538 16S0 8.597 0 5.538C0 2.48 2.48 0 5.538 0c3.06 0 5.539 2.48 5.539 5.538z" transform="translate(-145.000000, -513.000000) translate(30.000000, 170.000000) translate(0.000000, 98.000000) translate(0.000000, 228.000000) translate(20.000000, 17.000000) translate(96.000000, 1.000000)"/>
                                <path d="M3.692 5.538c0 .66.352 1.27.923 1.6.572.33 1.275.33 1.847 0 .57-.33.923-.94.923-1.6 0-.66-.352-1.269-.923-1.598-.572-.33-1.275-.33-1.847 0-.57.33-.923.939-.923 1.598h0z" transform="translate(-145.000000, -513.000000) translate(30.000000, 170.000000) translate(0.000000, 98.000000) translate(0.000000, 228.000000) translate(20.000000, 17.000000) translate(96.000000, 1.000000)"/>
                            </g>
                        </g>
                    </g>
                </g>
            </g>
        </g>
    </g>
</svg>
