<svg xmlns="http://www.w3.org/2000/svg" width="17" height="18" viewBox="0 0 17 18">
    <g fill="none" fill-rule="evenodd" stroke-linecap="round" stroke-linejoin="round">
        <g stroke="#FFF" stroke-width="2">
            <g>
                <g>
                    <g>
                        <g>
                            <g>
                                <g>
                                    <path d="M0 3.2L1.6 3.2 14.4 3.2M12.8 3.2v11.2c0 .884-.716 1.6-1.6 1.6h-8c-.884 0-1.6-.716-1.6-1.6V3.2m2.4 0V1.6C4 .716 4.716 0 5.6 0h3.2c.884 0 1.6.716 1.6 1.6v1.6M5.6 7.2L5.6 12M8.8 7.2L8.8 12" transform="translate(-307.000000, -266.000000) translate(-33.000000, 0.000000) translate(0.000000, 170.000000) translate(0.000000, 86.000000) translate(320.000000, 0.000000) translate(10.000000, 11.000000) translate(11.000000, 0.000000)"/>
                                </g>
                            </g>
                        </g>
                    </g>
                </g>
            </g>
        </g>
    </g>
</svg>
