<svg xmlns="http://www.w3.org/2000/svg" width="18" height="20" viewBox="0 0 18 20">
    <g fill="none" fill-rule="evenodd">
        <g fill="#8988AE" fill-rule="nonzero" stroke="#9394B8">
            <g>
                <path d="M.563 18.04c.152 0 .284-.057.395-.168.112-.111.167-.243.167-.396v-7.173c.293-.2.645-.372 1.055-.519.41-.146.873-.22 1.39-.22.89 0 1.643.088 2.258.264.616.176 1.187.37 1.715.58.527.211 1.055.405 1.582.58.527.177 1.143.264 1.846.264.703 0 1.348-.087 1.934-.263.586-.176 1.09-.37 1.512-.58.422-.211.75-.405.985-.58l.351-.264V0l-.369.264c-.246.176-.589.369-1.028.58-.44.21-.961.404-1.565.58-.604.176-1.257.264-1.96.264-.704 0-1.305-.088-1.803-.264-.498-.176-.993-.37-1.485-.58C7.05.633 6.51.44 5.925.264 5.34.088 4.601 0 3.71 0 2.56 0 1.656.29.993.87L0 1.74v15.736c0 .153.056.285.167.396.111.111.243.167.396.167zm10.408-7.913c-.55 0-1.037-.064-1.46-.193-.421-.13-.872-.293-1.353-.493-.586-.234-1.237-.46-1.952-.676-.715-.217-1.594-.326-2.637-.326-.48 0-.926.056-1.336.167-.41.112-.78.244-1.108.396V2.198c.211-.188.54-.413.985-.677.445-.264.979-.396 1.6-.396.82 0 1.497.085 2.03.255.534.17 1.047.36 1.539.572.492.21 1.014.407 1.565.589.55.181 1.213.272 1.986.272.75 0 1.448-.088 2.093-.264.644-.175 1.213-.375 1.705-.597v7.05c-.316.2-.797.437-1.442.712-.644.275-1.383.413-2.215.413z" transform="translate(-29.000000, -385.000000) translate(30.000000, 386.000000)"/>
            </g>
        </g>
    </g>
</svg>
