<svg xmlns="http://www.w3.org/2000/svg" width="20" height="17" viewBox="0 0 20 17">
    <g fill="none" fill-rule="evenodd">
        <g fill="#898FAD" fill-rule="nonzero">
            <g>
                <g>
                    <g>
                        <g>
                            <path d="M17.725 17.543c.43 0 .795-.15 1.095-.451.301-.301.451-.666.451-1.096V2.546c0-.429-.15-.794-.45-1.095-.301-.3-.667-.451-1.096-.451H1.547c-.43 0-.795.15-1.096.451-.3.301-.451.666-.451 1.096v13.45c0 .429.15.794.451 1.095.301.3.666.451 1.096.451h16.178zM9.689 7.66h-.021c-.215 0-.394-.079-.537-.236l-.043-.022L3.2 2.547h12.87l-5.759 4.812-.042.022-.022.043c-.158.157-.344.236-.559.236zm8.036 8.336H1.547V3.17l6.51 5.371c.444.444.988.666 1.632.666.645 0 1.19-.23 1.633-.687l6.403-5.35v12.826z" transform="translate(-52.000000, -313.000000) translate(29.000000, 81.000000) translate(1.000000, 0.000000) translate(0.000000, 214.000000) translate(22.000000, 17.000000)"/>
                        </g>
                    </g>
                </g>
            </g>
        </g>
    </g>
</svg>
