<svg xmlns="http://www.w3.org/2000/svg" width="15" height="19" viewBox="0 0 15 19">
    <g fill="none" fill-rule="evenodd">
        <g fill="#7F7CA3" fill-rule="nonzero" stroke="#8988AE" stroke-width=".5">
            <g>
                <path d="M12.324 17.46c.196 0 .362-.067.498-.204.137-.137.205-.303.205-.498-.013-.886-.188-1.732-.527-2.54-.326-.78-.788-1.47-1.387-2.07-.599-.599-1.289-1.06-2.07-1.386-.26-.117-.534-.215-.82-.293.794-.26 1.49-.69 2.09-1.29 1.054-1.054 1.582-2.324 1.582-3.808s-.528-2.75-1.582-3.799C9.258.524 7.987 0 6.502 0 5.02 0 3.754.524 2.706 1.572s-1.572 2.315-1.572 3.8c0 1.483.52 2.753 1.562 3.808.6.599 1.296 1.028 2.09 1.289-.3.078-.573.176-.82.293-.781.325-1.472.787-2.07 1.386-.6.6-1.062 1.29-1.387 2.07-.339.808-.508 1.654-.508 2.54 0 .195.068.361.205.498.137.137.303.205.498.205s.361-.068.498-.205c.137-.137.205-.303.205-.498 0-1.406.498-2.61 1.494-3.613.996-1.003 2.2-1.504 3.614-1.504 1.412 0 2.617.498 3.613 1.494s1.494 2.204 1.494 3.623c0 .195.068.361.205.498.137.137.303.205.498.205zm-5.82-8.105c-1.094 0-2.031-.39-2.813-1.171-.768-.782-1.152-1.72-1.152-2.813 0-1.094.387-2.028 1.162-2.803.775-.774 1.71-1.162 2.803-1.162 1.094 0 2.028.388 2.803 1.162.774.775 1.162 1.71 1.162 2.803 0 1.094-.388 2.031-1.162 2.813-.775.78-1.71 1.171-2.803 1.171z" transform="translate(-19.000000, -315.000000) translate(20.000000, 316.000000)"/>
            </g>
        </g>
    </g>
</svg>
