<svg xmlns="http://www.w3.org/2000/svg" xmlns:xlink="http://www.w3.org/1999/xlink" width="12" height="12" viewBox="0 0 12 12">
    <defs>
        <path id="so4rui9g7a" d="M0 0H12V12H0z"/>
    </defs>
    <g fill="none" fill-rule="evenodd">
        <g>
            <g>
                <g>
                    <g>
                        <g transform="translate(-40.000000, -580.000000) translate(0.000000, 103.000000) translate(20.000000, 466.000000) translate(20.000000, 8.000000) translate(0.000000, 3.000000)">
                            <mask id="rb72cdx5qb" fill="#fff">
                                <use xlink:href="#so4rui9g7a"/>
                            </mask>
                            <path fill="#FFF" d="M5.536 11.158c-.485-.424-.952-.822-1.364-1.174l-.003-.001c-1.208-1.03-2.252-1.92-2.979-2.797C.378 6.206 0 5.277 0 4.263 0 3.277.338 2.367.952 1.7c.621-.674 1.474-1.045 2.4-1.045.693 0 1.327.22 1.886.651.282.218.537.485.762.796.225-.311.48-.578.762-.796.559-.432 1.193-.65 1.886-.65.926 0 1.779.37 2.4 1.044.614.666.952 1.576.952 2.562 0 1.014-.378 1.943-1.19 2.923-.726.877-1.77 1.766-2.98 2.796-.412.352-.88.751-1.366 1.176-.128.112-.293.174-.464.174-.17 0-.336-.062-.464-.174zM1.47 2.178C.975 2.712.703 3.453.703 4.262c0 .853.317 1.617 1.028 2.475.688.83 1.71 1.7 2.894 2.71l.003.002c.413.352.883.752 1.371 1.18.491-.429.961-.83 1.376-1.183 1.184-1.009 2.206-1.88 2.894-2.71.71-.857 1.028-1.62 1.028-2.474 0-.81-.272-1.55-.766-2.086-.486-.527-1.155-.818-1.883-.818-.534 0-1.023.17-1.456.504-.385.298-.653.675-.81.939-.082.135-.224.216-.382.216s-.3-.08-.381-.216c-.157-.264-.426-.64-.811-.939-.433-.334-.922-.504-1.456-.504-.728 0-1.397.29-1.883.818z" mask="url(#rb72cdx5qb)"/>
                        </g>
                    </g>
                </g>
            </g>
        </g>
    </g>
</svg>
