<svg xmlns="http://www.w3.org/2000/svg" width="11" height="10" viewBox="0 0 11 10">
    <g fill="none" fill-rule="evenodd">
        <g fill="#4267B2">
            <g>
                <g>
                    <g>
                        <path d="M2.38 4.286V10H.477V4.286h1.905zM6.748.476l.505.5c.129.129.21.31.21.505l-.015.152-.452 2.177H10c.523 0 .952.428.952.952v.952c0 .124-.024.238-.067.348L9.447 9.419c-.143.343-.48.581-.876.581H4.285c-.523 0-.952-.429-.952-.952V4.286c0-.262.105-.5.281-.672L6.747.476z" transform="translate(-26.000000, -527.000000) translate(0.000000, 103.000000) translate(21.000000, 419.000000) translate(4.571289, 4.571411)"/>
                    </g>
                </g>
            </g>
        </g>
    </g>
</svg>
