<svg xmlns="http://www.w3.org/2000/svg" width="16" height="21" viewBox="0 0 16 21">
    <g fill="none" fill-rule="evenodd">
        <g fill="#898FAD" fill-rule="nonzero">
            <g>
                <g>
                    <g>
                        <g>
                            <path d="M13.818 20.288c.424 0 .782-.155 1.075-.464.293-.309.439-.675.439-1.098V8.08c0-1.09-.203-2.132-.61-3.125-.39-.977-.936-1.84-1.636-2.588-.7-.732-1.514-1.31-2.441-1.733C9.7.212 8.708 0 7.666 0S5.632.212 4.687.635c-.911.423-1.72 1.005-2.429 1.745-.708.74-1.257 1.6-1.648 2.576C.203 5.95 0 6.991 0 8.081v10.645c0 .423.146.789.44 1.098.292.31.642.464 1.05.464h12.328zM13.794 8.74H1.538v-.659c0-.895.163-1.75.488-2.563.326-.782.773-1.473 1.343-2.076.57-.602 1.205-1.058 1.904-1.367h.025l.024-.024c.733-.342 1.514-.513 2.344-.513.814 0 1.595.171 2.344.513.732.325 1.383.79 1.953 1.391.57.603 1.009 1.294 1.318 2.076.342.813.513 1.668.513 2.563v.66zm0 10.01H1.538v-8.447h12.256v8.447zm-6.128-2.246c.195 0 .366-.07.513-.208.146-.138.22-.305.22-.5V13.77c.39-.26.585-.635.585-1.124 0-.358-.126-.667-.378-.927s-.562-.39-.928-.39-.68.13-.94.39c-.26.26-.39.57-.39.927 0 .489.203.863.61 1.124v2.026c0 .195.07.362.208.5.138.139.305.208.5.208z" transform="translate(-52.000000, -538.000000) translate(29.000000, 81.000000) translate(1.000000, 0.000000) translate(0.000000, 442.000000) translate(22.000000, 15.000000)"/>
                        </g>
                    </g>
                </g>
            </g>
        </g>
    </g>
</svg>
