<svg xmlns="http://www.w3.org/2000/svg" xmlns:xlink="http://www.w3.org/1999/xlink" width="32" height="32" viewBox="0 0 32 32">
    <defs>
        <path id="d03bphaiaa" d="M0 0H32V32H0z"/>
    </defs>
    <g fill="none" fill-rule="evenodd">
        <g>
            <g>
                <g>
                    <g transform="translate(-296.000000, -912.000000) translate(20.000000, 873.000000) translate(267.000000, 39.000000) translate(9.000000, 0.000000)">
                        <mask id="v0rthzzanb" fill="#fff">
                            <use xlink:href="#d03bphaiaa"/>
                        </mask>
                        <g mask="url(#v0rthzzanb)">
                            <path d="M0 0h32v32H0V0z"/>
                            <g fill="#BBB6D3">
                                <path d="M15.895 14.329c1.218-1.553 1.88-3.47 1.877-5.443 0-1.757-.521-3.475-1.498-4.937-.976-1.461-2.364-2.6-3.987-3.273-1.624-.672-3.41-.848-5.135-.505C5.43.514 3.845 1.36 2.602 2.603 1.36 3.845.515 5.429.172 7.153c-.343 1.723-.167 3.51.505 5.134.673 1.623 1.812 3.011 3.273 3.987 1.462.977 3.18 1.498 4.937 1.498 1.973.003 3.89-.659 5.443-1.877l3.765 3.776c.103.105.226.187.362.244.135.056.28.085.427.085.146 0 .292-.029.427-.085.135-.057.258-.14.361-.244.105-.103.187-.226.244-.361.056-.135.085-.28.085-.427 0-.147-.029-.292-.085-.427-.057-.136-.14-.259-.244-.362l-3.776-3.765zM3.345 5.183c.732-1.096 1.773-1.95 2.99-2.454 1.218-.505 2.558-.637 3.851-.38 1.293.258 2.48.892 3.413 1.825.932.932 1.566 2.12 1.823 3.412.258 1.293.126 2.633-.379 3.85-.504 1.218-1.358 2.26-2.454 2.991-1.096.733-2.385 1.124-3.703 1.124-1.768 0-3.463-.703-4.712-1.952-1.25-1.25-1.952-2.945-1.952-4.713 0-1.318.39-2.607 1.123-3.703z" transform="translate(6.000000, 6.000000)"/>
                            </g>
                        </g>
                    </g>
                </g>
            </g>
        </g>
    </g>
</svg>
