<svg xmlns="http://www.w3.org/2000/svg" xmlns:xlink="http://www.w3.org/1999/xlink" width="48" height="48" viewBox="0 0 48 48">
    <defs>
        <path id="ke7d8fnepa" d="M0 0H24V24H0z"/>
    </defs>
    <g fill="none" fill-rule="evenodd">
        <g>
            <g>
                <g>
                    <path fill="#7A5BAE" d="M24 48c13.255 0 24-10.745 24-24S37.255 0 24 0 0 10.745 0 24s10.745 24 24 24z" transform="translate(-162.000000, -873.000000) translate(20.000000, 873.000000) translate(142.000000, 0.000000)"/>
                    <g transform="translate(-162.000000, -873.000000) translate(20.000000, 873.000000) translate(142.000000, 0.000000) translate(12.000000, 12.000000)">
                        <mask id="cyfw71jc7b" fill="#fff">
                            <use xlink:href="#ke7d8fnepa"/>
                        </mask>
                        <path fill="#FFF" d="M5.484 4.859C3.656 6.687 2.628 9.165 2.625 11.75v7.906c0 .49.195.958.54 1.303.346.346.815.54 1.304.541h7.906c2.586 0 5.066-1.027 6.894-2.856 1.829-1.828 2.856-4.308 2.856-6.894 0-2.586-1.027-5.066-2.856-6.894C17.441 3.027 14.961 2 12.375 2c-2.585.003-5.063 1.031-6.891 2.859zM4.875 19.25v-7.5c0-1.483.44-2.933 1.264-4.167.824-1.233 1.995-2.194 3.366-2.762 1.37-.568 2.878-.716 4.333-.427 1.455.29 2.791 1.004 3.84 2.053 1.05 1.049 1.764 2.385 2.053 3.84.29 1.455.14 2.963-.427 4.333-.568 1.37-1.529 2.542-2.762 3.366-1.234.824-2.684 1.264-4.167 1.264h-7.5zm4.247-6.291c-.165.246-.399.439-.673.552-.274.114-.576.144-.867.086-.29-.058-.558-.201-.768-.41-.21-.21-.352-.478-.41-.769-.058-.29-.028-.592.085-.867.114-.274.306-.508.553-.673.246-.165.536-.253.833-.253.398 0 .779.16 1.06.44.281.282.44.663.44 1.06 0 .297-.088.587-.253.834zm4.5 0c-.165.246-.399.439-.673.552-.274.114-.576.144-.867.086-.29-.058-.558-.201-.768-.41-.21-.21-.352-.478-.41-.769-.058-.29-.028-.592.085-.867.114-.274.306-.508.553-.673.246-.165.536-.253.833-.253.398 0 .779.16 1.06.44.281.282.44.663.44 1.06 0 .297-.088.587-.253.834zm4.5 0c-.165.246-.399.439-.673.552-.274.114-.576.144-.867.086-.29-.058-.558-.201-.768-.41-.21-.21-.352-.478-.41-.769-.058-.29-.028-.592.085-.867.114-.274.306-.508.553-.673.246-.165.536-.253.833-.253.398 0 .779.16 1.06.44.281.282.44.663.44 1.06 0 .297-.088.587-.253.834z" mask="url(#cyfw71jc7b)"/>
                    </g>
                </g>
            </g>
        </g>
    </g>
</svg>
