<svg xmlns="http://www.w3.org/2000/svg" width="16" height="16" viewBox="0 0 16 16">
    <g fill="none" fill-rule="evenodd">
        <g fill="#CBCAD3">
            <g>
                <g>
                    <g>
                        <path d="M2.667 10.667c1.472 0 2.666 1.194 2.666 2.666C5.333 14.806 4.14 16 2.667 16 1.194 16 0 14.806 0 13.333c0-1.472 1.194-2.666 2.667-2.666zm10.666 0c1.473 0 2.667 1.194 2.667 2.666C16 14.806 14.806 16 13.333 16c-1.473 0-2.666-1.194-2.666-2.667 0-1.472 1.193-2.666 2.666-2.666zM2.667 0c1.472 0 2.666 1.194 2.666 2.667 0 1.472-1.194 2.666-2.666 2.666C1.194 5.333 0 4.14 0 2.667 0 1.194 1.194 0 2.667 0zm10.666 0C14.806 0 16 1.194 16 2.667c0 1.472-1.194 2.666-2.667 2.666-1.473 0-2.666-1.194-2.666-2.666C10.667 1.194 11.86 0 13.333 0z" transform="translate(-335.000000, -703.000000) translate(0.000000, 103.000000) translate(0.000000, 577.000000) translate(335.000000, 23.000000)"/>
                    </g>
                </g>
            </g>
        </g>
    </g>
</svg>
