<svg xmlns="http://www.w3.org/2000/svg" width="19" height="19" viewBox="0 0 19 19">
    <g fill="none" fill-rule="evenodd" stroke-linecap="round" stroke-linejoin="round">
        <g stroke="#898FAD" stroke-width="1.5">
            <g>
                <g>
                    <g>
                        <g>
                            <g>
                                <path d="M10.426 15.782c1.598 1.021 3.69.794 5.031-.546l.565-.565c.525-.525.525-1.377 0-1.902l-2.384-2.384c-.525-.525-1.377-.525-1.903 0h0c-.526.525-1.378.525-1.904 0l-3.8-3.806c-.525-.526-.525-1.378 0-1.904h0c.525-.525.525-1.377 0-1.902L3.652.393C3.127-.13 2.275-.13 1.75.394L1.185.96C-.156 2.3-.385 4.39.633 5.99c2.608 3.86 5.933 7.184 9.793 9.792h0z" transform="translate(-50.000000, -388.000000) translate(29.000000, 81.000000) translate(1.000000, 0.000000) translate(0.000000, 290.000000) translate(21.000000, 17.000000) translate(0.000000, 1.000000)"/>
                            </g>
                        </g>
                    </g>
                </g>
            </g>
        </g>
    </g>
</svg>
