<svg xmlns="http://www.w3.org/2000/svg" width="8" height="14" viewBox="0 0 8 14">
    <g fill="none" fill-rule="evenodd">
        <g fill="#9A9DAD" fill-rule="nonzero">
            <g>
                <g>
                    <path d="M319.28 17.226l-6.088-6.017c-.123-.121-.192-.286-.192-.459 0-.172.07-.337.192-.458l6.089-6.017c.373-.367.97-.367 1.344 0 .177.175.278.414.278.664 0 .25-.1.488-.278.664l-5.209 5.147 5.209 5.147c.177.175.277.414.277.664 0 .25-.1.489-.277.664-.373.367-.971.367-1.344 0" transform="translate(-338.000000, -143.000000) translate(10.000000, 120.000000) translate(15.000000, 19.000000) translate(316.951265, 10.749984) scale(-1, 1) translate(-316.951265, -10.749984)"/>
                </g>
            </g>
        </g>
    </g>
</svg>
