<svg xmlns="http://www.w3.org/2000/svg" width="20" height="21" viewBox="0 0 20 21">
    <g fill="none" fill-rule="evenodd" stroke-linecap="round" stroke-linejoin="round">
        <g stroke="#B6B9C2" stroke-width="2">
            <g>
                <g transform="translate(-31.000000, -405.000000) translate(30.000000, 177.000000) translate(2.000000, 229.200000)">
                    <circle cx="9.455" cy="9.455" r="2.455"/>
                    <path d="M15.055 11.455c-.223.504-.116 1.094.27 1.489l.049.049c.307.307.48.723.48 1.157 0 .435-.173.851-.48 1.158-.307.307-.724.48-1.158.48-.434 0-.85-.173-1.158-.48l-.049-.049c-.394-.386-.984-.493-1.489-.27-.495.212-.816.697-.818 1.236v.139c0 .903-.733 1.636-1.637 1.636-.903 0-1.636-.733-1.636-1.636v-.074c-.013-.554-.363-1.044-.884-1.235-.504-.223-1.094-.116-1.489.27l-.049.049c-.307.307-.723.48-1.157.48-.435 0-.851-.173-1.158-.48-.307-.307-.48-.724-.48-1.158 0-.434.173-.85.48-1.158l.049-.049c.386-.394.493-.984.27-1.489-.212-.495-.697-.816-1.236-.818h-.139C.733 10.702 0 9.969 0 9.065 0 8.162.733 7.43 1.636 7.43h.074c.554-.013 1.044-.363 1.235-.884.223-.504.116-1.094-.27-1.489l-.049-.049c-.307-.307-.48-.723-.48-1.157 0-.435.173-.851.48-1.158.307-.307.724-.48 1.158-.48.434 0 .85.173 1.158.48l.049.049c.394.386.984.493 1.489.27h.065c.495-.212.816-.697.819-1.236v-.139C7.364.733 8.096 0 9 0c.904 0 1.636.733 1.636 1.636v.074c.003.538.324 1.023.819 1.235.504.223 1.094.116 1.489-.27l.049-.049c.307-.307.723-.48 1.157-.48.435 0 .851.173 1.158.48.307.307.48.724.48 1.158 0 .434-.173.85-.48 1.158l-.049.049c-.386.394-.493.984-.27 1.489v.065c.212.495.697.816 1.236.819h.139C17.267 7.364 18 8.096 18 9c0 .904-.733 1.636-1.636 1.636h-.074c-.538.003-1.023.324-1.235.819z"/>
                </g>
            </g>
        </g>
    </g>
</svg>
