<svg xmlns="http://www.w3.org/2000/svg" xmlns:xlink="http://www.w3.org/1999/xlink" width="12" height="12" viewBox="0 0 12 12">
    <defs>
        <path id="5kmxgy5gha" d="M0 0H12V12H0z"/>
    </defs>
    <g fill="none" fill-rule="evenodd">
        <g>
            <g>
                <g>
                    <g>
                        <g transform="translate(-284.000000, -580.000000) translate(0.000000, 103.000000) translate(20.000000, 466.000000) translate(264.000000, 8.000000) translate(0.000000, 3.000000)">
                            <mask id="5tbwuqzcob" fill="#fff">
                                <use xlink:href="#5kmxgy5gha"/>
                            </mask>
                            <path fill="#BAB2BF" d="M7.024.676C6.94.592 6.834.535 6.717.512 6.601.488 6.48.5 6.37.546c-.11.045-.203.122-.269.22-.066.1-.1.215-.1.334v2.127c-1.64.152-3.163.91-4.273 2.125C.618 6.568.002 8.154 0 9.8v.9c0 .125.039.246.111.347.072.102.174.178.292.22.118.04.245.043.365.009.12-.035.225-.106.302-.204.588-.7 1.31-1.274 2.122-1.691.813-.417 1.7-.668 2.61-.738.03-.004.106-.01.198-.016V10.7c0 .119.035.235.101.333.066.099.16.176.27.221.11.046.23.057.346.034.116-.023.223-.08.307-.164l4.8-4.8c.113-.112.176-.265.176-.424 0-.16-.063-.312-.176-.424l-4.8-4.8zM7.2 8c0-.16-.063-.312-.176-.424C6.912 7.463 6.76 7.4 6.6 7.4c-.153 0-.778.03-.937.05-1.617.15-3.157.764-4.432 1.77.145-1.324.773-2.547 1.763-3.436C3.985 4.894 5.27 4.402 6.6 4.4c.16 0 .312-.063.424-.176.113-.112.176-.265.176-.424V2.548L10.552 5.9 7.2 9.252V8z" mask="url(#5tbwuqzcob)"/>
                        </g>
                    </g>
                </g>
            </g>
        </g>
    </g>
</svg>
