<svg xmlns="http://www.w3.org/2000/svg" width="18" height="18" viewBox="0 0 18 18">
    <g fill="none" fill-rule="evenodd">
        <g fill="#9D9BA7" fill-rule="nonzero">
            <g>
                <path d="M33.797 27.5c.195 0 .364-.065.508-.195.13-.144.195-.313.195-.508s-.065-.365-.195-.508l-4.024-4.004C31.427 20.892 32 19.297 32 17.5c0-2.07-.732-3.838-2.197-5.303C28.338 10.732 26.57 10 24.5 10s-3.838.732-5.303 2.197C17.732 13.662 17 15.43 17 17.5s.732 3.838 2.197 5.303C20.662 24.268 22.43 25 24.5 25c1.797 0 3.392-.573 4.785-1.719l4.024 4.024c.13.13.293.195.488.195zM24.5 23.594c-.833 0-1.621-.157-2.363-.469-.73-.313-1.377-.752-1.944-1.318-.566-.567-.999-1.215-1.298-1.944-.326-.742-.489-1.53-.489-2.363s.163-1.621.489-2.363c.299-.73.732-1.377 1.298-1.944.567-.566 1.215-1.005 1.944-1.318.742-.313 1.53-.469 2.363-.469s1.621.156 2.363.469c.73.313 1.377.752 1.944 1.318.566.567 1.006 1.215 1.318 1.944.313.742.469 1.53.469 2.363s-.157 1.621-.469 2.363c-.313.73-.752 1.377-1.318 1.944-.567.566-1.215 1.006-1.944 1.318-.742.313-1.53.469-2.363.469z" transform="translate(-45.000000, -113.000000) translate(28.000000, 103.000000)"/>
            </g>
        </g>
    </g>
</svg>
