<?xml version="1.0" encoding="UTF-8"?>
<svg width="274px" height="60px" viewBox="0 0 274 60" version="1.1" xmlns="http://www.w3.org/2000/svg" xmlns:xlink="http://www.w3.org/1999/xlink">
    <title>Group 238</title>
    <defs>
        <path d="M247.686762,25.0001936 L221.373525,0 L221.373525,60 L237.161234,60 L237.161234,39.9996129 L247.686762,50.0003871 L258.212291,39.9996129 L258.212291,60 L274,60 L274,0 L247.686762,25.0001936 Z M166.028976,5.00096783 L166.028976,25.0001936 L144.979086,25.0001936 L160.766795,39.9996129 L166.028976,39.9996129 L166.028976,60 L213.394438,60 L213.394438,44.9994193 L181.817853,44.9994193 L181.817853,39.9996129 L213.394438,39.9996129 L213.394438,25.0001936 L181.817853,25.0001936 L181.817853,20.0003871 L213.394438,20.0003871 L213.394438,5.00096783 L166.028976,5.00096783 Z M110.685595,5.00096783 L110.685595,20.0003871 L126.474471,20.0003871 L126.474471,60 L142.262181,60 L142.262181,20.0003871 L158.051057,20.0003871 L158.051057,5.00096783 L110.685595,5.00096783 Z M55.3433811,60 L102.707676,60 L102.707676,5.00096783 L55.3433811,5.00096783 L55.3433811,60 Z M71.1310903,44.9994193 L86.9187994,44.9994193 L86.9187994,20.0003871 L71.1310903,20.0003871 L71.1310903,44.9994193 Z M0,5.00096783 L0,20.0003871 L15.7877091,20.0003871 L15.7877091,60 L31.5765858,60 L31.5765858,20.0003871 L47.3631273,20.0003871 L47.3631273,5.00096783 L0,5.00096783 Z" id="path-1"></path>
    </defs>
    <g id="Page-1" stroke="none" stroke-width="1" fill="none" fill-rule="evenodd">
        <g id="Group-238">
            <mask id="mask-2" fill="white">
                <use xlink:href="#path-1"></use>
            </mask>
            <g id="Clip-237"></g>
            <polygon id="Fill-236" fill="#FFFFFF" mask="url(#mask-2)" points="-15 74 288 74 288 -37 -15 -37"></polygon>
        </g>
    </g>
</svg>