<svg xmlns="http://www.w3.org/2000/svg" width="20" height="20" viewBox="0 0 20 20">
    <g fill="none" fill-rule="evenodd">
        <g fill="#ACA5E7" fill-rule="nonzero">
            <g>
                <path d="M17 20c5.52 0 10-4.48 10-10S22.52 0 17 0 7 4.48 7 10s4.48 10 10 10zm-1.185-4.206c-.208 0-.43-.09-.586-.247l-4.713-4.714c-.157-.156-.235-.364-.235-.586 0-.221.078-.442.235-.599L11.7 8.477c.156-.157.364-.248.585-.248.222 0 .43.091.586.248l2.943 2.942 5.313-5.3c.156-.155.364-.247.586-.247.22 0 .43.092.585.248l1.185 1.172c.157.156.235.377.235.599 0 .221-.078.43-.235.586l-7.07 7.07c-.156.156-.378.247-.599.247z" transform="translate(-294.000000, -403.000000) translate(287.000000, 403.000000)"/>
            </g>
        </g>
    </g>
</svg>
